{
.appVersion = "3112";
.formatVersion = 3;
date = "2022-12-25 14:08:02 +0000";
familyName = "Pure Pin One";
featurePrefixes = (
{
automatic = 1;
code = "languagesystem DFLT dflt;

languagesystem thai dflt;

languagesystem latn dflt;
languagesystem latn AZE;
languagesystem latn CRT;
languagesystem latn KAZ;
languagesystem latn TAT;
languagesystem latn TRK;
languagesystem latn ROM;
languagesystem latn MOL;
languagesystem latn NLD;
";
name = Languagesystems;
},
{
code = "lookup SUB_14 {
	sub yoYing-thai by yoYing-thai.less;
	sub doChada-thai by doChada-thai.short;
	sub toPatak-thai by toPatak-thai.short;
	sub thoThan-thai by thoThan-thai.less;
	sub saraU-thai by saraU-thai.small;
	sub saraUu-thai by saraUu-thai.small;
	sub phinthu-thai by phinthu-thai.small;
	sub maiEk-thai by maiEk-thai.small;
	sub maiTho-thai by maiTho-thai.small;
	sub maiTri-thai by maiTri-thai.small;
	sub maiChattawa-thai by maiChattawa-thai.small;
	sub thanthakhat-thai by thanthakhat-thai.small;
} SUB_14;
lookup SUB_15 {
	sub d by phinthu-thai;
	sub k by saraU-thai;
	sub t by saraUu-thai;
	sub maiHanaKat-thai by maiHanaKat-thai.narrow;
	sub saraI-thai by saraI-thai.narrow;
	sub saraIi-thai by saraIi-thai.narrow;
	sub saraUe-thai by saraUe-thai.narrow;
	sub saraUee-thai by saraUee-thai.narrow;
	sub saraU-thai by k;
	sub saraUu-thai by t;
	sub phinthu-thai by d;
	sub maitaikhu-thai by maitaikhu-thai.narrow;
	sub maiEk-thai by maiEk-thai.narrow;
	sub maiTho-thai by maiTho-thai.narrow;
	sub maiTri-thai by maiTri-thai.narrow;
	sub maiChattawa-thai by maiChattawa-thai.small;
	sub thanthakhat-thai by thanthakhat-thai.narrow;
} SUB_15;
";
name = prefix;
}
);
features = (
{
automatic = 1;
code = "feature locl;
feature sups;
feature frac;
feature ordn;
";
tag = aalt;
},
{
automatic = 1;
code = "lookup ccmp_Other_1 {
	@CombiningTopAccents = [acutecomb brevecomb circumflexcomb dieresiscomb dotaccentcomb gravecomb macroncomb ringcomb tildecomb];
	@CombiningNonTopAccents = [cedillacomb ogonekcomb];

glyphs = (
{
glyphname = A;
kernLeft = A;
kernRight = B;
lastChange = "2022-12-13 15:17:57 +0000";
layers = (
{
layerId = m01;
shapes = (
{
closed = 1;
nodes = (
(66,408,l),
(66,478,ls),
(66,545,o),
(121,600,o),
(188,600,cs),
(255,600,o),
(310,545,o),
(310,478,cs),
(310,408,l)
);
},
{
closed = 1;
nodes = (
(318,478,ls),
(318,551,o),
(256,611,o),
(181,607,cs),
(112,604,o),
(58,543,o),
(58,474,cs),
(58,8,l),
(25,8,l),
(25,0,l),
(99,0,l),
(99,8,l),
(94,8,ls),
(79,8,o),
(66,20,o),
(66,36,cs),
(66,400,l),
(310,400,l),
(310,8,l),
(277,8,l),
(277,0,l),
(351,0,l),
(351,8,l),
(346,8,ls),
(330,8,o),
(318,20,o),
(318,36,cs)
);
}
);
width = 361;
}
);
unicode = 65;
},
{
glyphname = Amacron;
kernLeft = A;
kernRight = A;
lastChange = "2022-11-25 18:34:05 +0000";
layers = (
{
layerId = m01;
shapes = (
{
closed = 1;
nodes = (
(66,408,l),
(66,478,ls),
(66,545,o),
(121,600,o),
(188,600,cs),
(255,600,o),
(310,545,o),
(310,478,cs),
(310,408,l)
);
},
{
closed = 1;
nodes = (
(318,478,ls),
(318,551,o),
(256,611,o),
(181,607,cs),
(112,604,o),
(58,543,o),
(58,474,cs),
(58,8,l),
(25,8,l),
(25,0,l),
(99,0,l),
(99,8,l),
(94,8,ls),
(79,8,o),
(66,20,o),
(66,36,cs),
(66,400,l),
(310,400,l),
(310,8,l),
(277,8,l),
(277,0,l),
(351,0,l),
(351,8,l),
(346,8,ls),
(330,8,o),
(318,20,o),
(318,36,cs)
);
},
{
closed = 1;
nodes = (
(123,674,l),
(253,674,l),
(253,682,l),
(123,682,l)
);
}
);
width = 376;
}
);
unicode = 256;
},
{
glyphname = AE;
kernLeft = A;
kernRight = E;
lastChange = "2022-11-25 18:34:05 +0000";
layers = (
{
layerId = m01;
shapes = (
{
closed = 1;
nodes = (
(109,0,l),
(109,7,l),
(103,7,ls),
(87,7,o),
(75,20,o),
(75,36,cs),
(75,474,ls),
(75,541,o),
(128,600,o),
(197,600,cs),
(265,600,o),
(319,544,o),
(319,477,c),
(326,477,l),
(326,549,o),
(268,607,o),
(195,607,cs),
(124,607,o),
(67,545,o),
(67,474,cs),
(67,7,l),
(35,7,l),
(35,0,l)
);
},
{
closed = 1;
nodes = (
(324,400,l),
(324,408,l),
(69,408,l),
(69,400,l)
);
},
{
closed = 1;
nodes = (
(569,0,l),
(569,7,l),
(351,7,ls),
(337,7,o),
(326,18,o),
(326,32,cs),
(326,567,ls),
(326,581,o),
(337,592,o),
(351,592,cs),
(569,592,l),
(569,600,l),
(351,600,ls),
(333,600,o),
(319,585,o),
(319,567,cs),
(319,32,ls),
(319,14,o),
(333,0,o),
(351,0,cs)
);
},
{
closed = 1;
nodes = (
(541,400,l),
(541,408,l),
(323,408,l),
(323,400,l)
);
}
);
width = 604;
}
);
unicode = 198;
},
{
glyphname = B;
kernLeft = B;
kernRight = B;
lastChange = "2022-12-13 15:17:59 +0000";
layers = (
{
layerId = m01;
shapes = (
{
closed = 1;
nodes = (
(277,489,ls),
(277,444,o),
(241,407,o),
(196,407,cs),
(38,407,l),
(38,579,ls),
(38,586,o),
(44,592,o),
(51,592,cs),
(196,592,ls),
(241,592,o),
(277,556,o),
(277,511,cs)
);
},
{
closed = 1;
nodes = (
(277,89,ls),
(277,44,o),
(241,8,o),
(196,8,cs),
(51,8,ls),
(44,8,o),
(38,13,o),
(38,21,cs),
(38,400,l),
(196,400,ls),
(241,400,o),
(277,363,o),
(277,318,cs)
);
},
{
closed = 1;
nodes = (
(51,600,ls),
(40,600,o),
(30,590,o),
(30,579,cs),
(30,21,ls),
(30,9,o),
(40,0,o),
(51,0,cs),
(196,0,ls),
(245,0,o),
(285,40,o),
(285,89,cs),
(285,318,ls),
(285,359,o),
(258,393,o),
(221,404,c),
(258,414,o),
(285,448,o),
(285,489,cs),
(285,511,ls),
(285,560,o),
(245,600,o),
(196,600,cs)
);
}
);
width = 315;
}
);
unicode = 66;
},
{
glyphname = C;
kernLeft = C;
kernRight = C;
lastChange = "2022-11-25 18:34:05 +0000";
layers = (
{
layerId = m01;
shapes = (
{
closed = 1;
nodes = (
(227,599,o),
(282,544,o),
(282,477,c),
(290,477,l),
(290,548,o),
(231,607,o),
(160,607,cs),
(88,607,o),
(30,548,o),
(30,477,cs),
(30,122,ls),
(30,50,o),
(88,-8,o),
(160,-8,cs),
(231,-8,o),
(290,50,o),
(290,122,c),
(282,122,l),
(282,54,o),
(227,0,o),
(160,0,cs),
(93,0,o),
(38,54,o),
(38,122,cs),
(38,477,ls),
(38,544,o),
(93,599,o),
(160,599,cs)
);
}
);
width = 320;
}
);
unicode = 67;
},
{
glyphname = D;
kernLeft = D;
kernRight = D;
lastChange = "2022-11-25 18:34:05 +0000";
layers = (
{
layerId = m01;
shapes = (
{
closed = 1;
nodes = (
(276,89,ls),
(276,44,o),
(240,8,o),
(195,8,cs),
(50,8,ls),
(43,8,o),
(37,13,o),
(37,21,cs),
(37,579,ls),
(37,586,o),
(43,592,o),
(50,592,cs),
(195,592,ls),
(240,592,o),
(276,556,o),
(276,511,cs)
);
},
{
closed = 1;
nodes = (
(50,600,ls),
(39,600,o),
(30,590,o),
(30,579,cs),
(30,21,ls),
(30,9,o),
(39,0,o),
(50,0,cs),
(195,0,ls),
(244,0,o),
(284,40,o),
(284,89,cs),
(284,511,ls),
(284,560,o),
(244,600,o),
(195,600,cs)
);
}
);
width = 314;
}
);
unicode = 68;
},
{
glyphname = Eth;
kernLeft = D;
kernRight = D;
lastChange = "2022-11-25 18:34:05 +0000";
layers = (
{
layerId = m01;
shapes = (
{
closed = 1;
nodes = (
(321,89,ls),
(321,44,o),
(285,8,o),
(240,8,cs),
(95,8,ls),
(88,8,o),
(82,13,o),
(82,21,cs),
(82,579,ls),
(82,586,o),
(88,592,o),
(95,592,cs),
(240,592,ls),
(285,592,o),
(321,556,o),
(321,511,cs)
);
},
{
closed = 1;
nodes = (
(95,600,ls),
(84,600,o),
(75,590,o),
(75,579,cs),
(75,21,ls),
(75,9,o),
(84,0,o),
(95,0,cs),
(240,0,ls),
(289,0,o),
(329,40,o),
(329,89,cs),
(329,511,ls),
(329,560,o),
(289,600,o),
(240,600,cs)
);
},
{
closed = 1;
nodes = (
(36,400,l),
(210,400,l),
(210,408,l),
(36,408,l)
);
}
);
width = 360;
}
);
unicode = 208;
},
{
glyphname = E;
kernLeft = E;
kernRight = E;
lastChange = "2022-12-13 15:18:52 +0000";
layers = (
{
layerId = m01;
shapes = (
{
closed = 1;
nodes = (
(30,32,ls),
(30,14,o),
(44,0,o),
(62,0,cs),
(280,0,l),
(280,7,l),
(62,7,ls),
(48,7,o),
(37,18,o),
(37,32,cs),
(37,352,l),
(252,352,l),
(252,359,l),
(37,359,l),
(37,567,ls),
(37,581,o),
(48,592,o),
(62,592,cs),
(280,592,l),
(280,600,l),
(62,600,ls),
(44,600,o),
(30,585,o),
(30,567,cs)
);
}
);
width = 310;
}
);
unicode = 69;
},
{
glyphname = Schwa;
kernLeft = G;
kernRight = G;
lastChange = "2022-11-25 18:34:05 +0000";
layers = (
{
layerId = m01;
shapes = (
{
closed = 1;
nodes = (
(33,169,l),
(33,207,ls),
(33,217,o),
(38,224,o),
(47,224,cs),
(210,224,l),
(210,232,l),
(47,232,ls),
(35,232,o),
(25,222,o),
(25,207,cs),
(25,169,l)
);
},
{
closed = 1;
nodes = (
(25,169,l),
(33,169,l)
);
},
{
closed = 1;
nodes = (
(25,169,l),
(25,122,ls),
(25,50,o),
(83,-8,o),
(155,-8,cs),
(226,-8,o),
(284,50,o),
(284,122,cs),
(284,477,ls),
(284,549,o),
(226,607,o),
(155,607,cs),
(83,607,o),
(25,549,o),
(25,477,cs),
(25,407,l),
(33,407,l),
(33,477,ls),
(33,544,o),
(87,599,o),
(155,599,cs),
(222,599,o),
(277,544,o),
(277,477,cs),
(277,122,ls),
(277,54,o),
(222,0,o),
(155,0,cs),
(87,0,o),
(33,54,o),
(33,122,cs),
(33,169,l)
);
}
);
width = 309;
}
);
unicode = 399;
},
{
glyphname = F;
lastChange = "2022-11-29 18:26:47 +0000";
layers = (
{
layerId = m01;
shapes = (
{
closed = 1;
nodes = (
(58,8,l),
(25,8,l),
(25,0,l),
(99,0,l),
(99,8,l),
(93,8,ls),
(78,8,o),
(65,20,o),
(65,36,cs),
(65,352,l),
(270,352,l),
(270,359,l),
(65,359,l),
(65,579,ls),
(65,587,o),
(71,593,o),
(78,593,cs),
(308,593,l),
(308,600,l),
(78,600,ls),
(67,600,o),
(58,591,o),
(58,579,cs)
);
}
);
width = 333;
}
);
unicode = 70;
},
{
glyphname = G;
kernLeft = G;
kernRight = G;
lastChange = "2022-11-25 18:34:05 +0000";
layers = (
{
layerId = m01;
shapes = (
{
closed = 1;
nodes = (
(222,600,o),
(277,545,o),
(277,478,c),
(284,478,l),
(284,549,o),
(226,607,o),
(154,607,cs),
(83,607,o),
(25,549,o),
(25,478,cs),
(25,122,ls),
(25,50,o),
(83,-8,o),
(154,-8,cs),
(226,-8,o),
(284,50,o),
(284,122,cs),
(284,338,ls),
(284,350,o),
(275,359,o),
(263,359,cs),
(105,359,l),
(105,351,l),
(263,351,ls),
(271,351,o),
(277,345,o),
(277,338,cs),
(277,122,ls),
(277,54,o),
(222,0,o),
(154,0,cs),
(87,0,o),
(32,54,o),
(32,122,cs),
(32,478,ls),
(32,545,o),
(87,600,o),
(154,600,cs)
);
}
);
width = 309;
}
);
unicode = 71;
},
{
glyphname = H;
kernLeft = H;
kernRight = H;
lastChange = "2022-11-25 18:34:05 +0000";
layers = (
{
layerId = m01;
shapes = (
{
closed = 1;
nodes = (
(271,593,l),
(305,593,l),
(305,404,l),
(66,404,l),
(66,565,ls),
(66,580,o),
(78,593,o),
(94,593,cs),
(99,593,l),
(99,600,l),
(25,600,l),
(25,593,l),
(58,593,l),
(58,10,l),
(25,10,l),
(25,2,l),
(99,2,l),
(99,10,l),
(94,10,ls),
(78,10,o),
(66,22,o),
(66,38,cs),
(66,397,l),
(305,397,l),
(305,10,l),
(271,10,l),
(271,2,l),
(346,2,l),
(346,10,l),
(341,10,ls),
(325,10,o),
(312,22,o),
(312,38,cs),
(312,565,ls),
(312,580,o),
(325,593,o),
(341,593,cs),
(346,593,l),
(346,600,l),
(271,600,l)
);
}
);
width = 371;
}
);
unicode = 72;
},
{
glyphname = Hbar;
kernLeft = H;
kernRight = H;
lastChange = "2022-11-25 18:34:05 +0000";
layers = (
{
layerId = m01;
shapes = (
{
closed = 1;
nodes = (
(300,593,l),
(334,593,l),
(334,404,l),
(95,404,l),
(95,565,ls),
(95,580,o),
(107,593,o),
(123,593,cs),
(128,593,l),
(128,600,l),
(54,600,l),
(54,593,l),
(87,593,l),
(87,10,l),
(54,10,l),
(54,2,l),
(128,2,l),
(128,10,l),
(123,10,ls),
(107,10,o),
(95,22,o),
(95,38,cs),
(95,397,l),
(334,397,l),
(334,10,l),
(300,10,l),
(300,2,l),
(375,2,l),
(375,10,l),
(370,10,ls),
(354,10,o),
(341,22,o),
(341,38,cs),
(341,565,ls),
(341,580,o),
(354,593,o),
(370,593,cs),
(375,593,l),
(375,600,l),
(300,600,l)
);
},
{
closed = 1;
nodes = (
(25,509,l),
(404,509,l),
(404,517,l),
(25,517,l)
);
}
);
width = 429;
}
);
unicode = 294;
},
{
glyphname = I;
kernLeft = I;
kernRight = I;
lastChange = "2022-12-13 14:37:11 +0000";
layers = (
{
layerId = m01;
shapes = (
{
closed = 1;
nodes = (
(25,593,l),
(59,593,l),
(59,8,l),
(25,8,l),
(25,0,l),
(100,0,l),
(100,8,l),
(95,8,ls),
(79,8,o),
(66,20,o),
(66,36,cs),
(66,565,ls),
(66,580,o),
(79,593,o),
(95,593,cs),
(100,593,l),
(100,600,l),
(25,600,l)
);
}
);
width = 125;
}
);
unicode = 73;
},
{
glyphname = Itilde;
kernLeft = I;
kernRight = I;
lastChange = "2022-11-25 18:59:07 +0000";
layers = (
{
layerId = m01;
shapes = (
{
closed = 1;
nodes = (
(30,593,l),
(64,593,l),
(64,8,l),
(30,8,l),
(30,0,l),
(105,0,l),
(105,8,l),
(100,8,ls),
(84,8,o),
(71,20,o),
(71,36,cs),
(71,565,ls),
(71,580,o),
(84,593,o),
(100,593,cs),
(105,593,l),
(105,600,l),
(30,600,l)
);
},
{
closed = 1;
nodes = (
(92,658,o),
(81,664,o),
(71,677,cs),
(61,690,o),
(51,696,o),
(41,695,cs),
(21,693,o),
(7,662,o),
(7,662,c),
(0,665,l),
(1,667,o),
(16,700,o),
(40,703,cs),
(53,704,o),
(66,697,o),
(77,682,cs),
(86,670,o),
(96,665,o),
(105,666,cs),
(123,667,o),
(137,695,o),
(137,695,c),
(144,692,l),
(143,691,o),
(128,660,o),
(105,658,cs),
(103,658,ls)
);
}
);
width = 139;
}
);
unicode = 296;
},
{
glyphname = J;
kernLeft = J;
kernRight = J;
lastChange = "2022-11-25 18:34:05 +0000";
layers = (
{
layerId = m01;
shapes = (
{
closed = 1;
nodes = (
(73,593,l),
(106,593,l),
(106,89,ls),
(106,44,o),
(70,8,o),
(25,8,c),
(25,0,l),
(74,0,o),
(114,40,o),
(114,89,cs),
(114,564,ls),
(114,580,o),
(126,593,o),
(142,593,cs),
(147,593,l),
(147,600,l),
(73,600,l)
);
}
);
width = 172;
}
);
unicode = 74;
},
{
glyphname = K;
lastChange = "2022-11-25 18:34:05 +0000";
layers = (
{
layerId = m01;
shapes = (
{
closed = 1;
nodes = (
(265,592,l),
(303,592,l),
(65,308,l),
(65,564,ls),
(65,579,o),
(78,592,o),
(94,592,cs),
(99,592,l),
(99,600,l),
(25,600,l),
(25,592,l),
(58,592,l),
(58,8,l),
(25,8,l),
(25,0,l),
(99,0,l),
(99,8,l),
(94,8,ls),
(78,8,o),
(65,20,o),
(65,36,cs),
(65,297,l),
(149,397,l),
(305,8,l),
(265,8,l),
(265,0,l),
(339,0,l),
(339,8,l),
(323,8,o),
(309,17,o),
(303,32,cs),
(154,403,l),
(296,572,ls),
(306,585,o),
(322,592,o),
(339,592,c),
(339,600,l),
(265,600,l)
);
}
);
width = 364;
}
);
unicode = 75;
},
{
glyphname = L;
kernLeft = L;
kernRight = L;
lastChange = "2022-11-25 18:34:05 +0000";
layers = (
{
layerId = m01;
shapes = (
{
closed = 1;
nodes = (
(66,564,ls),
(66,580,o),
(79,593,o),
(95,593,cs),
(99,593,l),
(99,600,l),
(25,600,l),
(25,593,l),
(59,593,l),
(59,89,ls),
(59,40,o),
(99,0,o),
(148,0,cs),
(309,0,l),
(309,8,l),
(148,8,ls),
(103,8,o),
(66,44,o),
(66,89,cs)
);
}
);
width = 334;
}
);
unicode = 76;
},
{
glyphname = M;
lastChange = "2022-12-13 16:40:33 +0000";
layers = (
{
layerId = m01;
shapes = (
{
closed = 1;
nodes = (
(468,8,ls),
(452,8,o),
(439,20,o),
(439,36,cs),
(439,580,ls),
(439,591,o),
(431,598,o),
(423,600,cs),
(415,602,o),
(405,599,o),
(400,589,cs),
(260,308,ls),
(257,303,o),
(253,301,o),
(248,301,cs),
(243,301,o),
(238,303,o),
(236,308,cs),
(98,589,ls),
(93,599,o),
(83,602,o),
(75,600,cs),
(67,598,o),
(59,591,o),
(59,580,cs),
(59,8,l),
(25,8,l),
(25,0,l),
(99,0,l),
(99,8,l),
(94,8,ls),
(79,8,o),
(66,20,o),
(66,36,cs),
(66,580,ls),
(66,587,o),
(72,591,o),
(76,593,c),
(81,594,o),
(88,592,o),
(91,585,cs),
(229,305,ls),
(233,298,o),
(240,293,o),
(248,293,cs),
(256,293,o),
(263,298,o),
(266,305,cs),
(407,585,ls),
(410,592,o),
(417,594,o),
(422,592,cs),
(426,591,o),
(432,587,o),
(432,580,cs),
(432,8,l),
(398,8,l),
(398,0,l),
(472,0,l),
(472,8,l)
);
}
);
width = 497;
}
);
unicode = 77;
},
{
glyphname = N;
kernLeft = N;
kernRight = N;
lastChange = "2022-12-13 16:40:59 +0000";
layers = (
{
layerId = m01;
shapes = (
{
closed = 1;
nodes = (
(273,592,l),
(305,592,l),
(305,21,ls),
(305,12,o),
(299,8,o),
(294,8,cs),
(289,8,o),
(283,9,o),
(280,17,cs),
(99,585,ls),
(95,597,o),
(85,601,o),
(76,599,cs),
(68,598,o),
(59,591,o),
(59,579,cs),
(59,7,l),
(25,7,l),
(25,0,l),
(100,0,l),
(100,7,l),
(95,7,ls),
(79,7,o),
(66,20,o),
(66,36,cs),
(66,579,ls),
(66,587,o),
(72,591,o),
(77,592,cs),
(83,593,o),
(90,591,o),
(92,583,cs),
(272,15,ls),
(276,4,o),
(284,0,o),
(292,0,cs),
(306,0,o),
(313,8,o),
(313,21,cs),
(313,564,ls),
(313,579,o),
(326,592,o),
(341,592,cs),
(347,592,l),
(347,600,l),
(273,600,l)
);
}
);
width = 372;
}
);
unicode = 78;
},
{
glyphname = O;
kernLeft = O;
kernRight = O;
lastChange = "2022-11-25 18:34:05 +0000";
layers = (
{
layerId = m01;
shapes = (
{
closed = 1;
nodes = (
(277,122,ls),
(277,54,o),
(222,0,o),
(155,0,cs),
(87,0,o),
(33,54,o),
(33,122,cs),
(33,477,ls),
(33,544,o),
(87,599,o),
(155,599,cs),
(222,599,o),
(277,544,o),
(277,477,cs)
);
},
{
closed = 1;
nodes = (
(83,607,o),
(25,549,o),
(25,477,cs),
(25,122,ls),
(25,50,o),
(83,-8,o),
(155,-8,cs),
(226,-8,o),
(284,50,o),
(284,122,cs),
(284,477,ls),
(284,549,o),
(226,607,o),
(155,607,cs)
);
}
);
width = 309;
}
);
unicode = 79;
},
{
glyphname = Oslash;
kernRight = O;
lastChange = "2022-12-13 16:27:54 +0000";
layers = (
{
layerId = m01;
shapes = (
{
closed = 1;
nodes = (
(328,122,ls),
(328,54,o),
(273,0,o),
(206,0,cs),
(138,0,o),
(84,54,o),
(84,122,cs),
(84,477,ls),
(84,544,o),
(138,599,o),
(206,599,cs),
(273,599,o),
(328,544,o),
(328,477,cs)
);
},
{
closed = 1;
nodes = (
(135,607,o),
(77,549,o),
(77,477,cs),
(77,122,ls),
(77,50,o),
(135,-8,o),
(207,-8,cs),
(278,-8,o),
(336,50,o),
(336,122,cs),
(336,477,ls),
(336,549,o),
(278,607,o),
(207,607,cs)
);
},
{
closed = 1;
nodes = (
(329,600,l),
(76,0,l),
(84,0,l),
(337,600,l)
);
}
);
width = 360;
}
);
unicode = 216;
},
{
glyphname = OE;
kernLeft = O;
kernRight = E;
lastChange = "2022-11-25 18:34:05 +0000";
layers = (
{
layerId = m01;
shapes = (
{
closed = 1;
nodes = (
(537,0,l),
(537,7,l),
(319,7,l),
(305,7,o),
(294,18,o),
(294,32,c),
(294,567,l),
(294,581,o),
(305,592,o),
(319,592,c),
(537,592,l),
(537,600,l),
(319,600,l),
(301,600,o),
(287,585,o),
(287,567,c),
(287,32,l),
(287,14,o),
(301,0,o),
(319,0,c)
);
},
{
closed = 1;
nodes = (
(509,400,l),
(509,408,l),
(291,408,l),
(291,400,l)
);
},
{
closed = 1;
nodes = (
(287,122,ls),
(287,54,o),
(232,0,o),
(165,0,cs),
(97,0,o),
(43,54,o),
(43,122,cs),
(43,477,ls),
(43,544,o),
(97,599,o),
(165,599,cs),
(232,599,o),
(287,544,o),
(287,477,cs)
);
},
{
closed = 1;
nodes = (
(93,607,o),
(35,549,o),
(35,477,cs),
(35,122,ls),
(35,50,o),
(93,-8,o),
(165,-8,cs),
(236,-8,o),
(294,50,o),
(294,122,cs),
(294,477,ls),
(294,549,o),
(236,607,o),
(165,607,cs)
);
}
);
width = 572;
}
);
unicode = 338;
},
{
glyphname = P;
kernLeft = P;
kernRight = P;
lastChange = "2022-12-13 15:17:48 +0000";
layers = (
{
layerId = m01;
shapes = (
{
closed = 1;
nodes = (
(318,440,ls),
(318,395,o),
(282,359,o),
(237,359,cs),
(66,359,l),
(66,576,ls),
(66,585,o),
(73,593,o),
(82,593,cs),
(237,593,ls),
(282,593,o),
(318,556,o),
(318,511,cs)
);
},
{
closed = 1;
nodes = (
(82,600,ls),
(69,600,o),
(59,589,o),
(59,576,cs),
(59,7,l),
(25,7,l),
(25,0,l),
(99,0,l),
(99,7,l),
(94,7,ls),
(79,7,o),
(66,20,o),
(66,35,cs),
(66,351,l),
(237,351,ls),
(286,351,o),
(326,391,o),
(326,440,cs),
(326,511,ls),
(326,560,o),
(286,600,o),
(237,600,cs)
);
}
);
width = 338;
}
);
unicode = 80;
},
{
glyphname = Thorn;
kernLeft = P;
kernRight = P;
lastChange = "2022-11-25 18:34:05 +0000";
layers = (
{
layerId = m01;
shapes = (
{
closed = 1;
nodes = (
(237,495,ls),
(282,495,o),
(318,458,o),
(318,413,cs),
(318,391,ls),
(318,346,o),
(282,310,o),
(237,310,cs),
(66,310,l),
(66,495,l)
);
},
{
closed = 1;
nodes = (
(99,0,l),
(99,7,l),
(94,7,ls),
(79,7,o),
(66,20,o),
(66,35,cs),
(66,302,l),
(237,302,ls),
(286,302,o),
(326,342,o),
(326,391,cs),
(326,413,ls),
(326,462,o),
(286,502,o),
(237,502,cs),
(66,502,l),
(66,565,ls),
(66,580,o),
(79,593,o),
(94,593,cs),
(99,593,l),
(99,600,l),
(25,600,l),
(25,593,l),
(59,593,l),
(59,7,l),
(25,7,l),
(25,0,l)
);
}
);
width = 351;
}
);
unicode = 222;
},
{
glyphname = Q;
lastChange = "2022-11-25 18:34:05 +0000";
layers = (
{
layerId = m01;
shapes = (
{
closed = 1;
nodes = (
(92,0,o),
(37,54,o),
(37,122,cs),
(36,477,ls),
(36,544,o),
(91,599,o),
(158,599,cs),
(225,599,o),
(280,544,o),
(280,477,cs),
(281,122,ls),
(281,95,o),
(273,70,o),
(258,50,c),
(172,136,l),
(166,131,l),
(254,44,l),
(231,17,o),
(197,0,o),
(159,0,cs)
);
},
{
closed = 1;
nodes = (
(288,477,ls),
(288,549,o),
(230,607,o),
(158,607,cs),
(87,607,o),
(29,549,o),
(29,477,cs),
(30,122,ls),
(30,50,o),
(88,-8,o),
(159,-8,cs),
(199,-8,o),
(235,10,o),
(259,39,c),
(306,-8,l),
(311,-2,l),
(264,45,l),
(279,66,o),
(289,93,o),
(289,122,cs)
);
}
);
width = 319;
}
);
unicode = 81;
},
{
glyphname = R;
kernLeft = R;
kernRight = R;
lastChange = "2022-12-13 15:18:41 +0000";
layers = (
{
layerId = m01;
shapes = (
{
closed = 1;
nodes = (
(67,576,ls),
(67,585,o),
(74,592,o),
(83,592,cs),
(236,592,ls),
(281,592,o),
(318,556,o),
(318,511,cs),
(318,490,ls),
(318,445,o),
(281,408,o),
(236,408,cs),
(235,408,l),
(232,408,l),
(67,408,l)
);
},
{
closed = 1;
nodes = (
(321,320,ls),
(321,359,o),
(295,392,o),
(260,404,c),
(297,414,o),
(325,449,o),
(325,490,cs),
(325,511,ls),
(325,560,o),
(285,600,o),
(236,600,cs),
(83,600,ls),
(70,600,o),
(59,589,o),
(59,576,cs),
(59,7,l),
(27,7,l),
(27,0,l),
(101,0,l),
(101,7,l),
(95,7,ls),
(80,7,o),
(67,20,o),
(67,36,cs),
(67,401,l),
(235,401,ls),
(279,401,o),
(313,363,o),
(313,320,cs),
(313,61,ls),
(313,27,o),
(340,0,o),
(374,0,c),
(374,8,l),
(345,8,o),
(321,31,o),
(321,61,cs)
);
}
);
width = 388;
}
);
unicode = 82;
},
{
glyphname = S;
kernLeft = S;
kernRight = S;
lastChange = "2022-11-25 18:34:06 +0000";
layers = (
{
layerId = m01;
shapes = (
{
closed = 1;
nodes = (
(106,392,ls),
(73,406,o),
(57,428,o),
(57,457,cs),
(57,487,ls),
(57,544,o),
(100,593,o),
(157,598,cs),
(223,605,o),
(279,552,o),
(279,488,cs),
(279,446,l),
(287,446,l),
(287,487,ls),
(287,548,o),
(241,600,o),
(180,606,cs),
(109,612,o),
(50,557,o),
(50,488,cs),
(50,457,ls),
(50,425,o),
(68,401,o),
(103,385,cs),
(232,329,ls),
(262,316,o),
(281,286,o),
(281,254,cs),
(280,111,ls),
(280,49,o),
(230,0,o),
(169,0,cs),
(167,0,ls),
(106,0,o),
(56,49,o),
(56,111,cs),
(56,184,l),
(89,184,l),
(89,191,l),
(15,191,l),
(15,184,l),
(20,184,ls),
(36,184,o),
(49,171,o),
(49,155,cs),
(49,111,ls),
(49,45,o),
(102,-8,o),
(167,-8,cs),
(169,-8,ls),
(234,-8,o),
(288,45,o),
(288,111,cs),
(288,254,ls),
(288,289,o),
(268,321,o),
(235,335,cs)
);
}
);
width = 312;
}
);
unicode = 83;
},
{
glyphname = Saltillo;
lastChange = "2022-11-25 18:34:06 +0000";
layers = (
{
layerId = m01;
shapes = (
{
closed = 1;
nodes = (
(25,607,l),
(25,308,l),
(32,308,l),
(32,607,l)
);
}
);
width = 57;
}
);
unicode = 42891;
},
{
glyphname = Germandbls;
kernLeft = B;
kernRight = B;
lastChange = "2022-11-25 18:34:06 +0000";
layers = (
{
layerId = m01;
shapes = (
{
closed = 1;
nodes = (
(39,579,ls),
(39,586,o),
(45,592,o),
(52,592,cs),
(197,592,ls),
(242,592,o),
(278,556,o),
(278,511,cs),
(278,489,ls),
(278,444,o),
(242,407,o),
(197,407,cs),
(190,407,l),
(190,400,l),
(197,400,ls),
(242,400,o),
(278,363,o),
(278,318,cs),
(278,81,ls),
(278,36,o),
(242,0,o),
(197,0,cs),
(190,0,l),
(190,-8,l),
(197,-8,ls),
(246,-8,o),
(286,32,o),
(286,81,cs),
(286,318,ls),
(286,359,o),
(259,393,o),
(222,404,c),
(259,414,o),
(286,448,o),
(286,489,cs),
(286,511,ls),
(286,560,o),
(246,600,o),
(197,600,cs),
(52,600,ls),
(41,600,o),
(31,590,o),
(31,579,cs),
(31,0,l),
(39,0,l)
);
},
{
closed = 1;
nodes = (
(31,143,l),
(31,8,l),
(-1,8,l),
(-1,0,l),
(73,0,l),
(73,8,l),
(68,8,ls),
(52,8,o),
(39,20,o),
(39,36,cs),
(39,143,l)
);
}
);
width = 315;
}
);
unicode = 7838;
},
{
glyphname = T;
kernLeft = T;
kernRight = T;
lastChange = "2022-11-29 18:49:59 +0000";
layers = (
{
layerId = m01;
shapes = (
{
closed = 1;
nodes = (
(25,592,l),
(145,592,l),
(145,8,l),
(112,8,l),
(112,0,l),
(186,0,l),
(186,8,l),
(181,8,ls),
(165,8,o),
(152,20,o),
(152,36,cs),
(152,592,l),
(272,592,l),
(272,600,l),
(25,600,l)
);
}
);
width = 282;
}
);
unicode = 84;
},
{
glyphname = Tcommaaccent;
kernLeft = T;
kernRight = T;
lastChange = "2022-11-25 18:34:06 +0000";
layers = (
{
layerId = m01;
shapes = (
{
closed = 1;
nodes = (
(25,592,l),
(145,592,l),
(145,8,l),
(112,8,l),
(112,0,l),
(186,0,l),
(186,8,l),
(181,8,ls),
(165,8,o),
(152,20,o),
(152,36,cs),
(152,592,l),
(272,592,l),
(272,600,l),
(25,600,l)
);
},
{
pos = (-59,-778);
ref = acutecomb;
}
);
width = 297;
}
);
unicode = 538;
},
{
glyphname = U;
kernLeft = U;
kernRight = U;
lastChange = "2022-11-25 18:34:06 +0000";
layers = (
{
layerId = m01;
shapes = (
{
closed = 1;
nodes = (
(272,593,l),
(305,593,l),
(305,123,ls),
(305,60,o),
(259,6,o),
(197,0,cs),
(126,-7,o),
(66,49,o),
(66,119,cs),
(66,593,l),
(100,593,l),
(100,600,l),
(25,600,l),
(25,593,l),
(30,593,ls),
(46,593,o),
(59,580,o),
(59,564,cs),
(59,123,ls),
(59,57,o),
(108,-1,o),
(174,-7,cs),
(249,-15,o),
(313,45,o),
(313,119,cs),
(313,564,ls),
(313,580,o),
(326,593,o),
(341,593,cs),
(346,593,l),
(346,600,l),
(272,600,l)
);
}
);
width = 371;
}
);
unicode = 85;
},
{
glyphname = Umacron;
kernLeft = U;
kernRight = U;
lastChange = "2022-11-25 18:34:06 +0000";
layers = (
{
layerId = m01;
shapes = (
{
closed = 1;
nodes = (
(272,593,l),
(305,593,l),
(305,123,ls),
(305,60,o),
(259,6,o),
(197,0,cs),
(126,-7,o),
(66,49,o),
(66,119,cs),
(66,593,l),
(100,593,l),
(100,600,l),
(25,600,l),
(25,593,l),
(30,593,ls),
(46,593,o),
(59,580,o),
(59,564,cs),
(59,123,ls),
(59,57,o),
(108,-1,o),
(174,-7,cs),
(249,-15,o),
(313,45,o),
(313,119,cs),
(313,564,ls),
(313,580,o),
(326,593,o),
(341,593,cs),
(346,593,l),
(346,600,l),
(272,600,l)
);
},
{
closed = 1;
nodes = (
(120,674,l),
(250,674,l),
(250,682,l),
(120,682,l)
);
}
);
width = 371;
}
);
unicode = 362;
},
{
glyphname = V;
lastChange = "2022-11-25 18:34:06 +0000";
layers = (
{
layerId = m01;
shapes = (
{
closed = 1;
nodes = (
(267,593,l),
(300,593,l),
(197,18,ls),
(195,10,o),
(189,8,o),
(183,8,cs),
(178,8,o),
(172,10,o),
(170,18,cs),
(66,593,l),
(99,593,l),
(99,600,l),
(25,600,l),
(25,593,l),
(35,593,ls),
(48,593,o),
(60,583,o),
(63,569,cs),
(163,17,ls),
(165,5,o),
(175,0,o),
(183,0,cs),
(192,0,o),
(202,5,o),
(204,17,cs),
(304,569,ls),
(306,583,o),
(318,593,o),
(331,593,cs),
(341,593,l),
(341,600,l),
(267,600,l)
);
}
);
width = 342;
}
);
unicode = 86;
},
{
glyphname = W;
kernLeft = W;
kernRight = W;
lastChange = "2022-11-25 18:34:06 +0000";
layers = (
{
layerId = m01;
shapes = (
{
closed = 1;
nodes = (
(472,600,l),
(398,600,l),
(398,592,l),
(432,592,l),
(432,21,ls),
(432,13,o),
(426,9,o),
(421,8,cs),
(417,7,o),
(410,8,o),
(407,15,cs),
(269,302,ls),
(265,309,o),
(258,313,o),
(250,313,cs),
(242,313,o),
(235,309,o),
(231,302,cs),
(91,15,ls),
(88,8,o),
(81,7,o),
(76,8,cs),
(71,9,o),
(66,13,o),
(66,21,cs),
(66,564,ls),
(66,580,o),
(79,592,o),
(94,592,cs),
(99,592,l),
(99,600,l),
(25,600,l),
(25,592,l),
(58,592,l),
(58,21,ls),
(58,10,o),
(66,3,o),
(74,1,cs),
(82,-1,o),
(93,2,o),
(98,12,cs),
(238,299,ls),
(240,303,o),
(245,306,o),
(250,306,cs),
(255,306,o),
(260,303,o),
(262,299,cs),
(400,12,ls),
(404,3,o),
(411,0,o),
(418,0,cs),
(427,0,o),
(439,7,o),
(439,21,cs),
(439,564,ls),
(439,580,o),
(452,592,o),
(468,592,cs),
(472,592,l)
);
}
);
width = 497;
}
);
unicode = 87;
},
{
glyphname = X;
lastChange = "2022-11-25 18:34:06 +0000";
layers = (
{
layerId = m01;
shapes = (
{
closed = 1;
nodes = (
(266,592,l),
(301,592,l),
(183,310,l),
(64,592,l),
(99,592,l),
(99,600,l),
(25,600,l),
(25,592,l),
(37,592,ls),
(49,592,o),
(59,585,o),
(63,575,cs),
(179,300,l),
(63,25,ls),
(59,14,o),
(49,8,o),
(37,8,cs),
(25,8,l),
(25,0,l),
(99,0,l),
(99,8,l),
(64,8,l),
(183,291,l),
(301,8,l),
(266,8,l),
(266,0,l),
(340,0,l),
(340,8,l),
(321,8,o),
(305,19,o),
(297,36,cs),
(187,300,l),
(297,564,ls),
(304,581,o),
(321,592,o),
(340,592,c),
(340,600,l),
(266,600,l)
);
}
);
width = 365;
}
);
unicode = 88;
},
{
glyphname = Y;
kernLeft = Y;
kernRight = Y;
lastChange = "2022-12-13 15:08:47 +0000";
layers = (
{
layerId = m01;
shapes = (
{
closed = 1;
nodes = (
(260,593,l),
(293,593,l),
(179,403,l),
(62,593,l),
(95,593,l),
(95,600,l),
(21,600,l),
(21,593,l),
(38,593,ls),
(48,593,o),
(57,588,o),
(62,579,cs),
(174,395,l),
(173,8,l),
(141,8,l),
(141,0,l),
(215,0,l),
(215,8,l),
(199,8,ls),
(189,8,o),
(181,16,o),
(181,26,cs),
(182,394,l),
(293,579,ls),
(299,588,o),
(308,593,o),
(318,593,cs),
(334,593,l),
(334,600,l),
(260,600,l)
);
}
);
width = 329;
}
);
unicode = 89;
},
{
glyphname = Z;
kernLeft = Z;
kernRight = Z;
lastChange = "2022-11-25 18:34:06 +0000";
layers = (
{
layerId = m01;
shapes = (
{
closed = 1;
nodes = (
(261,573,ls),
(263,579,o),
(263,587,o),
(259,592,cs),
(255,598,o),
(249,602,o),
(242,602,cs),
(46,602,l),
(46,527,l),
(53,527,l),
(53,566,ls),
(53,581,o),
(66,594,o),
(82,594,cs),
(242,594,ls),
(246,594,o),
(250,592,o),
(253,588,cs),
(255,584,o),
(256,580,o),
(254,576,cs),
(27,29,ls),
(24,22,o),
(25,15,o),
(29,9,cs),
(32,3,o),
(39,0,o),
(46,0,cs),
(242,0,l),
(242,74,l),
(234,74,l),
(234,36,ls),
(234,20,o),
(222,8,o),
(206,8,cs),
(46,8,ls),
(41,8,o),
(37,10,o),
(35,13,cs),
(32,17,o),
(32,22,o),
(34,26,cs)
);
}
);
width = 287;
}
);
unicode = 90;
},
{
glyphname = a;
kernLeft = a;
kernRight = a;
lastChange = "2022-12-13 15:19:37 +0000";
layers = (
{
layerId = m01;
shapes = (
{
closed = 1;
nodes = (
(91,0,cs),
(76,0,o),
(61,6,o),
(50,17,cs),
(39,28,o),
(33,42,o),
(33,58,cs),
(33,198,ls),
(33,230,o),
(59,257,o),
(91,257,cs),
(150,257,l),
(150,58,ls),
(150,26,o),
(124,0,o)
);
},
{
closed = 1;
nodes = (
(158,338,ls),
(158,372,o),
(133,402,o),
(100,406,cs),
(60,412,o),
(25,380,o),
(25,341,c),
(33,341,l),
(33,376,o),
(63,403,o),
(99,399,cs),
(129,395,o),
(150,368,o),
(150,339,cs),
(150,264,l),
(91,264,ls),
(55,264,o),
(25,235,o),
(25,198,cs),
(25,61,ls),
(25,44,o),
(30,28,o),
(41,16,cs),
(53,1,o),
(72,-8,o),
(91,-8,cs),
(117,-8,o),
(139,7,o),
(150,28,c),
(150,0,l),
(175,0,l),
(175,8,l),
(165,8,o),
(158,15,o),
(158,25,cs)
);
}
);
width = 200;
}
);
unicode = 97;
},
{
glyphname = ae;
kernLeft = a;
kernRight = e;
lastChange = "2022-11-25 18:34:06 +0000";
layers = (
{
layerId = m01;
shapes = (
{
closed = 1;
nodes = (
(150,29,o),
(124,3,o),
(91,3,cs),
(76,3,o),
(61,9,o),
(50,20,cs),
(39,31,o),
(33,45,o),
(33,61,cs),
(33,198,ls),
(33,230,o),
(59,257,o),
(91,257,cs),
(150,257,l),
(150,61,ls)
);
},
{
closed = 1;
nodes = (
(155,39,l),
(158,44,l),
(158,335,ls),
(158,369,o),
(133,399,o),
(100,403,cs),
(60,409,o),
(25,377,o),
(25,338,c),
(33,338,l),
(33,373,o),
(63,400,o),
(99,396,cs),
(129,392,o),
(150,365,o),
(150,336,cs),
(150,264,l),
(91,264,ls),
(55,264,o),
(25,235,o),
(25,198,cs),
(25,64,ls),
(25,47,o),
(30,31,o),
(41,19,cs),
(53,4,o),
(72,-5,o),
(91,-5,cs),
(117,-5,o),
(144,10,o),
(155,39,c)
);
},
{
closed = 1;
nodes = (
(180,406,o),
(151,376,o),
(151,339,cs),
(151,61,ls),
(151,25,o),
(180,-5,o),
(217,-5,cs),
(235,-5,o),
(251,2,o),
(264,14,cs),
(276,27,o),
(283,43,o),
(283,61,c),
(276,61,l),
(276,45,o),
(269,31,o),
(258,20,cs),
(247,9,o),
(233,3,o),
(217,3,cs),
(185,3,o),
(158,29,o),
(158,61,cs),
(158,339,ls),
(158,372,o),
(185,398,o),
(217,398,cs),
(249,398,o),
(276,372,o),
(276,339,cs),
(276,278,ls),
(276,270,o),
(270,264,o),
(262,264,cs),
(194,264,l),
(194,257,l),
(262,257,ls),
(274,257,o),
(283,266,o),
(283,278,cs),
(283,339,ls),
(283,376,o),
(254,406,o),
(217,406,cs)
);
}
);
width = 308;
}
);
unicode = 230;
},
{
glyphname = b;
lastChange = "2022-11-25 18:34:06 +0000";
layers = (
{
layerId = m01;
shapes = (
{
closed = 1;
nodes = (
(167,58,ls),
(167,26,o),
(141,0,o),
(109,0,cs),
(93,0,o),
(78,6,o),
(67,17,cs),
(56,28,o),
(50,42,o),
(50,58,cs),
(50,340,ls),
(50,373,o),
(76,399,o),
(109,399,cs),
(141,399,o),
(167,373,o),
(167,340,cs)
);
},
{
closed = 1;
nodes = (
(86,409,o),
(62,394,o),
(50,371,c),
(50,600,l),
(25,600,l),
(25,593,l),
(35,593,o),
(42,585,o),
(42,576,cs),
(42,0,l),
(50,0,l),
(50,28,l),
(57,14,o),
(70,2,o),
(87,-5,cs),
(94,-7,o),
(101,-8,o),
(109,-8,cs),
(145,-8,o),
(175,22,o),
(175,58,cs),
(175,338,ls),
(175,373,o),
(149,404,o),
(114,406,cs)
);
}
);
width = 200;
}
);
unicode = 98;
},
{
glyphname = c;
kernLeft = c;
kernRight = c;
lastChange = "2022-11-25 18:34:06 +0000";
layers = (
{
layerId = m01;
shapes = (
{
closed = 1;
nodes = (
(124,399,o),
(150,373,o),
(150,340,c),
(158,340,l),
(158,377,o),
(128,407,o),
(91,407,cs),
(55,407,o),
(25,377,o),
(25,340,cs),
(25,58,ls),
(25,40,o),
(32,24,o),
(45,11,cs),
(57,-1,o),
(74,-8,o),
(91,-8,cs),
(128,-8,o),
(158,22,o),
(158,58,c),
(150,58,l),
(150,26,o),
(124,0,o),
(91,0,cs),
(76,0,o),
(61,6,o),
(50,17,cs),
(39,28,o),
(33,42,o),
(33,58,cs),
(33,340,ls),
(33,373,o),
(59,399,o),
(91,399,cs)
);
}
);
width = 183;
}
);
unicode = 99;
},
{
glyphname = d;
kernLeft = d;
kernRight = d;
lastChange = "2022-11-25 18:34:06 +0000";
layers = (
{
layerId = m01;
shapes = (
{
closed = 1;
nodes = (
(150,58,ls),
(150,42,o),
(144,28,o),
(133,17,cs),
(122,6,o),
(107,0,o),
(91,0,cs),
(59,0,o),
(33,26,o),
(33,58,cs),
(33,341,ls),
(33,374,o),
(59,400,o),
(91,400,cs),
(124,400,o),
(150,374,o),
(150,341,cs)
);
},
{
closed = 1;
nodes = (
(133,600,l),
(133,593,l),
(143,593,o),
(150,585,o),
(150,576,cs),
(150,372,l),
(138,395,o),
(114,410,o),
(86,407,cs),
(51,405,o),
(25,374,o),
(25,339,cs),
(25,57,ls),
(25,21,o),
(55,-8,o),
(90,-8,cs),
(98,-8,o),
(107,-7,o),
(114,-4,cs),
(131,2,o),
(143,14,o),
(150,28,c),
(150,0,l),
(158,0,l),
(158,600,l)
);
}
);
width = 183;
}
);
unicode = 100;
},
{
glyphname = eth;
kernLeft = d;
kernRight = d;
lastChange = "2022-11-25 18:34:06 +0000";
layers = (
{
layerId = m01;
shapes = (
{
closed = 1;
nodes = (
(150,58,ls),
(150,42,o),
(144,28,o),
(133,17,cs),
(122,6,o),
(107,0,o),
(91,0,cs),
(59,0,o),
(33,26,o),
(33,58,cs),
(33,315,ls),
(33,348,o),
(59,374,o),
(91,374,cs),
(124,374,o),
(150,348,o),
(150,315,cs)
);
},
{
closed = 1;
nodes = (
(55,382,o),
(25,352,o),
(25,315,cs),
(25,58,ls),
(25,22,o),
(55,-8,o),
(91,-8,cs),
(109,-8,o),
(126,-1,o),
(138,11,cs),
(151,24,o),
(158,40,o),
(158,58,cs),
(158,315,ls),
(158,352,o),
(128,382,o),
(91,382,cs)
);
},
{
closed = 1;
nodes = (
(158,287,l),
(158,534,ls),
(158,570,o),
(128,600,o),
(92,600,c),
(92,592,l),
(124,592,o),
(150,566,o),
(150,534,cs),
(150,287,l)
);
},
{
closed = 1;
nodes = (
(95,451,l),
(199,511,l),
(195,517,l),
(91,457,l)
);
}
);
width = 183;
}
);
unicode = 240;
},
{
glyphname = e;
kernLeft = e;
kernRight = e;
lastChange = "2022-12-13 16:48:54 +0000";
layers = (
{
layerId = m01;
shapes = (
{
closed = 1;
nodes = (
(54,407,o),
(25,377,o),
(25,340,cs),
(25,58,ls),
(25,22,o),
(54,-8,o),
(91,-8,cs),
(109,-8,o),
(125,-1,o),
(138,11,cs),
(150,24,o),
(157,40,o),
(157,58,c),
(150,58,l),
(150,42,o),
(143,28,o),
(132,17,cs),
(121,6,o),
(107,0,o),
(91,0,cs),
(59,0,o),
(32,26,o),
(32,58,cs),
(32,340,ls),
(32,373,o),
(59,399,o),
(91,399,cs),
(123,399,o),
(150,373,o),
(150,340,cs),
(150,271,ls),
(150,263,o),
(144,257,o),
(136,257,cs),
(68,257,l),
(68,250,l),
(136,250,ls),
(148,250,o),
(157,259,o),
(157,271,cs),
(157,340,ls),
(157,377,o),
(128,407,o),
(91,407,cs)
);
}
);
width = 182;
}
);
unicode = 101;
},
{
glyphname = schwa;
kernLeft = e;
kernRight = e;
lastChange = "2022-11-25 18:34:06 +0000";
layers = (
{
layerId = m01;
shapes = (
{
closed = 1;
nodes = (
(128,-6,o),
(157,25,o),
(157,62,cs),
(157,344,ls),
(156,380,o),
(127,410,o),
(90,410,cs),
(72,410,o),
(56,403,o),
(43,391,cs),
(32,378,o),
(25,362,o),
(25,344,c),
(32,344,l),
(32,360,o),
(38,374,o),
(49,385,cs),
(60,396,o),
(74,402,o),
(90,402,cs),
(122,402,o),
(149,376,o),
(150,344,cs),
(150,62,ls),
(150,29,o),
(123,3,o),
(91,3,cs),
(59,3,o),
(32,29,o),
(32,62,cs),
(32,131,ls),
(32,139,o),
(38,145,o),
(46,145,cs),
(114,145,l),
(114,152,l),
(46,152,ls),
(34,152,o),
(25,143,o),
(25,131,cs),
(25,62,ls),
(25,25,o),
(54,-6,o),
(91,-6,cs)
);
}
);
width = 182;
}
);
unicode = 601;
},
{
glyphname = f;
lastChange = "2022-11-25 18:34:06 +0000";
layers = (
{
layerId = m01;
shapes = (
{
closed = 1;
nodes = (
(69,400,l),
(25,400,l),
(25,392,l),
(69,392,l),
(69,8,l),
(48,8,l),
(48,0,l),
(99,0,l),
(99,8,l),
(86,8,o),
(77,17,o),
(77,29,cs),
(77,392,l),
(135,392,l),
(135,400,l),
(77,400,l),
(77,533,ls),
(77,566,o),
(103,592,o),
(135,592,c),
(135,599,l),
(99,599,o),
(69,570,o),
(69,533,cs)
);
}
);
width = 160;
}
);
unicode = 102;
},
{
glyphname = g;
kernLeft = g;
kernRight = g;
lastChange = "2022-11-25 18:34:06 +0000";
layers = (
{
layerId = m01;
shapes = (
{
closed = 1;
nodes = (
(150,58,ls),
(150,43,o),
(144,28,o),
(133,17,cs),
(122,6,o),
(107,0,o),
(91,0,cs),
(59,0,o),
(33,26,o),
(33,58,cs),
(33,341,ls),
(33,373,o),
(59,399,o),
(91,399,cs),
(124,399,o),
(150,373,o),
(150,341,cs)
);
},
{
closed = 1;
nodes = (
(150,371,l),
(139,392,o),
(117,407,o),
(91,407,cs),
(55,407,o),
(25,377,o),
(25,341,cs),
(25,58,ls),
(25,22,o),
(55,-8,o),
(91,-8,cs),
(109,-8,o),
(126,-1,o),
(138,12,cs),
(143,17,o),
(147,22,o),
(150,28,c),
(150,-133,ls),
(150,-165,o),
(124,-191,o),
(91,-191,cs),
(59,-191,o),
(33,-165,o),
(33,-133,c),
(25,-133,l),
(25,-169,o),
(55,-199,o),
(91,-199,cs),
(128,-199,o),
(158,-169,o),
(158,-133,cs),
(158,400,l),
(150,400,l)
);
}
);
width = 183;
}
);
unicode = 103;
},
{
glyphname = h;
kernLeft = h;
kernRight = h;
lastChange = "2022-12-13 14:37:59 +0000";
layers = (
{
layerId = m01;
shapes = (
{
closed = 1;
nodes = (
(179,341,ls),
(179,377,o),
(150,407,o),
(113,407,cs),
(87,407,o),
(65,392,o),
(54,371,c),
(54,600,l),
(30,600,l),
(30,593,l),
(39,593,o),
(47,585,o),
(47,576,cs),
(47,8,l),
(25,8,l),
(25,0,l),
(76,0,l),
(76,8,l),
(64,8,o),
(54,17,o),
(54,29,cs),
(54,339,ls),
(54,369,o),
(76,395,o),
(105,399,cs),
(141,404,o),
(172,376,o),
(172,341,cs),
(172,8,l),
(150,8,l),
(150,0,l),
(201,0,l),
(201,8,l),
(189,8,o),
(179,17,o),
(179,29,cs)
);
}
);
width = 226;
}
);
unicode = 104;
},
{
glyphname = hbar;
kernLeft = h;
kernRight = h;
lastChange = "2022-11-25 18:34:06 +0000";
layers = (
{
layerId = m01;
shapes = (
{
closed = 1;
nodes = (
(179,341,ls),
(179,377,o),
(150,407,o),
(113,407,cs),
(87,407,o),
(65,392,o),
(54,371,c),
(54,600,l),
(30,600,l),
(30,593,l),
(39,593,o),
(47,585,o),
(47,576,cs),
(47,8,l),
(25,8,l),
(25,0,l),
(76,0,l),
(76,8,l),
(64,8,o),
(54,17,o),
(54,29,cs),
(54,339,ls),
(54,369,o),
(76,395,o),
(105,399,cs),
(141,404,o),
(172,376,o),
(172,341,cs),
(172,8,l),
(150,8,l),
(150,0,l),
(201,0,l),
(201,8,l),
(189,8,o),
(179,17,o),
(179,29,cs)
);
},
{
closed = 1;
nodes = (
(8,532,l),
(93,532,l),
(93,540,l),
(8,540,l)
);
}
);
width = 226;
}
);
unicode = 295;
},
{
glyphname = i;
kernLeft = i;
kernRight = i;
lastChange = "2022-12-13 15:12:01 +0000";
layers = (
{
layerId = m01;
shapes = (
{
closed = 1;
nodes = (
(57,430,l),
(64,430,l),
(64,500,l),
(57,500,l)
);
},
{
closed = 1;
nodes = (
(86,8,l),
(74,8,o),
(64,17,o),
(64,29,cs),
(64,400,l),
(40,400,l),
(40,392,l),
(49,392,o),
(57,385,o),
(57,375,cs),
(57,8,l),
(35,8,l),
(35,0,l),
(86,0,l)
);
}
);
width = 121;
}
);
unicode = 105;
},
{
glyphname = idotless;
kernLeft = i;
kernRight = i;
lastChange = "2022-12-13 16:54:22 +0000";
layers = (
{
layerId = m01;
shapes = (
{
closed = 1;
nodes = (
(76,8,l),
(64,8,o),
(54,17,o),
(54,29,cs),
(54,400,l),
(30,400,l),
(30,392,l),
(39,392,o),
(47,385,o),
(47,375,cs),
(47,8,l),
(25,8,l),
(25,0,l),
(76,0,l)
);
}
);
width = 101;
}
);
unicode = 305;
},
{
glyphname = iacute;
kernLeft = i;
kernRight = i;
lastChange = "2022-12-13 16:56:34 +0000";
layers = (
{
layerId = m01;
shapes = (
{
closed = 1;
nodes = (
(71,8,l),
(59,8,o),
(49,17,o),
(49,29,cs),
(49,400,l),
(25,400,l),
(25,392,l),
(34,392,o),
(42,385,o),
(42,375,cs),
(42,8,l),
(20,8,l),
(20,0,l),
(71,0,l)
);
},
{
pos = (-153,-203);
ref = acutecomb;
}
);
width = 91;
}
);
unicode = 237;
},
{
glyphname = icircumflex;
kernLeft = i;
kernRight = i;
lastChange = "2022-11-25 18:47:35 +0000";
layers = (
{
layerId = m01;
shapes = (
{
closed = 1;
nodes = (
(86,8,l),
(74,8,o),
(64,17,o),
(64,29,cs),
(64,400,l),
(40,400,l),
(40,392,l),
(49,392,o),
(57,385,o),
(57,375,cs),
(57,8,l),
(35,8,l),
(35,0,l),
(86,0,l)
);
},
{
pos = (-132,-203);
ref = circumflexcomb;
}
);
width = 119;
}
);
unicode = 238;
},
{
glyphname = idieresis;
kernLeft = i;
kernRight = i;
lastChange = "2022-11-25 18:43:26 +0000";
layers = (
{
layerId = m01;
shapes = (
{
closed = 1;
nodes = (
(107,8,l),
(95,8,o),
(85,17,o),
(85,29,cs),
(85,400,l),
(61,400,l),
(61,392,l),
(70,392,o),
(78,385,o),
(78,375,cs),
(78,8,l),
(56,8,l),
(56,0,l),
(107,0,l)
);
},
{
pos = (185,-192);
ref = dieresiscomb;
}
);
width = 163;
}
);
unicode = 239;
},
{
glyphname = idotaccent;
kernLeft = i;
kernRight = i;
lastChange = "2022-11-25 18:47:48 +0000";
layers = (
{
layerId = m01;
shapes = (
{
closed = 1;
nodes = (
(71,8,l),
(59,8,o),
(49,17,o),
(49,29,cs),
(49,400,l),
(25,400,l),
(25,392,l),
(34,392,o),
(42,385,o),
(42,375,cs),
(42,8,l),
(20,8,l),
(20,0,l),
(71,0,l)
);
},
{
pos = (-135,-192);
ref = dotaccentcomb;
}
);
width = 91;
}
);
},
{
glyphname = igrave;
kernLeft = i;
kernRight = i;
lastChange = "2022-11-25 18:47:58 +0000";
layers = (
{
layerId = m01;
shapes = (
{
closed = 1;
nodes = (
(71,8,l),
(59,8,o),
(49,17,o),
(49,29,cs),
(49,400,l),
(25,400,l),
(25,392,l),
(34,392,o),
(42,385,o),
(42,375,cs),
(42,8,l),
(20,8,l),
(20,0,l),
(71,0,l)
);
},
{
pos = (-140,-203);
ref = gravecomb;
}
);
width = 91;
}
);
unicode = 236;
},
{
glyphname = imacron;
kernLeft = i;
kernRight = i;
lastChange = "2022-12-18 17:58:22 +0000";
layers = (
{
layerId = m01;
shapes = (
{
closed = 1;
nodes = (
(92,8,l),
(80,8,o),
(70,17,o),
(70,29,cs),
(70,400,l),
(46,400,l),
(46,392,l),
(55,392,o),
(63,385,o),
(63,375,cs),
(63,8,l),
(41,8,l),
(41,0,l),
(92,0,l)
);
},
{
closed = 1;
nodes = (
(0,478,l),
(130,478,l),
(130,486,l),
(0,486,l)
);
}
);
width = 130;
}
);
unicode = 299;
},
{
glyphname = itilde;
kernLeft = i;
kernRight = i;
lastChange = "2022-11-25 19:01:06 +0000";
layers = (
{
layerId = m01;
shapes = (
{
closed = 1;
nodes = (
(83,8,l),
(71,8,o),
(61,17,o),
(61,29,cs),
(61,400,l),
(37,400,l),
(37,392,l),
(46,392,o),
(54,385,o),
(54,375,cs),
(54,8,l),
(32,8,l),
(32,0,l),
(83,0,l)
);
},
{
pos = (-115,-210);
ref = tildecomb;
}
);
width = 124;
}
);
unicode = 297;
},
{
glyphname = j;
kernLeft = j;
kernRight = j;
lastChange = "2022-12-13 14:42:44 +0000";
layers = (
{
layerId = m01;
shapes = (
{
closed = 1;
nodes = (
(48,430,l),
(55,430,l),
(55,500,l),
(48,500,l)
);
},
{
closed = 1;
nodes = (
(30,400,l),
(30,392,l),
(39,392,o),
(48,384,o),
(48,375,cs),
(48,-134,ls),
(48,-166,o),
(21,-192,o),
(-11,-192,c),
(-11,-200,l),
(25,-200,o),
(55,-170,o),
(55,-134,cs),
(55,400,l)
);
}
);
width = 80;
}
);
unicode = 106;
},
{
glyphname = jdotless;
kernLeft = j;
kernRight = j;
lastChange = "2022-11-25 18:34:06 +0000";
layers = (
{
layerId = m01;
shapes = (
{
closed = 1;
nodes = (
(30,400,l),
(30,392,l),
(39,392,o),
(48,384,o),
(48,375,cs),
(48,-134,ls),
(48,-166,o),
(21,-192,o),
(-11,-192,c),
(-11,-200,l),
(25,-200,o),
(55,-170,o),
(55,-134,cs),
(55,400,l)
);
}
);
width = 80;
}
);
unicode = 567;
},
{
glyphname = k;
lastChange = "2022-11-25 18:34:06 +0000";
layers = (
{
layerId = m01;
shapes = (
{
closed = 1;
nodes = (
(148,400,l),
(148,392,l),
(169,392,l),
(54,212,l),
(54,600,l),
(29,600,l),
(29,593,l),
(39,593,o),
(46,585,o),
(46,576,cs),
(46,8,l),
(25,8,l),
(25,0,l),
(76,0,l),
(76,8,l),
(64,8,o),
(54,17,o),
(54,29,cs),
(54,198,l),
(86,249,l),
(170,8,l),
(148,8,l),
(148,0,l),
(199,0,l),
(199,8,l),
(194,8,ls),
(185,8,o),
(176,13,o),
(173,22,cs),
(91,257,l),
(171,382,ls),
(175,389,o),
(182,392,o),
(190,392,cs),
(199,392,l),
(199,400,l)
);
}
);
width = 224;
}
);
unicode = 107;
},
{
glyphname = l;
kernLeft = l;
kernRight = l;
lastChange = "2022-12-13 14:37:28 +0000";
layers = (
{
layerId = m01;
shapes = (
{
closed = 1;
nodes = (
(55,600,l),
(30,600,l),
(30,593,l),
(39,593,o),
(47,585,o),
(47,576,cs),
(47,8,l),
(25,8,l),
(25,0,l),
(76,0,l),
(76,8,l),
(64,8,o),
(55,17,o),
(55,29,cs)
);
}
);
width = 101;
}
);
unicode = 108;
},
{
glyphname = m;
lastChange = "2022-12-13 16:50:26 +0000";
layers = (
{
layerId = m01;
shapes = (
{
closed = 1;
nodes = (
(277,345,ls),
(277,376,o),
(255,403,o),
(225,406,cs),
(196,410,o),
(171,393,o),
(162,368,c),
(153,391,o),
(131,407,o),
(106,407,cs),
(83,407,o),
(64,395,o),
(53,376,c),
(53,400,l),
(46,400,l),
(46,8,l),
(25,8,l),
(25,0,l),
(76,0,l),
(76,8,l),
(63,8,o),
(53,17,o),
(53,29,cs),
(53,345,ls),
(53,372,o),
(73,396,o),
(100,399,cs),
(131,402,o),
(158,378,o),
(158,348,cs),
(158,8,l),
(136,8,l),
(136,0,l),
(187,0,l),
(187,8,l),
(175,8,o),
(165,17,o),
(165,29,cs),
(165,347,ls),
(165,378,o),
(192,402,o),
(223,399,cs),
(250,396,o),
(270,372,o),
(270,345,cs),
(270,8,l),
(248,8,l),
(248,0,l),
(299,0,l),
(299,8,l),
(287,8,o),
(277,17,o),
(277,29,cs)
);
}
);
width = 324;
}
);
unicode = 109;
},
{
glyphname = n;
kernLeft = n;
kernRight = n;
lastChange = "2022-12-13 15:11:35 +0000";
layers = (
{
layerId = m01;
shapes = (
{
closed = 1;
nodes = (
(151,345,ls),
(151,375,o),
(130,402,o),
(100,406,cs),
(74,410,o),
(51,397,o),
(39,376,c),
(39,400,l),
(32,400,l),
(32,8,l),
(10,8,l),
(10,0,l),
(61,0,l),
(61,8,l),
(49,8,o),
(39,17,o),
(39,29,cs),
(39,345,ls),
(39,372,o),
(59,397,o),
(86,399,cs),
(117,402,o),
(144,378,o),
(144,347,cs),
(144,8,l),
(122,8,l),
(122,0,l),
(173,0,l),
(173,8,l),
(161,8,o),
(151,17,o),
(151,29,cs)
);
}
);
width = 191;
}
);
unicode = 110;
},
{
glyphname = o;
kernLeft = o;
kernRight = o;
lastChange = "2022-12-13 15:11:55 +0000";
layers = (
{
layerId = m01;
shapes = (
{
closed = 1;
nodes = (
(150,58,ls),
(150,42,o),
(144,28,o),
(133,17,cs),
(122,6,o),
(107,0,o),
(91,0,cs),
(59,0,o),
(33,26,o),
(33,58,cs),
(33,340,ls),
(33,373,o),
(59,399,o),
(91,399,cs),
(124,399,o),
(150,373,o),
(150,340,cs)
);
},
{
closed = 1;
nodes = (
(55,407,o),
(25,377,o),
(25,340,cs),
(25,58,ls),
(25,22,o),
(55,-8,o),
(91,-8,cs),
(109,-8,o),
(126,-1,o),
(138,11,cs),
(151,24,o),
(158,40,o),
(158,58,cs),
(158,340,ls),
(158,377,o),
(128,407,o),
(91,407,cs)
);
}
);
width = 183;
}
);
unicode = 111;
},
{
glyphname = oslash;
kernLeft = o;
kernRight = o;
lastChange = "2022-11-25 18:34:06 +0000";
layers = (
{
layerId = m01;
shapes = (
{
closed = 1;
nodes = (
(149,58,ls),
(149,42,o),
(143,28,o),
(132,17,cs),
(121,6,o),
(106,0,o),
(90,0,cs),
(58,0,o),
(32,26,o),
(32,58,cs),
(32,340,ls),
(32,373,o),
(58,399,o),
(90,399,cs),
(123,399,o),
(149,373,o),
(149,340,cs)
);
},
{
closed = 1;
nodes = (
(54,407,o),
(24,377,o),
(24,340,cs),
(24,58,ls),
(24,22,o),
(54,-8,o),
(90,-8,cs),
(108,-8,o),
(125,-1,o),
(137,11,cs),
(150,24,o),
(157,40,o),
(157,58,cs),
(157,340,ls),
(157,377,o),
(127,407,o),
(90,407,cs)
);
},
{
closed = 1;
nodes = (
(151,400,l),
(6,0,l),
(14,0,l),
(159,400,l)
);
}
);
width = 203;
}
);
unicode = 248;
},
{
glyphname = oe;
kernLeft = o;
kernRight = e;
lastChange = "2022-11-25 18:34:06 +0000";
layers = (
{
layerId = m01;
shapes = (
{
closed = 1;
nodes = (
(150,58,ls),
(150,42,o),
(144,28,o),
(133,17,cs),
(122,6,o),
(107,0,o),
(91,0,cs),
(59,0,o),
(33,26,o),
(33,58,cs),
(33,340,ls),
(33,373,o),
(59,399,o),
(91,399,cs),
(124,399,o),
(150,373,o),
(150,340,cs)
);
},
{
closed = 1;
nodes = (
(55,407,o),
(25,377,o),
(25,340,cs),
(25,58,ls),
(25,22,o),
(55,-8,o),
(91,-8,cs),
(109,-8,o),
(126,-1,o),
(138,11,cs),
(151,24,o),
(158,40,o),
(158,58,cs),
(158,340,ls),
(158,377,o),
(128,407,o),
(91,407,cs)
);
},
{
closed = 1;
nodes = (
(180,407,o),
(151,377,o),
(151,340,cs),
(151,58,ls),
(151,22,o),
(180,-8,o),
(217,-8,cs),
(235,-8,o),
(251,-1,o),
(264,11,cs),
(276,24,o),
(283,40,o),
(283,58,c),
(276,58,l),
(276,42,o),
(269,28,o),
(258,17,cs),
(247,6,o),
(233,0,o),
(217,0,cs),
(185,0,o),
(158,26,o),
(158,58,cs),
(158,340,ls),
(158,373,o),
(185,399,o),
(217,399,cs),
(249,399,o),
(276,373,o),
(276,340,cs),
(276,271,ls),
(276,263,o),
(270,257,o),
(262,257,cs),
(194,257,l),
(194,250,l),
(262,250,ls),
(274,250,o),
(283,259,o),
(283,271,cs),
(283,340,ls),
(283,377,o),
(254,407,o),
(217,407,cs)
);
}
);
width = 308;
}
);
unicode = 339;
},
{
glyphname = p;
kernLeft = p;
kernRight = p;
lastChange = "2022-12-13 16:51:05 +0000";
layers = (
{
layerId = m01;
shapes = (
{
closed = 1;
nodes = (
(172,59,ls),
(172,27,o),
(145,0,o),
(113,0,cs),
(81,0,o),
(54,27,o),
(54,59,cs),
(54,340,ls),
(54,356,o),
(60,371,o),
(72,382,cs),
(83,393,o),
(97,399,o),
(113,399,cs),
(145,399,o),
(172,373,o),
(172,340,cs)
);
},
{
closed = 1;
nodes = (
(113,407,cs),
(105,407,o),
(98,406,o),
(91,403,cs),
(74,396,o),
(61,385,o),
(54,371,c),
(54,400,l),
(47,400,l),
(47,-193,l),
(25,-193,l),
(25,-200,l),
(76,-200,l),
(76,-193,l),
(64,-193,o),
(54,-183,o),
(54,-171,cs),
(54,29,l),
(66,6,o),
(91,-9,o),
(119,-7,cs),
(153,-4,o),
(179,27,o),
(179,62,cs),
(179,340,ls),
(179,377,o),
(149,407,o)
);
}
);
width = 204;
}
);
unicode = 112;
},
{
glyphname = thorn;
kernLeft = p;
kernRight = p;
lastChange = "2022-11-25 18:34:06 +0000";
layers = (
{
layerId = m01;
shapes = (
{
closed = 1;
nodes = (
(172,59,ls),
(172,27,o),
(145,0,o),
(113,0,cs),
(81,0,o),
(54,27,o),
(54,59,cs),
(54,220,ls),
(54,236,o),
(60,251,o),
(72,262,cs),
(83,273,o),
(97,279,o),
(113,279,cs),
(145,279,o),
(172,253,o),
(172,220,cs)
);
},
{
closed = 1;
nodes = (
(76,-200,l),
(76,-193,l),
(64,-193,o),
(54,-183,o),
(54,-171,cs),
(54,29,l),
(65,7,o),
(88,-7,o),
(114,-7,cs),
(150,-7,o),
(179,25,o),
(179,62,cs),
(179,220,ls),
(179,257,o),
(149,287,o),
(113,287,cs),
(105,287,o),
(98,286,o),
(91,283,cs),
(74,276,o),
(61,265,o),
(54,251,c),
(55,371,ls),
(55,383,o),
(65,393,o),
(77,393,c),
(77,400,l),
(26,400,l),
(26,393,l),
(48,393,l),
(47,-193,l),
(25,-193,l),
(25,-200,l)
);
}
);
width = 204;
}
);
unicode = 254;
},
{
glyphname = q;
lastChange = "2022-12-13 16:51:36 +0000";
layers = (
{
layerId = m01;
shapes = (
{
closed = 1;
nodes = (
(59,0,o),
(33,26,o),
(33,58,cs),
(33,341,ls),
(33,373,o),
(59,399,o),
(91,399,cs),
(107,399,o),
(122,393,o),
(133,382,cs),
(144,371,o),
(150,356,o),
(150,341,cs),
(150,58,ls),
(150,26,o),
(124,0,o),
(92,0,cs)
);
},
{
closed = 1;
nodes = (
(158,400,l),
(150,400,l),
(150,371,l),
(143,385,o),
(131,397,o),
(114,403,cs),
(107,406,o),
(99,407,o),
(91,407,cs),
(55,407,o),
(25,377,o),
(25,341,cs),
(25,61,ls),
(25,26,o),
(51,-5,o),
(86,-8,cs),
(114,-10,o),
(138,5,o),
(150,28,c),
(150,-193,l),
(129,-193,l),
(129,-200,l),
(180,-200,l),
(180,-193,l),
(168,-193,o),
(158,-183,o),
(158,-171,cs)
);
}
);
width = 205;
}
);
unicode = 113;
},
{
glyphname = r;
kernLeft = r;
kernRight = r;
lastChange = "2022-12-13 14:38:21 +0000";
layers = (
{
layerId = m01;
shapes = (
{
closed = 1;
nodes = (
(71,407,o),
(52,395,o),
(42,376,c),
(42,400,l),
(34,400,l),
(34,8,l),
(12,8,l),
(12,0,l),
(63,0,l),
(63,8,l),
(51,8,o),
(42,17,o),
(42,29,cs),
(42,345,ls),
(42,372,o),
(61,397,o),
(88,399,cs),
(120,402,o),
(146,378,o),
(146,347,c),
(153,347,l),
(153,380,o),
(127,407,o),
(94,407,cs)
);
}
);
width = 161;
}
);
unicode = 114;
},
{
glyphname = s;
kernLeft = s;
kernRight = s;
lastChange = "2022-12-13 14:37:55 +0000";
layers = (
{
layerId = m01;
shapes = (
{
closed = 1;
nodes = (
(75,267,ls),
(52,282,o),
(37,307,o),
(35,335,cs),
(33,364,o),
(50,391,o),
(79,398,cs),
(117,407,o),
(151,378,o),
(151,342,cs),
(151,309,l),
(159,309,l),
(159,339,ls),
(159,373,o),
(135,402,o),
(102,407,cs),
(61,412,o),
(27,381,o),
(27,342,cs),
(27,309,o),
(44,278,o),
(71,261,cs),
(110,236,ls),
(136,219,o),
(152,190,o),
(152,158,cs),
(151,58,ls),
(151,26,o),
(126,1,o),
(94,0,cs),
(61,-2,o),
(34,27,o),
(34,60,cs),
(34,96,l),
(56,96,l),
(56,103,l),
(5,103,l),
(5,96,l),
(17,96,o),
(27,86,o),
(27,74,cs),
(27,58,ls),
(27,21,o),
(56,-8,o),
(93,-8,cs),
(129,-8,o),
(159,21,o),
(159,58,cs),
(159,158,ls),
(159,192,o),
(142,224,o),
(114,242,cs)
);
}
);
width = 184;
}
);
unicode = 115;
},
{
glyphname = saltillo;
lastChange = "2022-11-25 18:34:06 +0000";
layers = (
{
layerId = m01;
shapes = (
{
closed = 1;
nodes = (
(25,607,l),
(25,514,l),
(32,514,l),
(32,607,l)
);
}
);
width = 57;
}
);
unicode = 42892;
},
{
glyphname = scommaaccent;
kernLeft = s;
kernRight = s;
lastChange = "2022-11-25 18:39:49 +0000";
layers = (
{
layerId = m01;
shapes = (
{
closed = 1;
nodes = (
(77,267,ls),
(54,282,o),
(39,307,o),
(37,335,cs),
(35,364,o),
(52,391,o),
(81,398,cs),
(119,407,o),
(153,378,o),
(153,342,cs),
(153,309,l),
(161,309,l),
(161,339,ls),
(161,373,o),
(137,402,o),
(104,407,cs),
(63,412,o),
(29,381,o),
(29,342,cs),
(29,309,o),
(46,278,o),
(73,261,cs),
(112,236,ls),
(138,219,o),
(154,190,o),
(154,158,cs),
(153,58,ls),
(153,26,o),
(128,1,o),
(96,0,cs),
(63,-2,o),
(36,27,o),
(36,60,cs),
(36,96,l),
(58,96,l),
(58,103,l),
(7,103,l),
(7,96,l),
(19,96,o),
(29,86,o),
(29,74,cs),
(29,58,ls),
(29,21,o),
(58,-8,o),
(95,-8,cs),
(131,-8,o),
(161,21,o),
(161,58,cs),
(161,158,ls),
(161,192,o),
(144,224,o),
(116,242,cs)
);
},
{
pos = (-110,-778);
ref = acutecomb;
}
);
width = 186;
}
);
unicode = 537;
},
{
glyphname = germandbls;
lastChange = "2022-11-25 18:34:06 +0000";
layers = (
{
layerId = m01;
shapes = (
{
closed = 1;
nodes = (
(142,-8,l),
(165,8,o),
(181,35,o),
(181,66,cs),
(181,318,ls),
(181,359,o),
(154,393,o),
(117,404,c),
(154,414,o),
(181,448,o),
(181,489,cs),
(181,511,ls),
(181,560,o),
(141,600,o),
(92,600,cs),
(67,600,ls),
(56,600,o),
(46,590,o),
(46,579,cs),
(46,1,l),
(54,1,l),
(54,579,ls),
(54,586,o),
(60,592,o),
(67,592,cs),
(92,592,ls),
(137,592,o),
(173,556,o),
(173,511,cs),
(173,489,ls),
(173,444,o),
(137,407,o),
(92,407,c),
(92,400,l),
(137,400,o),
(173,363,o),
(173,318,cs),
(173,66,ls),
(173,39,o),
(160,14,o),
(139,0,c)
);
},
{
closed = 1;
nodes = (
(46,157,l),
(46,8,l),
(25,8,l),
(25,0,l),
(76,0,l),
(76,8,l),
(63,8,o),
(54,17,o),
(54,29,cs),
(54,157,l)
);
}
);
width = 206;
}
);
unicode = 223;
},
{
glyphname = t;
kernLeft = t;
kernRight = t;
lastChange = "2022-11-26 06:18:10 +0000";
layers = (
{
layerId = m01;
shapes = (
{
closed = 1;
nodes = (
(59,599,l),
(34,599,l),
(34,591,l),
(44,591,o),
(51,584,o),
(51,574,cs),
(51,400,l),
(7,400,l),
(7,392,l),
(51,392,l),
(51,58,ls),
(51,22,o),
(81,-8,o),
(117,-8,c),
(117,0,l),
(85,0,o),
(59,26,o),
(59,58,cs),
(59,392,l),
(117,392,l),
(117,400,l),
(59,400,l)
);
}
);
width = 138;
}
);
unicode = 116;
},
{
glyphname = tcommaaccent;
kernLeft = t;
kernRight = t;
lastChange = "2022-11-25 18:34:06 +0000";
layers = (
{
layerId = m01;
shapes = (
{
pos = (-119,-778);
ref = acutecomb;
},
{
closed = 1;
nodes = (
(77,599,l),
(52,599,l),
(52,591,l),
(62,591,o),
(69,584,o),
(69,574,cs),
(69,400,l),
(25,400,l),
(25,392,l),
(69,392,l),
(69,58,ls),
(69,22,o),
(99,-8,o),
(135,-8,c),
(135,0,l),
(103,0,o),
(77,26,o),
(77,58,cs),
(77,392,l),
(135,392,l),
(135,400,l),
(77,400,l)
);
}
);
width = 211;
}
);
unicode = 539;
},
{
glyphname = u;
kernLeft = u;
kernRight = u;
lastChange = "2022-12-13 16:55:59 +0000";
layers = (
{
layerId = m01;
shapes = (
{
closed = 1;
nodes = (
(137,392,l),
(159,392,l),
(159,54,ls),
(159,27,o),
(139,2,o),
(112,0,cs),
(81,-3,o),
(54,21,o),
(54,52,cs),
(54,370,ls),
(54,382,o),
(64,392,o),
(76,392,c),
(76,400,l),
(25,400,l),
(25,392,l),
(47,392,l),
(47,54,ls),
(47,24,o),
(68,-4,o),
(98,-8,cs),
(124,-11,o),
(147,2,o),
(159,23,c),
(159,0,l),
(166,0,l),
(166,370,ls),
(166,382,o),
(176,392,o),
(188,392,c),
(188,400,l),
(137,400,l)
);
}
);
width = 213;
}
);
unicode = 117;
},
{
glyphname = v;
lastChange = "2022-12-13 16:51:38 +0000";
layers = (
{
layerId = m01;
shapes = (
{
closed = 1;
nodes = (
(172,394,l),
(194,394,l),
(127,12,ls),
(126,7,o),
(119,7,o),
(118,12,cs),
(55,394,l),
(76,394,l),
(76,401,l),
(25,401,l),
(25,394,l),
(33,394,ls),
(41,394,o),
(49,388,o),
(50,379,cs),
(111,10,ls),
(112,4,o),
(117,0,o),
(123,0,cs),
(129,0,o),
(133,4,o),
(134,10,cs),
(199,379,ls),
(200,388,o),
(208,394,o),
(216,394,cs),
(223,394,l),
(223,401,l),
(172,401,l)
);
}
);
width = 248;
}
);
unicode = 118;
},
{
glyphname = w;
kernLeft = w;
kernRight = w;
lastChange = "2022-11-25 18:34:06 +0000";
layers = (
{
layerId = m01;
shapes = (
{
closed = 1;
nodes = (
(267,393,l),
(289,393,l),
(288,8,l),
(185,240,ls),
(179,254,o),
(164,252,o),
(159,240,cs),
(54,8,l),
(54,372,ls),
(54,384,o),
(64,393,o),
(76,393,c),
(76,401,l),
(25,401,l),
(25,393,l),
(46,393,l),
(46,8,ls),
(46,-1,o),
(58,-3,o),
(62,5,cs),
(166,237,ls),
(168,243,o),
(176,244,o),
(179,237,cs),
(281,5,ls),
(285,-3,o),
(296,0,o),
(296,8,cs),
(296,372,ls),
(296,384,o),
(306,393,o),
(318,393,c),
(318,401,l),
(267,401,l)
);
}
);
width = 343;
}
);
unicode = 119;
},
{
glyphname = x;
lastChange = "2022-11-25 18:50:50 +0000";
layers = (
{
layerId = m01;
shapes = (
{
closed = 1;
nodes = (
(127,216,l),
(185,375,ls),
(189,386,o),
(199,393,o),
(210,393,cs),
(215,393,l),
(215,401,l),
(164,401,l),
(164,393,l),
(183,393,l),
(123,227,l),
(62,393,l),
(81,393,l),
(81,401,l),
(30,401,l),
(30,393,l),
(35,393,ls),
(47,393,o),
(57,386,o),
(61,375,cs),
(119,216,l),
(49,25,ls),
(45,14,o),
(36,7,o),
(25,7,c),
(25,0,l),
(76,0,l),
(76,7,l),
(51,7,l),
(123,205,l),
(195,7,l),
(170,7,l),
(170,0,l),
(221,0,l),
(221,7,l),
(210,7,o),
(200,14,o),
(196,25,cs)
);
}
);
width = 246;
}
);
unicode = 120;
},
{
glyphname = y;
kernLeft = y;
kernRight = y;
lastChange = "2022-12-13 16:56:02 +0000";
layers = (
{
layerId = m01;
shapes = (
{
closed = 1;
nodes = (
(153,392,l),
(174,392,l),
(105,21,l),
(38,392,l),
(60,392,l),
(60,400,l),
(9,400,l),
(9,392,l),
(16,392,ls),
(24,392,o),
(31,386,o),
(33,378,cs),
(101,0,l),
(76,-134,ls),
(69,-168,o),
(39,-192,o),
(5,-192,c),
(5,-200,l),
(43,-200,o),
(76,-173,o),
(84,-135,cs),
(179,378,ls),
(180,386,o),
(187,392,o),
(196,392,cs),
(204,392,l),
(204,400,l),
(153,400,l)
);
}
);
width = 229;
}
);
unicode = 121;
},
{
glyphname = z;
kernLeft = z;
kernRight = z;
lastChange = "2022-12-13 16:48:28 +0000";
layers = (
{
layerId = m01;
shapes = (
{
closed = 1;
nodes = (
(25,8,ls),
(24,8,o),
(23,9,o),
(24,11,cs),
(146,392,ls),
(147,396,o),
(144,400,o),
(141,400,cs),
(18,400,l),
(18,349,l),
(26,349,l),
(26,370,ls),
(26,382,o),
(35,392,o),
(47,392,cs),
(136,392,ls),
(137,392,o),
(138,391,o),
(137,389,cs),
(15,7,ls),
(13,2,o),
(17,0,o),
(21,0,cs),
(148,0,l),
(148,51,l),
(141,51,l),
(141,29,ls),
(141,17,o),
(131,8,o),
(119,8,cs)
);
}
);
width = 173;
}
);
unicode = 122;
},
{
glyphname = ordfeminine;
lastChange = "2022-11-25 18:34:06 +0000";
layers = (
{
layerId = m01;
shapes = (
{
closed = 1;
nodes = (
(72,600,cs),
(62,600,o),
(51,605,o),
(43,613,cs),
(35,620,o),
(31,630,o),
(31,642,cs),
(31,650,ls),
(31,672,o),
(50,691,o),
(72,691,cs),
(114,691,l),
(114,642,ls),
(114,619,o),
(96,600,o)
);
},
{
closed = 1;
nodes = (
(120,706,ls),
(120,731,o),
(102,752,o),
(79,755,cs),
(50,759,o),
(25,736,o),
(25,709,c),
(31,709,l),
(31,733,o),
(52,753,o),
(78,750,cs),
(99,747,o),
(114,728,o),
(114,707,cs),
(114,696,l),
(72,696,ls),
(47,696,o),
(25,676,o),
(25,650,cs),
(25,644,ls),
(25,632,o),
(29,620,o),
(37,612,cs),
(45,601,o),
(59,595,o),
(72,595,cs),
(91,595,o),
(106,605,o),
(114,620,c),
(114,600,l),
(132,600,l),
(132,606,l),
(125,606,o),
(120,611,o),
(120,618,cs)
);
}
);
width = 157;
}
);
unicode = 170;
},
{
glyphname = ordmasculine;
lastChange = "2022-11-25 18:34:06 +0000";
layers = (
{
layerId = m01;
shapes = (
{
closed = 1;
nodes = (
(112,640,ls),
(112,629,o),
(108,619,o),
(100,612,cs),
(93,604,o),
(82,600,o),
(72,600,cs),
(49,600,o),
(31,617,o),
(31,640,cs),
(31,710,ls),
(31,732,o),
(49,750,o),
(72,750,cs),
(94,750,o),
(112,732,o),
(112,710,cs)
);
},
{
closed = 1;
nodes = (
(47,756,o),
(25,735,o),
(25,710,cs),
(25,640,ls),
(25,615,o),
(47,594,o),
(72,594,cs),
(84,594,o),
(95,599,o),
(104,608,cs),
(113,617,o),
(118,627,o),
(118,640,cs),
(118,710,ls),
(118,735,o),
(97,756,o),
(72,756,cs)
);
}
);
width = 143;
}
);
unicode = 186;
},
{
glyphname = "koKai-thai";
kernLeft = LL;
kernRight = RL;
lastChange = "2022-11-25 18:34:06 +0000";
layers = (
{
anchors = (
{
name = bottom;
pos = (327,0);
},
{
name = top;
pos = (317,599);
}
);
guides = (
{
locked = 1;
pos = (390,0);
}
);
layerId = m01;
shapes = (
{
closed = 1;
nodes = (
(359,7,l),
(359,0,l),
(285,0,l),
(285,7,l),
(318,7,l),
(318,478,ls),
(318,549,o),
(257,606,o),
(185,600,cs),
(122,594,o),
(75,538,o),
(75,475,cs),
(75,446,ls),
(75,402,o),
(110,367,o),
(154,367,c),
(154,359,l),
(141,357,o),
(76,342,o),
(76,268,cs),
(76,36,ls),
(76,20,o),
(88,7,o),
(104,7,cs),
(109,7,l),
(109,0,l),
(35,0,l),
(35,7,l),
(68,7,l),
(68,268,ls),
(68,328,o),
(109,352,o),
(135,361,c),
(96,370,o),
(67,405,o),
(67,446,cs),
(67,478,ls),
(67,552,o),
(129,611,o),
(203,607,cs),
(272,604,o),
(326,549,o),
(326,475,cs),
(326,36,ls),
(326,20,o),
(338,7,o),
(354,7,cs)
);
}
);
width = 394;
}
);
unicode = 3585;
},
{
glyphname = "khoKhai-thai";
kernLeft = LC;
kernRight = RL;
lastChange = "2022-12-14 12:03:01 +0000";
layers = (
{
anchors = (
{
name = bottom;
pos = (289,0);
},
{
name = top;
pos = (290,600);
}
);
layerId = m01;
shapes = (
{
closed = 1;
nodes = (
(99,530,o),
(116,514,o),
(116,494,cs),
(116,473,o),
(99,457,o),
(79,457,cs),
(59,457,o),
(42,473,o),
(42,494,cs),
(42,514,o),
(59,530,o),
(79,530,cs)
);
},
{
closed = 1;
nodes = (
(326,600,l),
(251,600,l),
(251,593,l),
(285,593,l),
(285,121,ls),
(285,89,o),
(273,58,o),
(249,35,cs),
(226,12,o),
(195,-1,o),
(162,0,cs),
(96,1,o),
(42,57,o),
(42,126,cs),
(42,172,o),
(52,217,o),
(71,259,cs),
(177,492,ls),
(186,513,o),
(187,537,o),
(177,558,cs),
(163,586,o),
(134,602,o),
(104,600,cs),
(64,597,o),
(35,562,o),
(35,522,cs),
(35,494,ls),
(35,466,o),
(60,444,o),
(88,450,cs),
(105,454,o),
(119,467,o),
(122,484,cs),
(128,513,o),
(106,538,o),
(79,538,cs),
(64,538,o),
(50,530,o),
(42,518,c),
(42,522,ls),
(42,555,o),
(68,587,o),
(100,592,cs),
(127,595,o),
(153,583,o),
(167,560,cs),
(179,540,o),
(179,516,o),
(170,495,cs),
(64,262,ls),
(45,219,o),
(35,173,o),
(35,126,cs),
(35,53,o),
(92,-8,o),
(161,-8,cs),
(162,-8,ls),
(186,-8,o),
(209,-2,o),
(229,10,cs),
(270,35,o),
(293,76,o),
(293,121,cs),
(292,564,ls),
(292,580,o),
(305,593,o),
(321,593,cs),
(326,593,l)
);
}
);
width = 361;
}
);
unicode = 3586;
},
{
glyphname = "khoKhuat-thai";
kernLeft = LC;
kernRight = RL;
lastChange = "2022-11-25 18:34:06 +0000";
layers = (
{
anchors = (
{
name = bottom;
pos = (290,0);
},
{
name = top;
pos = (290,600);
}
);
layerId = m01;
shapes = (
{
closed = 1;
nodes = (
(100,529,o),
(116,512,o),
(116,492,cs),
(116,472,o),
(100,455,o),
(79,455,cs),
(59,455,o),
(43,472,o),
(43,492,cs),
(43,512,o),
(59,529,o),
(79,529,cs)
);
},
{
closed = 1;
nodes = (
(326,600,l),
(252,600,l),
(252,592,l),
(285,592,l),
(286,121,ls),
(286,87,o),
(272,54,o),
(247,31,cs),
(221,8,o),
(188,-3,o),
(153,0,cs),
(91,5,o),
(43,60,o),
(43,125,cs),
(43,171,o),
(51,216,o),
(71,258,cs),
(194,514,ls),
(200,526,o),
(203,540,o),
(203,554,cs),
(203,577,o),
(186,597,o),
(164,599,cs),
(151,600,o),
(139,596,o),
(130,588,cs),
(125,584,o),
(122,579,o),
(119,573,c),
(112,590,o),
(95,601,o),
(75,599,cs),
(52,597,o),
(35,577,o),
(35,554,cs),
(35,494,ls),
(35,470,o),
(54,448,o),
(78,448,cs),
(106,447,o),
(128,472,o),
(123,500,cs),
(120,518,o),
(105,533,o),
(87,536,cs),
(69,539,o),
(52,530,o),
(43,517,c),
(43,555,ls),
(43,572,o),
(54,588,o),
(71,591,cs),
(95,596,o),
(115,578,o),
(115,556,c),
(123,556,l),
(123,566,o),
(127,576,o),
(135,583,cs),
(143,590,o),
(153,593,o),
(163,592,cs),
(181,590,o),
(196,573,o),
(196,554,cs),
(196,541,o),
(193,529,o),
(187,517,cs),
(65,261,ls),
(45,218,o),
(35,173,o),
(35,125,cs),
(35,57,o),
(87,-2,o),
(153,-8,cs),
(187,-11,o),
(225,1,o),
(252,26,cs),
(278,51,o),
(293,85,o),
(293,121,cs),
(293,564,ls),
(293,580,o),
(305,592,o),
(321,592,cs),
(326,592,l)
);
}
);
width = 361;
}
);
unicode = 3587;
},
{
glyphname = "khoKhwai-thai";
kernLeft = XALL;
kernRight = RL;
lastChange = "2022-12-14 12:03:09 +0000";
layers = (
{
anchors = (
{
name = bottom;
pos = (289,0);
},
{
name = top;
pos = (285,600);
}
);
layerId = m01;
shapes = (
{
closed = 1;
nodes = (
(184,441,o),
(201,424,o),
(201,404,cs),
(201,383,o),
(184,367,o),
(164,367,cs),
(144,367,o),
(127,383,o),
(127,404,cs),
(127,424,o),
(144,441,o),
(164,441,cs)
);
},
{
closed = 1;
nodes = (
(293,474,ls),
(293,543,o),
(240,603,o),
(170,607,cs),
(96,610,o),
(35,551,o),
(35,478,cs),
(35,14,ls),
(35,3,o),
(42,-6,o),
(52,-8,cs),
(65,-11,o),
(76,-3,o),
(78,10,cs),
(125,384,l),
(133,367,o),
(152,356,o),
(172,360,cs),
(190,363,o),
(204,377,o),
(207,394,cs),
(213,423,o),
(192,448,o),
(164,448,cs),
(142,448,o),
(123,431,o),
(120,409,cs),
(71,11,ls),
(70,4,o),
(64,-1,o),
(57,-1,cs),
(49,-1,o),
(43,5,o),
(43,12,cs),
(42,478,ls),
(42,549,o),
(103,606,o),
(175,599,cs),
(238,593,o),
(285,537,o),
(285,474,cs),
(285,8,l),
(252,8,l),
(252,0,l),
(326,0,l),
(326,8,l),
(321,8,ls),
(306,8,o),
(293,20,o),
(293,36,cs)
);
}
);
width = 361;
}
);
unicode = 3588;
},
{
glyphname = "khoKhon-thai";
kernLeft = XALL;
kernRight = RL;
lastChange = "2022-12-14 12:03:14 +0000";
layers = (
{
anchors = (
{
name = bottom;
pos = (290,0);
},
{
name = top;
pos = (276,600);
}
);
layerId = m01;
shapes = (
{
closed = 1;
nodes = (
(185,441,o),
(201,424,o),
(201,404,cs),
(201,383,o),
(185,367,o),
(164,367,cs),
(144,367,o),
(128,383,o),
(128,404,cs),
(128,424,o),
(144,441,o),
(164,441,cs)
);
},
{
closed = 1;
nodes = (
(293,531,ls),
(293,565,o),
(269,596,o),
(235,600,cs),
(202,604,o),
(174,584,o),
(164,556,c),
(155,582,o),
(130,600,o),
(101,600,cs),
(65,600,o),
(35,570,o),
(35,534,cs),
(36,15,ls),
(36,4,o),
(42,-5,o),
(52,-7,cs),
(65,-10,o),
(77,-2,o),
(79,11,cs),
(125,384,l),
(133,367,o),
(152,356,o),
(173,360,cs),
(190,363,o),
(204,377,o),
(208,394,cs),
(214,423,o),
(192,448,o),
(164,448,cs),
(142,448,o),
(124,431,o),
(121,409,cs),
(71,12,ls),
(70,5,o),
(64,0,o),
(57,0,cs),
(49,0,o),
(43,6,o),
(43,13,cs),
(42,534,ls),
(42,566,o),
(69,593,o),
(101,593,cs),
(134,593,o),
(160,566,o),
(160,534,c),
(168,534,l),
(168,569,o),
(199,597,o),
(235,592,cs),
(264,588,o),
(286,562,o),
(286,532,cs),
(286,8,l),
(252,8,l),
(252,0,l),
(327,0,l),
(327,8,l),
(322,8,ls),
(306,8,o),
(293,20,o),
(293,36,cs)
);
}
);
width = 362;
}
);
unicode = 3589;
},
{
glyphname = "khoRakhang-thai";
kernLeft = LO;
kernRight = RL;
lastChange = "2022-11-25 18:34:06 +0000";
layers = (
{
anchors = (
{
name = bottom;
pos = (331,-9);
},
{
name = top;
pos = (331,600);
}
);
layerId = m01;
shapes = (
{
closed = 1;
nodes = (
(116,16,o),
(99,0,o),
(79,0,cs),
(59,0,o),
(42,16,o),
(42,36,cs),
(42,57,o),
(59,73,o),
(79,73,cs),
(99,73,o),
(116,57,o),
(116,36,cs)
);
},
{
closed = 1;
nodes = (
(101,529,o),
(118,513,o),
(118,493,cs),
(118,472,o),
(101,456,o),
(81,456,cs),
(61,456,o),
(44,472,o),
(44,493,cs),
(44,513,o),
(61,529,o),
(81,529,cs)
);
},
{
closed = 1;
nodes = (
(294,600,l),
(294,592,l),
(327,592,l),
(327,1,l),
(186,59,o),
(109,78,o),
(84,80,c),
(84,184,o),
(104,287,o),
(143,383,cs),
(196,514,l),
(202,526,o),
(205,540,o),
(205,554,cs),
(205,555,ls),
(205,578,o),
(188,597,o),
(165,599,cs),
(153,600,o),
(141,596,o),
(132,588,cs),
(127,584,o),
(123,579,o),
(121,573,c),
(114,589,o),
(99,599,o),
(81,599,cs),
(57,599,o),
(37,580,o),
(37,555,cs),
(37,493,ls),
(37,468,o),
(57,448,o),
(81,448,cs),
(105,448,o),
(125,468,o),
(125,493,cs),
(125,517,o),
(105,537,o),
(81,537,cs),
(66,537,o),
(52,529,o),
(44,517,c),
(44,555,ls),
(44,575,o),
(61,592,o),
(81,592,cs),
(101,592,o),
(117,575,o),
(117,555,c),
(125,555,l),
(125,566,o),
(129,576,o),
(137,582,cs),
(144,589,o),
(154,593,o),
(165,592,cs),
(183,590,o),
(197,574,o),
(197,555,cs),
(197,554,ls),
(197,541,o),
(194,529,o),
(189,517,cs),
(136,386,ls),
(97,291,o),
(77,187,o),
(77,85,cs),
(77,80,l),
(54,79,o),
(35,60,o),
(35,36,cs),
(35,12,o),
(54,-8,o),
(79,-8,cs),
(103,-8,o),
(123,12,o),
(123,36,cs),
(123,49,o),
(118,60,o),
(109,69,c),
(144,62,o),
(212,40,o),
(326,-7,cs),
(331,-9,o),
(335,-7,o),
(335,-2,cs),
(335,564,ls),
(335,580,o),
(347,592,o),
(363,592,cs),
(368,592,l),
(368,600,l)
);
}
);
width = 403;
}
);
unicode = 3590;
},
{
glyphname = "ngoNgu-thai";
kernLeft = LL;
kernRight = XALL;
lastChange = "2022-12-16 15:51:58 +0000";
layers = (
{
anchors = (
{
name = bottom;
pos = (232,0);
},
{
name = top;
pos = (265,600);
}
);
layerId = m01;
shapes = (
{
closed = 1;
nodes = (
(171,523,o),
(155,540,o),
(155,560,cs),
(155,581,o),
(171,597,o),
(192,597,cs),
(212,597,o),
(228,581,o),
(228,560,cs),
(228,540,o),
(212,523,o),
(192,523,cs)
);
},
{
closed = 1;
nodes = (
(174,614,o),
(142,586,o),
(148,552,cs),
(151,534,o),
(166,519,o),
(184,516,cs),
(202,513,o),
(219,521,o),
(228,535,c),
(228,21,ls),
(228,14,o),
(221,8,o),
(214,8,cs),
(211,8,ls),
(205,8,o),
(200,11,o),
(198,17,cs),
(87,349,ls),
(82,364,o),
(93,380,o),
(109,380,c),
(109,388,l),
(35,388,l),
(35,380,l),
(68,380,l),
(191,15,ls),
(194,6,o),
(202,0,o),
(211,0,cs),
(214,0,ls),
(225,0,o),
(235,10,o),
(235,21,cs),
(236,560,ls),
(236,578,o),
(225,595,o),
(208,602,cs)
);
}
);
width = 291;
}
);
unicode = 3591;
},
{
glyphname = "choChan-thai";
kernLeft = LL;
kernRight = XALL;
lastChange = "2022-11-25 18:34:06 +0000";
layers = (
{
anchors = (
{
name = bottom;
pos = (293,0);
},
{
name = top;
pos = (293,600);
}
);
layerId = m01;
shapes = (
{
closed = 1;
nodes = (
(147,367,o),
(130,384,o),
(130,404,cs),
(130,424,o),
(147,441,o),
(167,441,cs),
(187,441,o),
(204,424,o),
(204,404,cs),
(204,384,o),
(187,367,o),
(167,367,cs)
);
},
{
closed = 1;
nodes = (
(94,604,o),
(42,548,o),
(39,482,c),
(5,482,l),
(5,474,l),
(79,474,l),
(79,482,l),
(60,482,o),
(47,501,o),
(54,519,cs),
(69,562,o),
(108,595,o),
(156,600,cs),
(228,607,o),
(289,550,o),
(289,479,cs),
(288,22,ls),
(288,14,o),
(282,8,o),
(274,8,cs),
(267,8,o),
(261,13,o),
(261,20,c),
(211,409,ls),
(208,431,o),
(190,448,o),
(167,448,cs),
(140,448,o),
(118,423,o),
(124,394,cs),
(128,377,o),
(142,364,o),
(159,360,cs),
(180,357,o),
(198,368,o),
(207,384,c),
(253,19,ls),
(255,7,o),
(267,-2,o),
(279,1,cs),
(289,3,o),
(296,13,o),
(296,23,cs),
(297,479,ls),
(297,552,o),
(235,611,o),
(161,608,cs)
);
}
);
width = 332;
}
);
unicode = 3592;
},
{
glyphname = "choChing-thai";
kernLeft = LOU;
kernRight = RO;
lastChange = "2022-12-14 12:03:36 +0000";
layers = (
{
anchors = (
{
name = bottom;
pos = (332,0);
},
{
name = top;
pos = (322,600);
}
);
layerId = m01;
shapes = (
{
closed = 1;
nodes = (
(309,8,o),
(292,24,o),
(292,44,cs),
(292,65,o),
(309,81,o),
(329,81,cs),
(349,81,o),
(366,65,o),
(366,44,cs),
(366,24,o),
(349,8,o),
(329,8,cs)
);
},
{
closed = 1;
nodes = (
(59,326,o),
(43,343,o),
(43,363,cs),
(43,383,o),
(59,400,o),
(80,400,cs),
(100,400,o),
(116,383,o),
(116,363,cs),
(116,343,o),
(100,326,o),
(80,326,cs)
);
},
{
closed = 1;
nodes = (
(334,478,ls),
(334,549,o),
(276,607,o),
(205,607,cs),
(135,607,o),
(78,551,o),
(76,482,c),
(42,482,l),
(42,474,l),
(116,474,l),
(116,482,l),
(97,482,o),
(84,501,o),
(90,519,cs),
(107,566,o),
(152,600,o),
(205,600,cs),
(272,600,o),
(326,545,o),
(326,478,cs),
(326,88,l),
(312,88,o),
(281,82,o),
(124,12,c),
(124,363,ls),
(124,388,o),
(102,409,o),
(76,407,cs),
(55,405,o),
(37,388,o),
(35,366,cs),
(33,340,o),
(54,319,o),
(80,319,cs),
(95,319,o),
(108,326,o),
(116,338,c),
(116,9,ls),
(116,3,o),
(122,2,o),
(126,4,cs),
(222,47,o),
(271,66,o),
(297,75,c),
(289,66,o),
(284,54,o),
(285,41,cs),
(286,19,o),
(305,1,o),
(327,0,cs),
(353,-1,o),
(373,19,o),
(373,44,cs),
(373,67,o),
(356,86,o),
(333,88,c)
);
}
);
width = 408;
}
);
unicode = 3593;
},
{
glyphname = "choChang-thai";
kernLeft = LC;
kernRight = RC;
lastChange = "2022-11-25 18:34:06 +0000";
layers = (
{
anchors = (
{
name = bottom;
pos = (291,0);
},
{
name = top;
pos = (291,600);
}
);
layerId = m01;
shapes = (
{
closed = 1;
nodes = (
(99,531,o),
(116,514,o),
(116,494,cs),
(116,474,o),
(99,457,o),
(79,457,cs),
(59,457,o),
(42,474,o),
(42,494,cs),
(42,514,o),
(59,531,o),
(79,531,cs)
);
},
{
closed = 1;
nodes = (
(276,581,o),
(300,592,o),
(325,592,c),
(325,600,l),
(251,600,l),
(251,592,l),
(279,592,l),
(214,530,o),
(190,437,o),
(218,351,cs),
(281,158,ls),
(299,104,o),
(277,44,o),
(230,17,cs),
(209,4,o),
(183,-2,o),
(158,0,cs),
(122,2,o),
(89,22,o),
(69,53,cs),
(48,86,o),
(43,127,o),
(56,163,cs),
(178,494,l),
(191,524,o),
(184,560,o),
(157,583,cs),
(149,589,o),
(140,594,o),
(131,597,cs),
(80,611,o),
(35,573,o),
(35,525,cs),
(35,494,ls),
(35,466,o),
(60,445,o),
(88,451,cs),
(105,454,o),
(119,468,o),
(122,484,cs),
(128,513,o),
(106,538,o),
(79,538,cs),
(64,538,o),
(50,530,o),
(42,518,c),
(42,522,ls),
(42,559,o),
(72,592,o),
(109,592,cs),
(132,592,o),
(154,581,o),
(166,561,cs),
(178,542,o),
(180,518,o),
(171,497,cs),
(49,166,ls),
(35,127,o),
(40,84,o),
(63,49,cs),
(84,16,o),
(119,-5,o),
(158,-8,cs),
(189,-9,o),
(209,-5,o),
(234,10,cs),
(284,40,o),
(307,103,o),
(288,160,cs),
(225,353,ls),
(202,425,o),
(216,503,o),
(261,561,cs)
);
}
);
width = 360;
}
);
unicode = 3594;
},
{
glyphname = "soSo-thai";
kernLeft = LC;
kernRight = RC;
lastChange = "2022-11-25 18:34:06 +0000";
layers = (
{
anchors = (
{
name = bottom;
pos = (292,0);
},
{
name = top;
pos = (292,600);
}
);
layerId = m01;
shapes = (
{
closed = 1;
nodes = (
(100,523,o),
(116,507,o),
(116,486,cs),
(116,466,o),
(100,450,o),
(79,450,cs),
(59,450,o),
(43,466,o),
(43,486,cs),
(43,507,o),
(59,523,o),
(79,523,cs)
);
},
{
closed = 1;
nodes = (
(326,598,l),
(252,598,l),
(252,591,l),
(281,591,l),
(208,504,o),
(188,386,o),
(231,281,cs),
(282,158,l),
(300,104,o),
(278,44,o),
(231,17,cs),
(210,4,o),
(184,-2,o),
(159,0,cs),
(123,2,o),
(90,22,o),
(70,53,cs),
(49,86,o),
(43,127,o),
(57,163,cs),
(194,513,l),
(200,525,o),
(203,539,o),
(203,552,cs),
(203,576,o),
(186,596,o),
(164,598,cs),
(151,599,o),
(139,595,o),
(130,587,cs),
(125,582,o),
(122,577,o),
(119,572,c),
(112,588,o),
(94,600,o),
(75,598,cs),
(52,596,o),
(35,575,o),
(35,552,cs),
(35,489,ls),
(35,464,o),
(54,443,o),
(78,442,cs),
(106,441,o),
(128,466,o),
(123,495,cs),
(120,513,o),
(105,527,o),
(87,530,cs),
(68,533,o),
(52,525,o),
(43,511,c),
(43,553,ls),
(43,570,o),
(54,586,o),
(71,590,cs),
(95,595,o),
(115,577,o),
(115,554,c),
(123,554,l),
(123,564,o),
(127,574,o),
(135,581,cs),
(142,588,o),
(152,591,o),
(163,590,cs),
(181,589,o),
(196,572,o),
(196,552,cs),
(196,540,o),
(193,527,o),
(187,516,c),
(50,166,ls),
(35,127,o),
(41,83,o),
(64,49,cs),
(87,13,o),
(124,-8,o),
(168,-8,cs),
(191,-8,o),
(215,-2,o),
(235,10,cs),
(285,40,o),
(308,103,o),
(289,160,c),
(238,284,ls),
(200,376,o),
(213,479,o),
(267,560,cs),
(280,579,o),
(302,591,o),
(326,591,c)
);
}
);
width = 361;
}
);
unicode = 3595;
},
{
glyphname = "choChoe-thai";
kernLeft = XALL;
kernRight = RL;
lastChange = "2022-11-25 18:34:06 +0000";
layers = (
{
anchors = (
{
name = bottom;
pos = (540,0);
},
{
name = top;
pos = (540,600);
}
);
layerId = m01;
shapes = (
{
closed = 1;
nodes = (
(325,18,o),
(308,1,o),
(288,1,cs),
(268,1,o),
(251,18,o),
(251,38,cs),
(251,58,o),
(268,75,o),
(288,75,cs),
(308,75,o),
(325,58,o),
(325,38,cs)
);
},
{
closed = 1;
nodes = (
(100,74,o),
(117,58,o),
(117,37,cs),
(117,17,o),
(100,1,o),
(80,1,cs),
(60,1,o),
(43,17,o),
(43,37,cs),
(43,58,o),
(60,74,o),
(80,74,cs)
);
},
{
closed = 1;
nodes = (
(503,600,l),
(503,592,l),
(536,592,l),
(536,6,l),
(395,64,o),
(318,80,o),
(293,82,c),
(293,476,ls),
(293,550,o),
(240,605,o),
(170,608,cs),
(96,612,o),
(35,553,o),
(35,479,cs),
(35,446,ls),
(35,405,o),
(64,370,o),
(102,361,c),
(76,352,o),
(36,328,o),
(36,268,cs),
(36,39,ls),
(36,15,o),
(54,-6,o),
(79,-7,cs),
(106,-8,o),
(129,17,o),
(123,46,cs),
(120,64,o),
(105,78,o),
(87,81,cs),
(69,84,o),
(52,76,o),
(43,62,c),
(43,268,ls),
(43,349,o),
(121,359,o),
(124,359,c),
(124,367,l),
(122,367,ls),
(78,367,o),
(42,402,o),
(42,446,cs),
(42,476,ls),
(42,539,o),
(89,595,o),
(152,600,cs),
(225,607,o),
(286,550,o),
(286,479,cs),
(286,82,l),
(262,81,o),
(244,61,o),
(244,38,cs),
(244,13,o),
(264,-6,o),
(288,-6,cs),
(312,-6,o),
(332,13,o),
(332,38,cs),
(332,51,o),
(327,62,o),
(318,70,c),
(353,63,o),
(421,46,o),
(535,-1,cs),
(539,-3,o),
(544,-2,o),
(544,4,cs),
(544,567,l),
(546,581,o),
(558,592,o),
(572,592,cs),
(577,592,l),
(577,600,l)
);
}
);
width = 612;
}
);
unicode = 3596;
},
{
glyphname = "yoYing-thai";
kernLeft = XALL;
kernRight = RL;
lastChange = "2022-11-25 18:34:06 +0000";
layers = (
{
anchors = (
{
name = bottom;
pos = (538,0);
},
{
name = top;
pos = (538,600);
}
);
layerId = m01;
shapes = (
{
closed = 1;
nodes = (
(100,73,o),
(117,57,o),
(117,37,cs),
(117,16,o),
(100,0,o),
(80,0,cs),
(60,0,o),
(43,16,o),
(43,37,cs),
(43,57,o),
(60,73,o),
(80,73,cs)
);
},
{
closed = 1;
nodes = (
(502,600,l),
(502,593,l),
(535,593,l),
(534,119,ls),
(534,53,o),
(480,-1,o),
(414,-1,cs),
(348,-1,o),
(295,53,o),
(295,119,cs),
(293,474,ls),
(293,549,o),
(240,603,o),
(170,607,cs),
(96,611,o),
(35,551,o),
(35,478,cs),
(35,446,ls),
(35,404,o),
(64,370,o),
(102,361,c),
(76,352,o),
(36,328,o),
(36,268,cs),
(36,39,ls),
(36,15,o),
(54,-7,o),
(79,-8,cs),
(106,-8,o),
(129,17,o),
(123,45,cs),
(120,63,o),
(105,77,o),
(87,80,cs),
(69,83,o),
(52,75,o),
(43,61,c),
(43,268,ls),
(43,349,o),
(121,358,o),
(124,359,c),
(124,366,l),
(122,366,ls),
(78,366,o),
(42,402,o),
(42,446,cs),
(42,474,ls),
(42,538,o),
(89,593,o),
(152,599,cs),
(225,606,o),
(286,549,o),
(286,478,cs),
(287,119,ls),
(287,49,o),
(344,-8,o),
(414,-8,cs),
(484,-8,o),
(541,49,o),
(541,119,cs),
(543,565,ls),
(543,580,o),
(555,593,o),
(571,593,cs),
(576,593,l),
(576,600,l)
);
},
{
closed = 1;
nodes = (
(346,-60,o),
(363,-43,o),
(383,-43,cs),
(403,-43,o),
(420,-60,o),
(420,-80,cs),
(420,-100,o),
(403,-117,o),
(383,-117,cs),
(363,-117,o),
(346,-100,o),
(346,-80,cs)
);
},
{
closed = 1;
nodes = (
(408,-117,l),
(420,-109,o),
(427,-95,o),
(427,-80,cs),
(427,-56,o),
(408,-36,o),
(383,-36,cs),
(359,-36,o),
(339,-56,o),
(339,-80,cs),
(339,-104,o),
(359,-124,o),
(383,-124,cs),
(437,-124,ls),
(479,-124,o),
(512,-90,o),
(512,-48,c),
(505,-48,l),
(505,-86,o),
(474,-117,o),
(437,-117,cs)
);
}
);
width = 611;
}
);
unicode = 3597;
},
{
glyphname = "yoYing-thai.less";
kernLeft = XALL;
kernRight = RL;
lastChange = "2022-11-25 18:34:06 +0000";
layers = (
{
anchors = (
{
name = bottom;
pos = (538,0);
},
{
name = top;
pos = (538,600);
}
);
layerId = m01;
shapes = (
{
closed = 1;
nodes = (
(100,73,o),
(117,57,o),
(117,37,cs),
(117,16,o),
(100,0,o),
(80,0,cs),
(60,0,o),
(43,16,o),
(43,37,cs),
(43,57,o),
(60,73,o),
(80,73,cs)
);
},
{
closed = 1;
nodes = (
(502,600,l),
(502,593,l),
(535,593,l),
(534,119,ls),
(534,53,o),
(480,-1,o),
(414,-1,cs),
(348,-1,o),
(295,53,o),
(295,119,cs),
(293,475,ls),
(293,550,o),
(240,604,o),
(170,608,cs),
(96,612,o),
(35,552,o),
(35,479,cs),
(35,446,ls),
(35,404,o),
(64,370,o),
(102,361,c),
(76,352,o),
(36,328,o),
(36,268,cs),
(36,39,ls),
(36,15,o),
(54,-7,o),
(79,-8,cs),
(106,-8,o),
(129,17,o),
(123,45,cs),
(120,63,o),
(105,77,o),
(87,80,cs),
(69,83,o),
(52,75,o),
(43,61,c),
(43,268,ls),
(43,349,o),
(121,358,o),
(124,359,c),
(124,366,l),
(122,366,ls),
(78,366,o),
(42,402,o),
(42,446,cs),
(42,475,ls),
(42,539,o),
(89,594,o),
(152,600,cs),
(225,607,o),
(286,550,o),
(286,479,cs),
(287,119,ls),
(287,49,o),
(344,-8,o),
(414,-8,cs),
(484,-8,o),
(541,49,o),
(541,119,cs),
(543,565,ls),
(543,580,o),
(555,593,o),
(571,593,cs),
(576,593,l),
(576,600,l)
);
}
);
width = 611;
}
);
},
{
glyphname = "doChada-thai";
kernLeft = LO;
kernRight = XALL;
lastChange = "2022-12-14 12:03:51 +0000";
layers = (
{
anchors = (
{
name = bottom;
pos = (370,-208);
},
{
name = top;
pos = (367,600);
}
);
layerId = m01;
shapes = (
{
closed = 1;
nodes = (
(111,-174,o),
(100,-183,o),
(88,-185,cs),
(77,-187,o),
(66,-183,o),
(57,-176,cs),
(49,-169,o),
(44,-159,o),
(44,-149,cs),
(44,-128,o),
(61,-112,o),
(81,-112,cs),
(99,-112,o),
(122,-115,o),
(148,-121,c),
(141,-137,o),
(131,-154,o),
(118,-168,cs)
);
},
{
closed = 1;
nodes = (
(59,0,o),
(43,16,o),
(43,36,cs),
(43,57,o),
(59,73,o),
(79,73,cs),
(100,73,o),
(116,57,o),
(116,36,cs),
(116,16,o),
(100,0,o),
(79,0,cs)
);
},
{
closed = 1;
nodes = (
(173,608,o),
(115,550,o),
(115,479,cs),
(115,446,ls),
(115,405,o),
(144,370,o),
(183,361,c),
(157,352,o),
(116,328,o),
(116,268,cs),
(116,61,l),
(108,73,o),
(95,81,o),
(79,81,cs),
(55,81,o),
(35,61,o),
(35,36,cs),
(35,12,o),
(55,-8,o),
(79,-8,cs),
(104,-8,o),
(124,12,o),
(124,36,cs),
(124,268,ls),
(124,349,o),
(201,359,o),
(204,359,c),
(204,367,l),
(203,367,ls),
(159,367,o),
(123,402,o),
(123,446,cs),
(123,479,ls),
(123,546,o),
(177,600,o),
(245,600,cs),
(312,600,o),
(366,546,o),
(366,479,cs),
(366,-191,l),
(345,-178,o),
(242,-137,o),
(158,-116,c),
(161,-109,o),
(163,-102,o),
(165,-96,cs),
(167,-90,o),
(168,-84,o),
(170,-78,c),
(163,-76,l),
(157,-94,l),
(156,-100,o),
(153,-107,o),
(151,-114,c),
(124,-108,o),
(100,-104,o),
(81,-104,cs),
(57,-104,o),
(37,-124,o),
(37,-149,cs),
(37,-161,o),
(42,-173,o),
(52,-182,cs),
(63,-191,o),
(76,-194,o),
(89,-192,cs),
(100,-190,o),
(112,-184,o),
(123,-173,cs),
(138,-159,o),
(148,-140,o),
(155,-123,c),
(241,-144,o),
(348,-187,o),
(364,-198,cs),
(370,-202,o),
(374,-198,o),
(374,-193,cs),
(374,479,ls),
(374,550,o),
(316,608,o),
(245,608,cs)
);
}
);
width = 409;
}
);
unicode = 3598;
},
{
glyphname = "doChada-thai.short";
kernLeft = LO;
kernRight = XALL;
lastChange = "2022-11-26 18:09:21 +0000";
layers = (
{
anchors = (
{
name = bottom;
pos = (370,-159);
}
);
layerId = m01;
shapes = (
{
closed = 1;
nodes = (
(111,-114,o),
(100,-123,o),
(88,-125,cs),
(77,-127,o),
(66,-123,o),
(57,-116,cs),
(49,-109,o),
(44,-99,o),
(44,-89,cs),
(44,-68,o),
(61,-52,o),
(81,-52,cs),
(99,-52,o),
(122,-55,o),
(148,-61,c),
(141,-77,o),
(131,-94,o),
(118,-108,cs)
);
},
{
closed = 1;
nodes = (
(59,0,o),
(43,16,o),
(43,36,cs),
(43,57,o),
(59,73,o),
(79,73,cs),
(100,73,o),
(116,57,o),
(116,36,cs),
(116,16,o),
(100,0,o),
(79,0,cs)
);
},
{
closed = 1;
nodes = (
(173,608,o),
(115,550,o),
(115,479,cs),
(115,446,ls),
(115,405,o),
(144,370,o),
(183,361,c),
(157,352,o),
(116,328,o),
(116,268,cs),
(116,61,l),
(108,73,o),
(95,81,o),
(79,81,cs),
(55,81,o),
(35,61,o),
(35,36,cs),
(35,12,o),
(55,-8,o),
(79,-8,cs),
(104,-8,o),
(124,12,o),
(124,36,cs),
(124,268,ls),
(124,349,o),
(201,359,o),
(204,359,c),
(204,367,l),
(203,367,ls),
(159,367,o),
(123,402,o),
(123,446,cs),
(123,479,ls),
(123,546,o),
(177,600,o),
(245,600,cs),
(312,600,o),
(366,546,o),
(366,479,cs),
(366,-131,l),
(345,-118,o),
(242,-77,o),
(158,-56,c),
(161,-49,o),
(163,-42,o),
(165,-36,cs),
(167,-30,o),
(168,-24,o),
(170,-18,c),
(163,-16,l),
(157,-34,l),
(156,-40,o),
(153,-47,o),
(151,-54,c),
(124,-48,o),
(100,-44,o),
(81,-44,cs),
(57,-44,o),
(37,-64,o),
(37,-89,cs),
(37,-101,o),
(42,-113,o),
(52,-122,cs),
(63,-131,o),
(76,-134,o),
(89,-132,cs),
(100,-130,o),
(112,-124,o),
(123,-113,cs),
(138,-99,o),
(148,-80,o),
(155,-63,c),
(241,-84,o),
(348,-127,o),
(364,-138,cs),
(371,-143,o),
(374,-139,o),
(374,-133,cs),
(374,479,ls),
(374,550,o),
(316,608,o),
(245,608,cs)
);
}
);
width = 409;
}
);
},
{
glyphname = "toPatak-thai";
kernLeft = LO;
kernRight = XALL;
lastChange = "2022-12-14 12:05:26 +0000";
layers = (
{
anchors = (
{
name = bottom;
pos = (369,-200);
},
{
name = top;
pos = (368,600);
}
);
layerId = m01;
shapes = (
{
closed = 1;
nodes = (
(111,-175,o),
(100,-183,o),
(88,-185,cs),
(77,-187,o),
(66,-184,o),
(57,-176,cs),
(49,-169,o),
(44,-159,o),
(44,-149,cs),
(44,-129,o),
(61,-112,o),
(81,-112,cs),
(95,-112,o),
(106,-120,o),
(122,-131,cs),
(127,-134,o),
(134,-139,o),
(138,-142,c),
(133,-152,o),
(126,-160,o),
(118,-168,cs)
);
},
{
closed = 1;
nodes = (
(59,-1,o),
(43,16,o),
(43,36,cs),
(43,56,o),
(59,73,o),
(79,73,cs),
(100,73,o),
(116,56,o),
(116,36,cs),
(116,16,o),
(100,-1,o),
(79,-1,cs)
);
},
{
closed = 1;
nodes = (
(173,608,o),
(115,550,o),
(115,479,cs),
(115,446,ls),
(115,405,o),
(144,370,o),
(183,361,c),
(157,352,o),
(116,328,o),
(116,268,cs),
(116,61,l),
(108,72,o),
(95,80,o),
(79,80,cs),
(55,80,o),
(35,60,o),
(35,36,cs),
(35,12,o),
(55,-8,o),
(79,-8,cs),
(104,-8,o),
(124,12,o),
(124,36,cs),
(124,268,ls),
(124,346,o),
(197,359,o),
(204,359,c),
(204,366,l),
(203,366,ls),
(159,366,o),
(123,402,o),
(123,446,cs),
(123,479,ls),
(123,546,o),
(177,601,o),
(245,601,cs),
(312,601,o),
(366,546,o),
(366,479,cs),
(366,-190,l),
(364,-187,o),
(359,-181,o),
(355,-174,cs),
(330,-137,o),
(304,-101,o),
(283,-101,cs),
(265,-101,o),
(260,-115,o),
(254,-128,cs),
(248,-144,o),
(241,-161,o),
(212,-161,cs),
(186,-161,o),
(165,-152,o),
(147,-140,c),
(155,-125,o),
(160,-109,o),
(164,-97,cs),
(170,-78,l),
(163,-76,l),
(158,-94,ls),
(156,-101,o),
(148,-124,o),
(141,-136,c),
(123,-124,ls),
(106,-112,o),
(97,-105,o),
(81,-105,cs),
(57,-105,o),
(37,-125,o),
(37,-149,cs),
(37,-162,o),
(44,-175,o),
(54,-183,cs),
(65,-192,o),
(77,-194,o),
(90,-192,cs),
(101,-190,o),
(111,-184,o),
(122,-173,cs),
(130,-165,o),
(137,-156,o),
(143,-147,c),
(161,-158,o),
(184,-169,o),
(212,-169,cs),
(246,-169,o),
(255,-148,o),
(261,-131,cs),
(267,-116,o),
(271,-108,o),
(283,-108,cs),
(301,-108,o),
(332,-154,o),
(349,-178,cs),
(357,-191,o),
(361,-197,o),
(364,-199,cs),
(369,-203,o),
(374,-200,o),
(374,-194,cs),
(374,479,ls),
(374,550,o),
(316,608,o),
(245,608,cs)
);
}
);
width = 409;
}
);
unicode = 3599;
},
{
glyphname = "toPatak-thai.short";
kernLeft = LO;
kernRight = XALL;
lastChange = "2022-11-25 18:34:06 +0000";
layers = (
{
anchors = (
{
name = bottom;
pos = (374,-136);
}
);
layerId = m01;
shapes = (
{
closed = 1;
nodes = (
(111,-107,o),
(100,-115,o),
(88,-117,cs),
(77,-119,o),
(66,-116,o),
(57,-108,cs),
(49,-101,o),
(44,-91,o),
(44,-81,cs),
(44,-61,o),
(61,-44,o),
(81,-44,cs),
(95,-44,o),
(106,-52,o),
(122,-63,cs),
(127,-66,o),
(134,-71,o),
(138,-74,c),
(133,-84,o),
(126,-92,o),
(118,-100,cs)
);
},
{
closed = 1;
nodes = (
(59,-1,o),
(43,16,o),
(43,36,cs),
(43,56,o),
(59,73,o),
(79,73,cs),
(100,73,o),
(116,56,o),
(116,36,cs),
(116,16,o),
(100,-1,o),
(79,-1,cs)
);
},
{
closed = 1;
nodes = (
(173,608,o),
(115,550,o),
(115,479,cs),
(115,446,ls),
(115,405,o),
(144,370,o),
(183,361,c),
(157,352,o),
(116,328,o),
(116,268,cs),
(116,61,l),
(108,72,o),
(95,80,o),
(79,80,cs),
(55,80,o),
(35,60,o),
(35,36,cs),
(35,12,o),
(55,-8,o),
(79,-8,cs),
(104,-8,o),
(124,12,o),
(124,36,cs),
(124,268,ls),
(124,346,o),
(197,359,o),
(204,359,c),
(204,366,l),
(203,366,ls),
(159,366,o),
(123,402,o),
(123,446,cs),
(123,479,ls),
(123,546,o),
(177,601,o),
(245,601,cs),
(312,601,o),
(366,546,o),
(366,479,cs),
(366,-122,l),
(364,-119,o),
(359,-113,o),
(355,-106,cs),
(330,-69,o),
(304,-33,o),
(283,-33,cs),
(265,-33,o),
(260,-47,o),
(254,-60,cs),
(248,-76,o),
(241,-93,o),
(212,-93,cs),
(186,-93,o),
(165,-84,o),
(147,-72,c),
(155,-57,o),
(160,-41,o),
(164,-29,cs),
(170,-10,l),
(163,-8,l),
(158,-26,ls),
(156,-33,o),
(148,-56,o),
(141,-68,c),
(123,-56,ls),
(106,-44,o),
(97,-37,o),
(81,-37,cs),
(57,-37,o),
(37,-57,o),
(37,-81,cs),
(37,-94,o),
(44,-107,o),
(54,-115,cs),
(65,-124,o),
(77,-126,o),
(90,-124,cs),
(101,-122,o),
(111,-116,o),
(122,-105,cs),
(130,-97,o),
(137,-88,o),
(143,-79,c),
(161,-90,o),
(184,-101,o),
(212,-101,cs),
(246,-101,o),
(255,-80,o),
(261,-63,cs),
(267,-48,o),
(271,-40,o),
(283,-40,cs),
(301,-40,o),
(332,-86,o),
(349,-110,cs),
(357,-123,o),
(361,-129,o),
(364,-131,cs),
(369,-135,o),
(374,-132,o),
(374,-126,cs),
(374,479,ls),
(374,550,o),
(316,608,o),
(245,608,cs)
);
}
);
width = 409;
}
);
},
{
glyphname = "thoThan-thai";
kernLeft = XALL;
kernRight = XALL;
lastChange = "2022-11-25 18:34:06 +0000";
layers = (
{
anchors = (
{
name = bottom;
pos = (312,-213);
},
{
name = top;
pos = (312,600);
}
);
layerId = m01;
shapes = (
{
closed = 1;
nodes = (
(185,216,o),
(169,200,o),
(148,200,cs),
(128,200,o),
(112,216,o),
(112,236,cs),
(112,257,o),
(128,273,o),
(148,273,cs),
(168,273,o),
(185,257,o),
(185,236,cs)
);
},
{
closed = 1;
nodes = (
(182,400,ls),
(250,400,o),
(306,345,o),
(306,276,cs),
(306,24,ls),
(306,15,o),
(299,8,o),
(290,8,cs),
(283,8,o),
(277,12,o),
(275,18,cs),
(191,249,ls),
(185,267,o),
(168,281,o),
(148,281,cs),
(124,281,o),
(104,261,o),
(104,236,cs),
(104,212,o),
(124,192,o),
(148,192,cs),
(169,192,o),
(187,206,o),
(191,226,c),
(268,16,ls),
(272,6,o),
(280,0,o),
(290,0,cs),
(303,0,o),
(313,11,o),
(313,24,cs),
(313,276,ls),
(313,349,o),
(255,408,o),
(182,408,cs),
(129,408,ls),
(90,408,o),
(58,439,o),
(58,479,cs),
(58,546,o),
(113,601,o),
(180,601,cs),
(248,601,o),
(302,546,o),
(302,479,c),
(310,479,l),
(310,550,o),
(252,608,o),
(180,608,cs),
(109,608,o),
(51,550,o),
(51,479,cs),
(51,435,o),
(86,400,o),
(129,400,cs)
);
},
{
closed = 1;
nodes = (
(264,-113,o),
(251,-100,o),
(251,-84,cs),
(251,-69,o),
(263,-56,o),
(278,-56,cs),
(295,-56,o),
(307,-68,o),
(307,-83,cs),
(307,-101,o),
(296,-112,o),
(280,-113,cs)
);
},
{
closed = 1;
nodes = (
(99,-183,o),
(88,-192,o),
(74,-192,cs),
(66,-192,o),
(59,-189,o),
(53,-184,cs),
(46,-178,o),
(42,-169,o),
(42,-160,cs),
(42,-146,o),
(56,-130,o),
(70,-130,cs),
(87,-130,o),
(97,-141,o),
(108,-149,cs),
(120,-158,l),
(116,-165,o),
(111,-171,o),
(106,-176,cs)
);
},
{
closed = 1;
nodes = (
(315,-64,o),
(299,-48,o),
(280,-48,cs),
(260,-48,o),
(243,-64,o),
(243,-84,cs),
(243,-104,o),
(259,-120,o),
(279,-120,cs),
(292,-120,o),
(301,-115,o),
(308,-107,c),
(308,-164,ls),
(308,-181,o),
(293,-190,o),
(279,-191,cs),
(260,-191,o),
(249,-175,o),
(238,-160,cs),
(234,-154,o),
(230,-149,o),
(226,-144,cs),
(222,-140,o),
(217,-134,o),
(209,-134,cs),
(190,-134,o),
(194,-172,o),
(168,-172,cs),
(157,-172,o),
(141,-164,o),
(130,-156,c),
(139,-142,o),
(145,-126,o),
(148,-114,cs),
(152,-98,l),
(145,-96,l),
(144,-101,o),
(142,-107,o),
(140,-112,cs),
(137,-123,o),
(132,-138,o),
(124,-152,c),
(120,-149,o),
(117,-146,o),
(114,-144,cs),
(101,-133,o),
(88,-123,o),
(72,-123,cs),
(53,-123,o),
(35,-142,o),
(35,-160,cs),
(35,-172,o),
(40,-182,o),
(49,-190,cs),
(56,-196,o),
(65,-199,o),
(75,-199,cs),
(89,-199,o),
(100,-192,o),
(111,-182,cs),
(117,-177,o),
(122,-169,o),
(126,-163,c),
(158,-184,o),
(184,-189,o),
(199,-154,cs),
(201,-149,o),
(205,-142,o),
(209,-142,cs),
(218,-142,o),
(226,-157,o),
(232,-164,cs),
(243,-180,o),
(255,-198,o),
(277,-198,cs),
(299,-198,o),
(315,-184,o),
(315,-164,cs),
(315,-83,ls)
);
}
);
width = 350;
}
);
unicode = 3600;
},
{
glyphname = "thoThan-thai.less";
kernLeft = XALL;
kernRight = XALL;
lastChange = "2022-11-25 18:34:06 +0000";
layers = (
{
anchors = (
{
name = bottom;
pos = (294,0);
},
{
name = top;
pos = (294,600);
}
);
layerId = m01;
shapes = (
{
closed = 1;
nodes = (
(169,216,o),
(153,200,o),
(132,200,cs),
(112,200,o),
(96,216,o),
(96,236,cs),
(96,257,o),
(112,273,o),
(132,273,cs),
(152,273,o),
(169,257,o),
(169,236,cs)
);
},
{
closed = 1;
nodes = (
(166,400,ls),
(234,400,o),
(290,345,o),
(290,276,cs),
(290,24,ls),
(290,15,o),
(283,8,o),
(274,8,cs),
(267,8,o),
(261,12,o),
(259,18,cs),
(175,249,ls),
(169,267,o),
(152,281,o),
(132,281,cs),
(108,281,o),
(88,261,o),
(88,236,cs),
(88,212,o),
(108,192,o),
(132,192,cs),
(153,192,o),
(171,206,o),
(175,226,c),
(252,16,ls),
(255,6,o),
(264,0,o),
(274,0,cs),
(287,0,o),
(297,11,o),
(297,24,cs),
(297,276,ls),
(297,349,o),
(239,408,o),
(166,408,cs),
(113,408,ls),
(74,408,o),
(42,439,o),
(42,479,cs),
(42,546,o),
(97,601,o),
(164,601,cs),
(232,601,o),
(286,546,o),
(286,479,c),
(294,479,l),
(294,550,o),
(236,608,o),
(164,608,cs),
(93,608,o),
(35,550,o),
(35,479,cs),
(35,435,o),
(70,400,o),
(113,400,cs)
);
}
);
width = 333;
}
);
},
{
glyphname = "thoNangmontho-thai";
kernRight = RL;
lastChange = "2022-11-25 18:34:06 +0000";
layers = (
{
anchors = (
{
name = bottom;
pos = (450,0);
},
{
name = top;
pos = (450,600);
}
);
layerId = m01;
shapes = (
{
closed = 1;
nodes = (
(237,0,l),
(237,8,l),
(232,8,ls),
(216,8,o),
(203,20,o),
(203,36,cs),
(203,400,l),
(247,529,ls),
(260,567,o),
(293,595,o),
(332,600,cs),
(394,607,o),
(446,559,o),
(446,499,cs),
(446,8,l),
(413,8,l),
(413,0,l),
(487,0,l),
(487,8,l),
(482,8,ls),
(467,8,o),
(454,20,o),
(454,36,cs),
(454,496,ls),
(454,556,o),
(415,599,o),
(361,607,cs),
(308,615,o),
(258,584,o),
(241,534,cs),
(203,423,l),
(203,559,l),
(202,572,o),
(196,583,o),
(187,590,cs),
(180,596,o),
(172,599,o),
(164,600,cs),
(151,601,o),
(139,597,o),
(130,589,cs),
(125,585,o),
(122,579,o),
(119,574,c),
(112,590,o),
(95,602,o),
(75,600,cs),
(52,598,o),
(35,577,o),
(35,554,cs),
(35,496,ls),
(35,471,o),
(54,450,o),
(78,449,cs),
(106,449,o),
(128,473,o),
(123,502,cs),
(120,520,o),
(105,534,o),
(87,537,cs),
(69,540,o),
(52,532,o),
(43,518,c),
(43,555,ls),
(43,573,o),
(54,588,o),
(71,592,cs),
(95,597,o),
(115,579,o),
(115,556,c),
(123,556,l),
(123,566,o),
(127,576,o),
(135,583,cs),
(143,590,o),
(153,593,o),
(163,592,cs),
(178,592,o),
(196,577,o),
(196,556,cs),
(196,8,l),
(162,8,l),
(162,0,l)
);
},
{
closed = 1;
nodes = (
(59,457,o),
(43,473,o),
(43,494,cs),
(43,514,o),
(59,530,o),
(79,530,cs),
(100,530,o),
(116,514,o),
(116,494,cs),
(116,473,o),
(100,457,o),
(79,457,cs)
);
}
);
width = 522;
}
);
unicode = 3601;
},
{
glyphname = "thoPhuthao-thai";
kernLeft = XALL;
kernRight = RL;
lastChange = "2022-12-16 15:55:35 +0000";
layers = (
{
anchors = (
{
name = bottom;
pos = (540,-8);
},
{
name = top;
pos = (540,600);
}
);
layerId = m01;
shapes = (
{
closed = 1;
nodes = (
(325,16,o),
(308,0,o),
(288,0,cs),
(268,0,o),
(251,16,o),
(251,36,cs),
(251,57,o),
(268,73,o),
(288,73,cs),
(308,73,o),
(325,57,o),
(325,36,cs)
);
},
{
closed = 1;
nodes = (
(144,369,o),
(127,385,o),
(127,405,cs),
(127,426,o),
(144,442,o),
(164,442,cs),
(184,442,o),
(201,426,o),
(201,405,cs),
(201,385,o),
(184,369,o),
(164,369,cs)
);
},
{
closed = 1;
nodes = (
(503,599,l),
(503,592,l),
(536,592,l),
(536,4,l),
(395,62,o),
(318,78,o),
(293,80,c),
(293,534,ls),
(293,570,o),
(263,600,o),
(227,600,cs),
(198,600,o),
(173,581,o),
(164,555,c),
(155,581,o),
(130,600,o),
(101,600,cs),
(65,600,o),
(35,570,o),
(35,534,cs),
(35,14,ls),
(35,2,o),
(45,-7,o),
(57,-7,cs),
(60,-7,ls),
(69,-7,o),
(77,-1,o),
(80,7,cs),
(202,383,ls),
(203,385,o),
(208,397,o),
(208,407,cs),
(208,408,o),
(208,409,o),
(208,410,cs),
(206,432,o),
(186,450,o),
(162,450,cs),
(144,450,o),
(120,433,o),
(120,405,cs),
(120,380,o),
(141,361,o),
(164,361,cs),
(174,361,o),
(183,365,o),
(190,370,c),
(73,10,ls),
(71,4,o),
(65,0,o),
(59,0,cs),
(57,0,ls),
(49,0,o),
(43,6,o),
(43,14,cs),
(42,534,ls),
(42,566,o),
(69,592,o),
(101,592,cs),
(134,592,o),
(160,566,o),
(160,534,c),
(168,534,l),
(168,566,o),
(194,592,o),
(227,592,cs),
(259,592,o),
(286,566,o),
(286,534,cs),
(285,80,l),
(262,79,o),
(244,60,o),
(244,36,cs),
(244,12,o),
(263,-8,o),
(288,-8,cs),
(312,-8,o),
(332,12,o),
(332,36,cs),
(332,49,o),
(327,60,o),
(318,69,c),
(353,62,o),
(421,43,o),
(534,-4,cs),
(540,-6,o),
(544,-7,o),
(544,1,cs),
(544,567,l),
(545,581,o),
(557,592,o),
(572,592,cs),
(577,592,l),
(577,599,l)
);
}
);
width = 612;
}
);
unicode = 3602;
},
{
glyphname = "noNen-thai";
kernLeft = XALL;
kernRight = RO;
lastChange = "2022-11-25 18:34:06 +0000";
layers = (
{
anchors = (
{
name = bottom;
pos = (542,1);
},
{
name = top;
pos = (583,600);
}
);
layerId = m01;
shapes = (
{
closed = 1;
nodes = (
(522,1,o),
(505,17,o),
(505,37,cs),
(505,58,o),
(522,74,o),
(542,74,cs),
(562,74,o),
(579,58,o),
(579,37,cs),
(579,17,o),
(562,1,o),
(542,1,cs)
);
},
{
closed = 1;
nodes = (
(100,73,o),
(116,57,o),
(116,36,cs),
(116,16,o),
(100,0,o),
(80,0,cs),
(59,0,o),
(43,16,o),
(43,36,cs),
(43,57,o),
(59,73,o),
(80,73,cs)
);
},
{
closed = 1;
nodes = (
(545,568,l),
(546,582,o),
(558,593,o),
(573,593,cs),
(578,593,l),
(578,600,l),
(504,600,l),
(504,593,l),
(537,593,l),
(537,81,l),
(512,79,o),
(434,63,o),
(293,5,c),
(293,477,ls),
(293,549,o),
(240,606,o),
(170,609,cs),
(96,613,o),
(35,554,o),
(35,480,cs),
(35,446,ls),
(35,405,o),
(64,370,o),
(102,361,c),
(76,352,o),
(35,328,o),
(35,268,cs),
(35,38,ls),
(35,14,o),
(54,-7,o),
(79,-8,cs),
(106,-9,o),
(128,16,o),
(123,45,cs),
(120,63,o),
(105,77,o),
(87,80,cs),
(69,83,o),
(52,75,o),
(43,61,c),
(43,268,ls),
(43,349,o),
(121,359,o),
(124,359,c),
(124,367,l),
(122,367,ls),
(78,367,o),
(42,402,o),
(42,446,cs),
(42,477,ls),
(42,540,o),
(89,596,o),
(152,601,cs),
(224,608,o),
(285,551,o),
(285,480,cs),
(286,2,ls),
(286,-4,o),
(290,-5,o),
(295,-3,cs),
(409,44,o),
(477,63,o),
(512,70,c),
(503,61,o),
(498,50,o),
(498,37,cs),
(498,13,o),
(517,-7,o),
(542,-7,cs),
(566,-7,o),
(586,13,o),
(586,37,cs),
(586,61,o),
(567,80,o),
(544,81,c)
);
}
);
width = 621;
}
);
unicode = 3603;
},
{
glyphname = "doDek-thai";
kernLeft = XALL;
kernRight = RL;
lastChange = "2022-12-14 12:00:05 +0000";
layers = (
{
anchors = (
{
name = bottom;
pos = (290,0);
},
{
name = top;
pos = (277,600);
}
);
layerId = m01;
shapes = (
{
closed = 1;
nodes = (
(144,367,o),
(128,383,o),
(128,404,cs),
(128,424,o),
(144,441,o),
(165,441,cs),
(185,441,o),
(201,424,o),
(201,404,cs),
(201,383,o),
(185,367,o),
(165,367,cs)
);
},
{
closed = 1;
nodes = (
(293,474,ls),
(293,545,o),
(237,607,o),
(166,607,cs),
(94,607,o),
(35,549,o),
(35,478,cs),
(36,13,ls),
(36,2,o),
(45,-8,o),
(57,-8,cs),
(60,-8,ls),
(69,-8,o),
(77,-2,o),
(80,7,c),
(204,384,l),
(208,396,o),
(210,409,o),
(206,419,cs),
(200,436,o),
(184,448,o),
(164,448,cs),
(140,448,o),
(120,429,o),
(120,404,cs),
(120,380,o),
(139,360,o),
(166,360,cs),
(175,360,o),
(184,363,o),
(191,368,c),
(73,9,ls),
(71,3,o),
(66,0,o),
(60,0,cs),
(57,0,ls),
(50,0,o),
(43,6,o),
(43,13,cs),
(43,478,ls),
(43,545,o),
(97,600,o),
(164,600,cs),
(233,600,o),
(286,541,o),
(286,474,cs),
(286,8,l),
(252,8,l),
(252,0,l),
(327,0,l),
(327,8,l),
(322,8,ls),
(306,8,o),
(293,20,o),
(293,36,cs)
);
}
);
width = 362;
}
);
unicode = 3604;
},
{
glyphname = "toTao-thai";
kernLeft = XALL;
kernRight = RL;
lastChange = "2022-12-14 12:05:46 +0000";
layers = (
{
anchors = (
{
name = bottom;
pos = (290,0);
},
{
name = top;
pos = (286,600);
}
);
layerId = m01;
shapes = (
{
closed = 1;
nodes = (
(128,424,o),
(144,441,o),
(165,441,cs),
(185,441,o),
(201,424,o),
(201,404,cs),
(201,384,o),
(185,367,o),
(165,367,cs),
(144,367,o),
(128,384,o),
(128,404,cs)
);
},
{
closed = 1;
nodes = (
(327,8,l),
(322,8,ls),
(306,8,o),
(293,20,o),
(293,36,cs),
(293,275,l),
(294,534,ls),
(294,570,o),
(264,600,o),
(227,600,cs),
(198,600,o),
(174,582,o),
(165,556,c),
(155,582,o),
(131,600,o),
(102,600,cs),
(65,600,o),
(35,570,o),
(35,534,cs),
(36,228,l),
(36,13,ls),
(36,2,o),
(45,-8,o),
(57,-8,cs),
(60,-8,ls),
(69,-8,o),
(78,-2,o),
(81,7,c),
(206,389,l),
(207,394,o),
(208,400,o),
(208,406,cs),
(208,424,o),
(195,443,o),
(175,447,cs),
(171,448,o),
(163,448,o),
(163,448,cs),
(137,448,o),
(116,423,o),
(121,397,cs),
(123,376,o),
(144,359,o),
(165,359,cs),
(175,359,o),
(183,363,o),
(191,368,c),
(73,9,ls),
(71,3,o),
(66,0,o),
(60,0,cs),
(57,0,ls),
(50,0,o),
(43,6,o),
(43,13,cs),
(43,534,ls),
(43,566,o),
(69,593,o),
(102,593,cs),
(134,593,o),
(161,566,o),
(161,534,c),
(168,534,l),
(168,566,o),
(195,593,o),
(227,593,cs),
(260,593,o),
(286,566,o),
(286,534,cs),
(286,8,l),
(252,8,l),
(252,0,l),
(327,0,l)
);
}
);
width = 362;
}
);
unicode = 3605;
},
{
glyphname = "thoThung-thai";
kernLeft = XALL;
kernRight = RL;
lastChange = "2022-11-25 18:34:06 +0000";
layers = (
{
anchors = (
{
name = bottom;
pos = (290,0);
},
{
name = top;
pos = (290,600);
}
);
layerId = m01;
shapes = (
{
closed = 1;
nodes = (
(100,74,o),
(117,58,o),
(117,37,cs),
(117,17,o),
(100,1,o),
(80,1,cs),
(60,1,o),
(43,17,o),
(43,37,cs),
(43,58,o),
(60,74,o),
(80,74,cs)
);
},
{
closed = 1;
nodes = (
(293,478,ls),
(293,552,o),
(232,611,o),
(158,607,cs),
(88,604,o),
(35,544,o),
(35,475,cs),
(35,446,ls),
(35,405,o),
(64,370,o),
(102,361,c),
(77,352,o),
(36,328,o),
(36,268,cs),
(36,39,ls),
(36,15,o),
(54,-6,o),
(79,-7,cs),
(106,-8,o),
(129,17,o),
(123,46,cs),
(120,64,o),
(105,78,o),
(87,81,cs),
(69,84,o),
(52,76,o),
(43,62,c),
(43,268,ls),
(43,349,o),
(121,359,o),
(124,359,c),
(124,367,l),
(122,367,ls),
(78,367,o),
(42,402,o),
(42,446,cs),
(42,475,ls),
(42,538,o),
(89,594,o),
(152,599,cs),
(225,606,o),
(286,549,o),
(286,478,cs),
(286,7,l),
(252,7,l),
(252,0,l),
(327,0,l),
(327,7,l),
(322,7,ls),
(306,7,o),
(293,20,o),
(293,36,cs)
);
}
);
width = 362;
}
);
unicode = 3606;
},
{
glyphname = "thoThahan-thai";
kernLeft = LO;
kernRight = RL;
lastChange = "2022-11-25 18:34:06 +0000";
layers = (
{
anchors = (
{
name = bottom;
pos = (371,0);
},
{
name = top;
pos = (371,600);
}
);
layerId = m01;
shapes = (
{
closed = 1;
nodes = (
(59,518,o),
(43,534,o),
(43,555,cs),
(43,575,o),
(59,591,o),
(80,591,cs),
(100,591,o),
(116,575,o),
(116,555,cs),
(116,534,o),
(100,518,o),
(80,518,cs)
);
},
{
closed = 1;
nodes = (
(375,496,ls),
(375,550,o),
(336,599,o),
(282,607,cs),
(229,615,o),
(179,584,o),
(162,534,cs),
(124,423,l),
(124,556,ls),
(124,582,o),
(100,602,o),
(74,599,cs),
(55,596,o),
(40,582,o),
(36,564,cs),
(30,536,o),
(52,510,o),
(80,510,cs),
(95,510,o),
(108,518,o),
(116,530,c),
(116,8,l),
(83,8,l),
(83,0,l),
(157,0,l),
(157,8,l),
(152,8,ls),
(137,8,o),
(124,20,o),
(124,36,cs),
(124,400,l),
(168,529,ls),
(181,567,o),
(213,595,o),
(253,600,cs),
(314,607,o),
(367,559,o),
(367,499,cs),
(367,8,l),
(334,8,l),
(334,0,l),
(408,0,l),
(408,8,l),
(403,8,ls),
(387,8,o),
(375,20,o),
(375,36,cs)
);
}
);
width = 443;
}
);
unicode = 3607;
},
{
glyphname = "thoThong-thai";
kernLeft = LL;
kernRight = XALL;
lastChange = "2022-12-14 12:06:01 +0000";
layers = (
{
anchors = (
{
name = bottom;
pos = (306,0);
},
{
name = top;
pos = (307,600);
}
);
layerId = m01;
shapes = (
{
closed = 1;
nodes = (
(131,407,ls),
(93,407,o),
(61,437,o),
(60,475,cs),
(58,544,o),
(114,600,o),
(182,600,cs),
(249,600,o),
(304,545,o),
(304,478,c),
(311,478,l),
(311,549,o),
(253,608,o),
(182,608,cs),
(111,608,o),
(53,551,o),
(52,480,cs),
(52,436,o),
(88,400,o),
(132,400,cs),
(184,400,ls),
(252,400,o),
(308,344,o),
(308,276,cs),
(308,125,ls),
(308,61,o),
(260,5,o),
(196,-2,cs),
(122,-8,o),
(60,50,o),
(60,122,cs),
(60,270,ls),
(60,286,o),
(73,299,o),
(88,299,cs),
(95,299,l),
(95,306,l),
(20,306,l),
(20,299,l),
(52,299,l),
(52,126,ls),
(52,55,o),
(107,-6,o),
(177,-9,cs),
(253,-13,o),
(315,47,o),
(315,122,cs),
(315,276,ls),
(315,348,o),
(256,407,o),
(184,407,cs)
);
}
);
width = 335;
}
);
unicode = 3608;
},
{
glyphname = "noNu-thai";
kernLeft = LOU;
kernRight = RO;
lastChange = "2022-11-25 18:34:06 +0000";
layers = (
{
anchors = (
{
name = bottom;
pos = (377,-8);
},
{
name = top;
pos = (376,600);
}
);
layerId = m01;
shapes = (
{
closed = 1;
nodes = (
(352,0,o),
(336,16,o),
(336,36,cs),
(336,57,o),
(352,73,o),
(372,73,cs),
(393,73,o),
(409,57,o),
(409,36,cs),
(409,16,o),
(393,0,o),
(372,0,cs)
);
},
{
closed = 1;
nodes = (
(59,519,o),
(43,535,o),
(43,556,cs),
(43,576,o),
(59,593,o),
(80,593,cs),
(100,593,o),
(116,576,o),
(116,556,cs),
(116,535,o),
(100,519,o),
(80,519,cs)
);
},
{
closed = 1;
nodes = (
(375,568,l),
(377,582,o),
(389,593,o),
(404,593,cs),
(409,593,l),
(409,600,l),
(334,600,l),
(334,593,l),
(368,593,l),
(367,80,l),
(343,78,o),
(265,62,o),
(124,4,c),
(124,556,ls),
(124,580,o),
(104,600,o),
(80,600,cs),
(55,600,o),
(35,580,o),
(35,556,cs),
(35,531,o),
(55,511,o),
(80,511,cs),
(95,511,o),
(108,519,o),
(116,531,c),
(116,1,ls),
(116,-5,o),
(122,-6,o),
(126,-4,cs),
(239,43,o),
(307,62,o),
(342,69,c),
(334,60,o),
(328,49,o),
(328,36,cs),
(328,12,o),
(348,-8,o),
(372,-8,cs),
(397,-8,o),
(417,12,o),
(417,36,cs),
(417,60,o),
(398,79,o),
(375,80,c)
);
}
);
width = 452;
}
);
unicode = 3609;
},
{
glyphname = "boBaimai-thai";
kernLeft = LOU;
kernRight = RL;
lastChange = "2022-11-25 18:34:06 +0000";
layers = (
{
anchors = (
{
name = bottom;
pos = (368,0);
},
{
name = top;
pos = (368,600);
}
);
layerId = m01;
shapes = (
{
closed = 1;
nodes = (
(58,519,o),
(42,535,o),
(42,555,cs),
(42,576,o),
(58,592,o),
(79,592,cs),
(99,592,o),
(116,576,o),
(116,555,cs),
(116,535,o),
(99,519,o),
(79,519,cs)
);
},
{
closed = 1;
nodes = (
(332,600,l),
(332,592,l),
(366,592,l),
(364,119,ls),
(364,53,o),
(310,0,o),
(244,0,cs),
(178,0,o),
(125,53,o),
(125,119,cs),
(123,555,ls),
(123,583,o),
(98,605,o),
(69,599,cs),
(53,595,o),
(39,582,o),
(36,565,cs),
(29,536,o),
(51,511,o),
(79,511,cs),
(94,511,o),
(108,519,o),
(116,531,c),
(117,119,ls),
(117,49,o),
(174,-8,o),
(244,-8,cs),
(314,-8,o),
(371,49,o),
(371,119,cs),
(373,564,ls),
(373,580,o),
(386,592,o),
(401,592,cs),
(406,592,l),
(406,600,l)
);
}
);
width = 441;
}
);
unicode = 3610;
},
{
glyphname = "poPla-thai";
kernLeft = LOU;
kernRight = RLT;
lastChange = "2022-12-13 16:20:53 +0000";
layers = (
{
anchors = (
{
name = bottom;
pos = (368,0);
},
{
name = top;
pos = (293,607);
}
);
layerId = m01;
shapes = (
{
closed = 1;
nodes = (
(58,519,o),
(42,535,o),
(42,555,cs),
(42,576,o),
(58,592,o),
(79,592,cs),
(99,592,o),
(116,576,o),
(116,555,cs),
(116,535,o),
(99,519,o),
(79,519,cs)
);
},
{
closed = 1;
nodes = (
(332,750,l),
(332,742,l),
(366,742,l),
(364,119,ls),
(364,53,o),
(310,0,o),
(244,0,cs),
(178,0,o),
(125,53,o),
(125,119,cs),
(123,555,ls),
(123,583,o),
(98,605,o),
(69,599,cs),
(53,595,o),
(39,582,o),
(36,565,cs),
(29,536,o),
(51,511,o),
(79,511,cs),
(94,511,o),
(108,519,o),
(116,531,c),
(117,119,ls),
(117,49,o),
(174,-8,o),
(244,-8,cs),
(314,-8,o),
(371,49,o),
(371,119,cs),
(373,714,ls),
(373,730,o),
(386,742,o),
(401,742,cs),
(406,742,l),
(406,750,l)
);
}
);
width = 441;
}
);
unicode = 3611;
},
{
glyphname = "phoPhung-thai";
kernLeft = XALL;
kernRight = RL;
lastChange = "2022-11-25 18:34:06 +0000";
layers = (
{
anchors = (
{
name = bottom;
pos = (289,0);
},
{
name = top;
pos = (289,600);
}
);
layerId = m01;
shapes = (
{
closed = 1;
nodes = (
(100,592,o),
(116,576,o),
(116,556,cs),
(116,535,o),
(100,519,o),
(79,519,cs),
(59,519,o),
(43,535,o),
(43,556,cs),
(43,576,o),
(59,592,o),
(79,592,cs)
);
},
{
closed = 1;
nodes = (
(45,-7,o),
(55,-7,cs),
(61,-7,o),
(67,-4,o),
(71,5,cs),
(143,178,ls),
(150,195,o),
(178,195,o),
(185,178,cs),
(256,5,ls),
(260,-4,o),
(266,-8,o),
(273,-8,cs),
(283,-8,o),
(293,-2,o),
(293,10,cs),
(293,564,ls),
(293,580,o),
(305,593,o),
(321,593,cs),
(326,593,l),
(326,600,l),
(252,600,l),
(252,593,l),
(285,593,l),
(285,12,ls),
(285,5,o),
(279,1,o),
(273,1,cs),
(269,1,o),
(265,3,o),
(263,7,cs),
(191,182,ls),
(182,204,o),
(146,205,o),
(136,181,cs),
(64,7,ls),
(62,3,o),
(58,1,o),
(54,1,cs),
(49,1,o),
(43,5,o),
(43,12,cs),
(43,531,l),
(51,519,o),
(64,511,o),
(79,511,cs),
(104,511,o),
(124,530,o),
(124,555,cs),
(124,580,o),
(104,600,o),
(80,600,cs),
(55,600,o),
(35,579,o),
(35,554,cs),
(35,12,ls),
(35,0,o)
);
}
);
width = 361;
}
);
unicode = 3612;
},
{
glyphname = "foFa-thai";
kernLeft = XALL;
kernRight = RLT;
lastChange = "2022-12-14 12:06:28 +0000";
layers = (
{
anchors = (
{
name = bottom;
pos = (289,0);
},
{
name = top;
pos = (223,600);
}
);
layerId = m01;
shapes = (
{
closed = 1;
nodes = (
(100,592,o),
(116,576,o),
(116,556,cs),
(116,535,o),
(100,519,o),
(79,519,cs),
(59,519,o),
(43,535,o),
(43,556,cs),
(43,576,o),
(59,592,o),
(79,592,cs)
);
},
{
closed = 1;
nodes = (
(45,-7,o),
(55,-7,cs),
(61,-7,o),
(67,-4,o),
(71,5,cs),
(143,178,ls),
(150,195,o),
(178,195,o),
(185,178,cs),
(256,5,ls),
(260,-4,o),
(266,-8,o),
(273,-8,cs),
(283,-8,o),
(293,-2,o),
(293,10,cs),
(293,714,ls),
(293,730,o),
(305,743,o),
(321,743,cs),
(326,743,l),
(326,750,l),
(252,750,l),
(252,743,l),
(285,743,l),
(285,12,ls),
(285,5,o),
(279,1,o),
(273,1,cs),
(269,1,o),
(265,3,o),
(263,7,cs),
(191,182,ls),
(182,204,o),
(146,205,o),
(136,181,cs),
(64,7,ls),
(62,3,o),
(58,1,o),
(54,1,cs),
(49,1,o),
(43,5,o),
(43,12,cs),
(43,531,l),
(51,519,o),
(64,511,o),
(79,511,cs),
(104,511,o),
(124,530,o),
(124,555,cs),
(124,580,o),
(104,600,o),
(80,600,cs),
(55,600,o),
(35,579,o),
(35,554,cs),
(35,12,ls),
(35,0,o)
);
}
);
width = 361;
}
);
unicode = 3613;
},
{
glyphname = "phoPhan-thai";
kernLeft = LOU;
kernRight = RL;
lastChange = "2022-11-25 18:34:06 +0000";
layers = (
{
anchors = (
{
name = bottom;
pos = (370,0);
},
{
name = top;
pos = (370,600);
}
);
layerId = m01;
shapes = (
{
closed = 1;
nodes = (
(59,518,o),
(43,534,o),
(43,555,cs),
(43,575,o),
(59,591,o),
(80,591,cs),
(100,591,o),
(116,575,o),
(116,555,cs),
(116,534,o),
(100,518,o),
(80,518,cs)
);
},
{
closed = 1;
nodes = (
(333,599,l),
(333,592,l),
(366,592,l),
(366,15,ls),
(366,7,o),
(359,-1,o),
(351,-1,cs),
(343,-1,o),
(336,5,o),
(335,13,cs),
(266,478,ls),
(264,491,o),
(254,497,o),
(245,497,cs),
(236,497,o),
(226,491,o),
(224,478,cs),
(155,13,ls),
(154,5,o),
(147,-1,o),
(140,-1,cs),
(131,-1,o),
(124,7,o),
(124,15,cs),
(124,553,ls),
(124,577,o),
(105,598,o),
(81,599,cs),
(53,600,o),
(31,575,o),
(36,546,cs),
(39,528,o),
(54,514,o),
(72,511,cs),
(91,508,o),
(107,516,o),
(116,530,c),
(116,16,ls),
(116,6,o),
(122,-3,o),
(132,-7,cs),
(146,-12,o),
(161,-2,o),
(163,12,cs),
(232,477,ls),
(233,486,o),
(240,489,o),
(245,489,cs),
(251,489,o),
(257,486,o),
(259,477,cs),
(327,12,ls),
(330,-2,o),
(344,-12,o),
(358,-7,cs),
(368,-3,o),
(374,6,o),
(374,16,cs),
(374,563,ls),
(374,579,o),
(387,592,o),
(402,592,cs),
(407,592,l),
(407,599,l)
);
}
);
width = 442;
}
);
unicode = 3614;
},
{
glyphname = "foFan-thai";
kernLeft = LOU;
kernRight = RLT;
lastChange = "2022-12-14 12:06:36 +0000";
layers = (
{
anchors = (
{
name = bottom;
pos = (370,0);
},
{
name = top;
pos = (293,600);
}
);
layerId = m01;
shapes = (
{
closed = 1;
nodes = (
(59,518,o),
(43,534,o),
(43,555,cs),
(43,575,o),
(59,591,o),
(80,591,cs),
(100,591,o),
(116,575,o),
(116,555,cs),
(116,534,o),
(100,518,o),
(80,518,cs)
);
},
{
closed = 1;
nodes = (
(333,750,l),
(333,743,l),
(366,743,l),
(366,15,ls),
(366,7,o),
(359,-1,o),
(351,-1,cs),
(343,-1,o),
(336,5,o),
(335,13,cs),
(266,478,ls),
(264,491,o),
(254,497,o),
(245,497,cs),
(236,497,o),
(226,491,o),
(224,478,cs),
(155,13,ls),
(154,5,o),
(147,-1,o),
(140,-1,cs),
(131,-1,o),
(124,7,o),
(124,15,cs),
(124,553,ls),
(124,577,o),
(105,598,o),
(81,599,cs),
(53,600,o),
(31,575,o),
(36,546,cs),
(39,528,o),
(54,514,o),
(72,511,cs),
(91,508,o),
(107,516,o),
(116,530,c),
(116,16,ls),
(116,6,o),
(122,-3,o),
(132,-7,cs),
(146,-12,o),
(161,-2,o),
(163,12,cs),
(232,477,ls),
(233,486,o),
(240,489,o),
(245,489,cs),
(251,489,o),
(258,486,o),
(259,477,cs),
(327,12,ls),
(329,-2,o),
(344,-12,o),
(358,-7,cs),
(368,-3,o),
(374,6,o),
(374,16,cs),
(374,714,ls),
(374,730,o),
(387,743,o),
(402,743,cs),
(407,743,l),
(407,750,l)
);
}
);
width = 442;
}
);
unicode = 3615;
},
{
glyphname = "phoSamphao-thai";
kernLeft = LO;
kernRight = RL;
lastChange = "2022-11-25 18:34:06 +0000";
layers = (
{
anchors = (
{
name = bottom;
pos = (370,0);
},
{
name = top;
pos = (370,600);
}
);
layerId = m01;
shapes = (
{
closed = 1;
nodes = (
(59,0,o),
(43,17,o),
(43,37,cs),
(43,58,o),
(59,74,o),
(79,74,cs),
(100,74,o),
(116,58,o),
(116,37,cs),
(116,17,o),
(100,0,o),
(79,0,cs)
);
},
{
closed = 1;
nodes = (
(374,477,ls),
(374,546,o),
(320,606,o),
(251,609,cs),
(177,613,o),
(115,554,o),
(115,480,cs),
(115,447,ls),
(115,406,o),
(144,371,o),
(183,362,c),
(157,353,o),
(116,329,o),
(116,269,cs),
(116,62,l),
(107,76,o),
(90,84,o),
(72,81,cs),
(54,78,o),
(39,64,o),
(36,46,cs),
(31,17,o),
(53,-8,o),
(81,-7,cs),
(105,-6,o),
(124,15,o),
(124,39,cs),
(124,269,ls),
(124,350,o),
(201,360,o),
(204,360,c),
(204,368,l),
(203,368,ls),
(159,368,o),
(123,403,o),
(123,447,cs),
(123,477,ls),
(123,540,o),
(170,596,o),
(233,601,cs),
(305,608,o),
(366,551,o),
(366,480,cs),
(366,7,l),
(333,7,l),
(333,0,l),
(407,0,l),
(407,7,l),
(402,7,ls),
(386,7,o),
(374,20,o),
(374,36,cs)
);
}
);
width = 442;
}
);
unicode = 3616;
},
{
glyphname = "moMa-thai";
kernLeft = LO;
kernRight = RL;
lastChange = "2022-11-25 18:34:06 +0000";
layers = (
{
anchors = (
{
name = bottom;
pos = (370,0);
},
{
name = top;
pos = (370,600);
}
);
layerId = m01;
shapes = (
{
closed = 1;
nodes = (
(155,16,o),
(138,0,o),
(118,0,cs),
(98,0,o),
(81,16,o),
(81,36,cs),
(81,57,o),
(98,73,o),
(118,73,cs),
(138,73,o),
(155,57,o),
(155,36,cs)
);
},
{
closed = 1;
nodes = (
(59,519,o),
(42,535,o),
(42,555,cs),
(42,576,o),
(59,592,o),
(79,592,cs),
(99,592,o),
(116,576,o),
(116,555,cs),
(116,535,o),
(99,519,o),
(79,519,cs)
);
},
{
closed = 1;
nodes = (
(333,600,l),
(333,593,l),
(366,593,l),
(367,-1,l),
(226,62,o),
(148,78,o),
(123,80,c),
(123,555,ls),
(123,580,o),
(103,600,o),
(79,600,cs),
(55,600,o),
(35,580,o),
(35,555,cs),
(35,531,o),
(55,511,o),
(79,511,cs),
(94,511,o),
(108,519,o),
(116,531,c),
(116,81,l),
(93,79,o),
(74,60,o),
(74,36,cs),
(74,12,o),
(94,-8,o),
(118,-8,cs),
(143,-8,o),
(162,12,o),
(162,36,cs),
(162,49,o),
(157,61,o),
(148,69,c),
(183,62,o),
(251,38,o),
(365,-9,cs),
(370,-11,o),
(374,-8,o),
(374,-4,cs),
(374,564,ls),
(374,580,o),
(387,593,o),
(402,593,cs),
(407,593,l),
(407,600,l)
);
}
);
width = 442;
}
);
unicode = 3617;
},
{
glyphname = "yoYak-thai";
kernLeft = XALL;
kernRight = RL;
lastChange = "2022-12-16 15:51:08 +0000";
layers = (
{
anchors = (
{
name = bottom;
pos = (280,0);
},
{
name = top;
pos = (283,593);
}
);
layerId = m01;
shapes = (
{
closed = 1;
nodes = (
(99,595,o),
(116,579,o),
(116,559,cs),
(116,538,o),
(99,522,o),
(79,522,cs),
(59,522,o),
(42,538,o),
(42,559,cs),
(42,579,o),
(59,595,o),
(79,595,cs)
);
},
{
closed = 1;
nodes = (
(324,600,l),
(250,600,l),
(250,592,l),
(283,592,l),
(281,119,ls),
(281,53,o),
(228,0,o),
(162,0,cs),
(96,0,o),
(42,53,o),
(42,119,cs),
(42,276,ls),
(42,341,o),
(95,394,o),
(161,394,c),
(161,402,l),
(95,402,o),
(42,456,o),
(42,521,cs),
(42,534,l),
(51,520,o),
(68,512,o),
(87,515,cs),
(104,518,o),
(119,532,o),
(122,549,cs),
(128,578,o),
(106,603,o),
(79,603,cs),
(54,603,o),
(35,583,o),
(35,559,cs),
(35,521,ls),
(35,461,o),
(76,412,o),
(131,398,c),
(76,385,o),
(35,335,o),
(35,276,cs),
(35,119,ls),
(35,49,o),
(92,-8,o),
(162,-8,cs),
(232,-8,o),
(289,49,o),
(289,119,cs),
(290,564,ls),
(290,579,o),
(303,592,o),
(319,592,cs),
(324,592,l)
);
}
);
width = 359;
}
);
unicode = 3618;
},
{
glyphname = "roRua-thai";
kernLeft = XALL;
kernRight = XALL;
lastChange = "2022-11-25 18:34:06 +0000";
layers = (
{
anchors = (
{
name = bottom;
pos = (295,-8);
},
{
name = top;
pos = (295,600);
}
);
layerId = m01;
shapes = (
{
closed = 1;
nodes = (
(234,-1,o),
(217,16,o),
(217,36,cs),
(217,56,o),
(234,73,o),
(254,73,cs),
(274,73,o),
(291,56,o),
(291,36,cs),
(291,16,o),
(274,-1,o),
(254,-1,cs)
);
},
{
closed = 1;
nodes = (
(298,276,ls),
(298,349,o),
(239,407,o),
(167,407,cs),
(114,407,ls),
(75,407,o),
(43,439,o),
(43,478,cs),
(43,546,o),
(98,601,o),
(165,601,cs),
(232,601,o),
(287,546,o),
(287,478,c),
(295,478,l),
(295,550,o),
(236,608,o),
(165,608,cs),
(94,608,o),
(35,550,o),
(35,478,cs),
(35,435,o),
(71,400,o),
(114,400,cs),
(167,400,ls),
(235,400,o),
(291,344,o),
(291,276,cs),
(291,61,l),
(283,73,o),
(269,80,o),
(254,80,cs),
(230,80,o),
(210,61,o),
(210,36,cs),
(210,12,o),
(230,-8,o),
(254,-8,cs),
(278,-8,o),
(298,12,o),
(298,36,cs)
);
}
);
width = 333;
}
);
unicode = 3619;
},
{
glyphname = "ru-thai";
kernLeft = XALL;
kernRight = RL;
lastChange = "2022-11-25 18:34:06 +0000";
layers = (
{
anchors = (
{
name = bottom;
pos = (290,-214);
},
{
name = top;
pos = (290,600);
}
);
layerId = m01;
shapes = (
{
closed = 1;
nodes = (
(100,74,o),
(117,58,o),
(117,37,cs),
(117,17,o),
(100,1,o),
(80,1,cs),
(60,1,o),
(43,17,o),
(43,37,cs),
(43,58,o),
(60,74,o),
(80,74,cs)
);
},
{
closed = 1;
nodes = (
(293,478,ls),
(293,552,o),
(232,611,o),
(158,607,cs),
(88,604,o),
(35,544,o),
(35,475,cs),
(35,446,ls),
(35,405,o),
(64,370,o),
(102,361,c),
(77,352,o),
(36,328,o),
(36,268,cs),
(36,39,ls),
(36,15,o),
(54,-6,o),
(79,-7,cs),
(106,-8,o),
(129,17,o),
(123,46,cs),
(120,64,o),
(105,78,o),
(87,81,cs),
(69,84,o),
(52,76,o),
(43,62,c),
(43,268,ls),
(43,349,o),
(121,359,o),
(124,359,c),
(124,367,l),
(122,367,ls),
(78,367,o),
(42,402,o),
(42,446,cs),
(42,475,ls),
(42,538,o),
(89,594,o),
(152,599,cs),
(225,606,o),
(286,549,o),
(286,478,cs),
(286,-193,l),
(252,-193,l),
(252,-200,l),
(327,-200,l),
(327,-193,l),
(322,-193,ls),
(306,-193,o),
(293,-180,o),
(293,-164,cs)
);
}
);
width = 362;
}
);
unicode = 3620;
},
{
glyphname = "ru-thai.short";
kernLeft = XALL;
kernRight = RL;
lastChange = "2022-11-26 18:09:28 +0000";
layers = (
{
anchors = (
{
name = bottom;
pos = (290,-124);
},
{
name = top;
pos = (290,600);
}
);
layerId = m01;
shapes = (
{
closed = 1;
nodes = (
(100,74,o),
(117,58,o),
(117,37,cs),
(117,17,o),
(100,1,o),
(80,1,cs),
(60,1,o),
(43,17,o),
(43,37,cs),
(43,58,o),
(60,74,o),
(80,74,cs)
);
},
{
closed = 1;
nodes = (
(293,478,ls),
(293,552,o),
(232,611,o),
(158,607,cs),
(88,604,o),
(35,544,o),
(35,475,cs),
(35,446,ls),
(35,405,o),
(64,370,o),
(102,361,c),
(77,352,o),
(36,328,o),
(36,268,cs),
(36,39,ls),
(36,15,o),
(54,-6,o),
(79,-7,cs),
(106,-8,o),
(129,17,o),
(123,46,cs),
(120,64,o),
(105,78,o),
(87,81,cs),
(69,84,o),
(52,76,o),
(43,62,c),
(43,268,ls),
(43,349,o),
(121,359,o),
(124,359,c),
(124,367,l),
(122,367,ls),
(78,367,o),
(42,402,o),
(42,446,cs),
(42,475,ls),
(42,538,o),
(89,594,o),
(152,599,cs),
(225,606,o),
(286,549,o),
(286,478,cs),
(286,-113,l),
(252,-113,l),
(252,-120,l),
(327,-120,l),
(327,-113,l),
(322,-113,ls),
(306,-113,o),
(293,-100,o),
(293,-84,cs)
);
}
);
width = 362;
}
);
},
{
glyphname = "ru_lakkhangyao-thai";
kernLeft = XALL;
kernRight = RL;
lastChange = "2022-11-25 18:34:06 +0000";
layers = (
{
anchors = (
{
name = bottom;
pos = (541,-220);
},
{
name = top;
pos = (541,600);
}
);
layerId = m01;
shapes = (
{
closed = 1;
nodes = (
(100,74,o),
(117,58,o),
(117,37,cs),
(117,17,o),
(100,1,o),
(80,1,cs),
(60,1,o),
(43,17,o),
(43,37,cs),
(43,58,o),
(60,74,o),
(80,74,cs)
);
},
{
closed = 1;
nodes = (
(293,478,ls),
(293,552,o),
(232,611,o),
(158,607,cs),
(88,604,o),
(35,544,o),
(35,475,cs),
(35,447,ls),
(35,406,o),
(64,371,o),
(102,362,c),
(77,353,o),
(36,329,o),
(36,269,cs),
(36,39,ls),
(36,15,o),
(54,-6,o),
(79,-7,cs),
(106,-8,o),
(129,17,o),
(123,46,cs),
(120,64,o),
(105,78,o),
(87,81,cs),
(69,84,o),
(52,76,o),
(43,62,c),
(43,269,ls),
(43,350,o),
(121,360,o),
(124,360,c),
(124,368,l),
(122,368,ls),
(78,368,o),
(42,403,o),
(42,447,cs),
(42,475,ls),
(42,538,o),
(89,594,o),
(152,599,cs),
(225,606,o),
(286,549,o),
(286,478,cs),
(286,-193,l),
(252,-193,l),
(252,-200,l),
(327,-200,l),
(327,-193,l),
(322,-193,ls),
(306,-193,o),
(293,-180,o),
(293,-164,cs)
);
},
{
closed = 1;
nodes = (
(544,478,ls),
(544,552,o),
(483,611,o),
(409,607,cs),
(339,604,o),
(286,544,o),
(286,475,cs),
(293,475,ls),
(293,538,o),
(340,594,o),
(403,599,cs),
(476,606,o),
(537,549,o),
(537,478,cs),
(537,-193,l),
(503,-193,l),
(503,-200,l),
(578,-200,l),
(578,-193,l),
(573,-193,ls),
(557,-193,o),
(544,-180,o),
(544,-164,cs)
);
}
);
width = 613;
}
);
},
{
glyphname = "loLing-thai";
kernLeft = XALL;
kernRight = RL;
lastChange = "2022-12-14 12:02:05 +0000";
layers = (
{
anchors = (
{
name = bottom;
pos = (290,0);
},
{
name = top;
pos = (279,600);
}
);
layerId = m01;
shapes = (
{
closed = 1;
nodes = (
(99,73,o),
(116,57,o),
(116,36,cs),
(116,16,o),
(99,0,o),
(79,0,cs),
(59,0,o),
(42,16,o),
(42,36,cs),
(42,57,o),
(59,73,o),
(79,73,cs)
);
},
{
closed = 1;
nodes = (
(293,477,ls),
(293,549,o),
(236,607,o),
(165,608,cs),
(93,608,o),
(35,550,o),
(35,479,c),
(42,479,l),
(42,546,o),
(97,601,o),
(165,600,cs),
(232,600,o),
(286,545,o),
(286,477,cs),
(286,360,l),
(268,410,o),
(221,446,o),
(165,446,cs),
(93,447,o),
(35,387,o),
(35,316,cs),
(35,37,ls),
(35,13,o),
(55,-8,o),
(79,-8,cs),
(105,-8,o),
(125,14,o),
(123,40,cs),
(122,62,o),
(103,79,o),
(81,80,cs),
(65,81,o),
(51,73,o),
(42,61,c),
(42,316,ls),
(42,383,o),
(96,438,o),
(163,439,cs),
(231,439,o),
(286,384,o),
(286,317,cs),
(286,8,l),
(252,8,l),
(252,0,l),
(326,0,l),
(326,8,l),
(321,8,ls),
(306,8,o),
(293,20,o),
(293,36,cs)
);
}
);
width = 361;
}
);
unicode = 3621;
},
{
glyphname = "lu-thai";
kernLeft = LO;
kernRight = RL;
lastChange = "2022-11-25 18:34:06 +0000";
layers = (
{
anchors = (
{
name = bottom;
pos = (370,-217);
},
{
name = top;
pos = (370,600);
}
);
layerId = m01;
shapes = (
{
closed = 1;
nodes = (
(59,0,o),
(43,17,o),
(43,37,cs),
(43,58,o),
(59,74,o),
(79,74,cs),
(100,74,o),
(116,58,o),
(116,37,cs),
(116,17,o),
(100,0,o),
(79,0,cs)
);
},
{
closed = 1;
nodes = (
(374,475,ls),
(374,547,o),
(320,604,o),
(251,607,cs),
(177,611,o),
(115,552,o),
(115,478,cs),
(115,446,ls),
(115,405,o),
(144,370,o),
(183,361,c),
(157,352,o),
(116,328,o),
(116,268,cs),
(116,62,l),
(107,76,o),
(90,84,o),
(72,81,cs),
(54,78,o),
(39,64,o),
(36,46,cs),
(31,17,o),
(53,-8,o),
(81,-7,cs),
(105,-6,o),
(124,15,o),
(124,39,cs),
(124,268,ls),
(124,349,o),
(201,359,o),
(204,359,c),
(204,367,l),
(203,367,ls),
(159,367,o),
(123,402,o),
(123,446,cs),
(123,475,ls),
(123,538,o),
(170,594,o),
(233,599,cs),
(305,606,o),
(366,549,o),
(366,478,cs),
(366,-193,l),
(333,-193,l),
(333,-200,l),
(407,-200,l),
(407,-193,l),
(402,-193,ls),
(386,-193,o),
(374,-180,o),
(374,-164,cs)
);
}
);
width = 442;
}
);
unicode = 3622;
},
{
glyphname = "lu-thai.short";
kernLeft = LO;
kernRight = RL;
lastChange = "2022-11-26 18:09:50 +0000";
layers = (
{
anchors = (
{
name = bottom;
pos = (370,-125);
},
{
name = top;
pos = (370,600);
}
);
layerId = m01;
shapes = (
{
closed = 1;
nodes = (
(59,0,o),
(43,17,o),
(43,37,cs),
(43,58,o),
(59,74,o),
(79,74,cs),
(100,74,o),
(116,58,o),
(116,37,cs),
(116,17,o),
(100,0,o),
(79,0,cs)
);
},
{
closed = 1;
nodes = (
(374,475,ls),
(374,547,o),
(320,604,o),
(251,607,cs),
(177,611,o),
(115,552,o),
(115,478,cs),
(115,446,ls),
(115,405,o),
(144,370,o),
(183,361,c),
(157,352,o),
(116,328,o),
(116,268,cs),
(116,62,l),
(107,76,o),
(90,84,o),
(72,81,cs),
(54,78,o),
(39,64,o),
(36,46,cs),
(31,17,o),
(53,-8,o),
(81,-7,cs),
(105,-6,o),
(124,15,o),
(124,39,cs),
(124,268,ls),
(124,349,o),
(201,359,o),
(204,359,c),
(204,367,l),
(203,367,ls),
(159,367,o),
(123,402,o),
(123,446,cs),
(123,475,ls),
(123,538,o),
(170,594,o),
(233,599,cs),
(305,606,o),
(366,549,o),
(366,478,cs),
(366,-113,l),
(333,-113,l),
(333,-120,l),
(407,-120,l),
(407,-113,l),
(402,-113,ls),
(386,-113,o),
(374,-100,o),
(374,-84,cs)
);
}
);
width = 442;
}
);
},
{
glyphname = "lu_lakkhangyao-thai";
kernLeft = LO;
kernRight = RL;
lastChange = "2022-11-25 18:34:06 +0000";
layers = (
{
anchors = (
{
name = bottom;
pos = (622,-214);
},
{
name = top;
pos = (622,600);
}
);
layerId = m01;
shapes = (
{
closed = 1;
nodes = (
(625,478,ls),
(625,552,o),
(564,611,o),
(490,607,cs),
(420,604,o),
(367,544,o),
(367,475,cs),
(367,452,l),
(374,452,l),
(374,475,ls),
(374,538,o),
(421,594,o),
(484,599,cs),
(557,606,o),
(618,549,o),
(618,478,cs),
(618,-193,l),
(584,-193,l),
(584,-200,l),
(659,-200,l),
(659,-193,l),
(654,-193,ls),
(638,-193,o),
(625,-180,o),
(625,-164,cs)
);
},
{
closed = 1;
nodes = (
(59,0,o),
(43,17,o),
(43,37,cs),
(43,58,o),
(59,74,o),
(79,74,cs),
(100,74,o),
(116,58,o),
(116,37,cs),
(116,17,o),
(100,0,o),
(79,0,cs)
);
},
{
closed = 1;
nodes = (
(374,475,ls),
(374,544,o),
(320,604,o),
(251,607,cs),
(177,611,o),
(115,552,o),
(115,478,cs),
(115,446,ls),
(115,405,o),
(144,370,o),
(183,361,c),
(157,352,o),
(116,328,o),
(116,268,cs),
(116,62,l),
(107,76,o),
(90,84,o),
(72,81,cs),
(54,78,o),
(39,64,o),
(36,46,cs),
(31,17,o),
(53,-8,o),
(81,-7,cs),
(105,-6,o),
(124,15,o),
(124,39,cs),
(124,268,ls),
(124,349,o),
(201,359,o),
(204,359,c),
(204,367,l),
(203,367,ls),
(159,367,o),
(123,402,o),
(123,446,cs),
(123,475,ls),
(123,538,o),
(170,594,o),
(233,599,cs),
(305,606,o),
(366,549,o),
(366,478,cs),
(366,-193,l),
(333,-193,l),
(333,-200,l),
(407,-200,l),
(407,-193,l),
(402,-193,ls),
(386,-193,o),
(374,-180,o),
(374,-164,cs)
);
}
);
width = 694;
}
);
},
{
glyphname = "woWaen-thai";
kernLeft = LL;
kernRight = XALL;
lastChange = "2022-12-14 12:07:05 +0000";
layers = (
{
anchors = (
{
name = bottom;
pos = (323,-8);
},
{
name = top;
pos = (317,600);
}
);
layerId = m01;
shapes = (
{
closed = 1;
nodes = (
(262,0,o),
(246,16,o),
(246,36,cs),
(246,57,o),
(262,73,o),
(282,73,cs),
(303,73,o),
(319,57,o),
(319,36,cs),
(319,16,o),
(303,0,o),
(282,0,cs)
);
},
{
closed = 1;
nodes = (
(327,479,ls),
(327,553,o),
(265,612,o),
(191,608,cs),
(124,605,o),
(72,549,o),
(69,482,c),
(35,482,l),
(35,475,l),
(109,475,l),
(109,482,l),
(90,482,o),
(77,501,o),
(84,519,cs),
(99,563,o),
(138,596,o),
(186,600,cs),
(258,607,o),
(319,550,o),
(319,479,cs),
(319,61,l),
(311,73,o),
(298,81,o),
(282,81,cs),
(258,81,o),
(238,61,o),
(238,36,cs),
(238,12,o),
(258,-8,o),
(282,-8,cs),
(307,-8,o),
(327,12,o),
(327,36,cs)
);
}
);
width = 382;
}
);
unicode = 3623;
},
{
glyphname = "soSala-thai";
kernLeft = XALL;
kernRight = RL;
lastChange = "2022-12-16 15:59:44 +0000";
layers = (
{
anchors = (
{
name = bottom;
pos = (290,0);
},
{
name = top;
pos = (284,600);
}
);
layerId = m01;
shapes = (
{
closed = 1;
nodes = (
(184,444,l),
(178,446,o),
(172,448,o),
(165,448,cs),
(142,448,o),
(124,431,o),
(121,409,cs),
(71,12,ls),
(70,5,o),
(64,0,o),
(57,0,cs),
(50,0,o),
(43,6,o),
(43,14,cs),
(43,479,ls),
(43,550,o),
(104,607,o),
(176,600,cs),
(215,596,o),
(248,573,o),
(267,541,c)
);
},
{
closed = 1;
nodes = (
(201,384,o),
(185,367,o),
(165,367,cs),
(144,367,o),
(128,384,o),
(128,404,cs),
(128,424,o),
(144,441,o),
(165,441,cs),
(185,441,o),
(201,424,o),
(201,404,cs)
);
},
{
closed = 1;
nodes = (
(322,8,ls),
(306,8,o),
(293,20,o),
(293,36,cs),
(293,475,ls),
(293,499,o),
(287,521,o),
(276,540,c),
(326,598,l),
(320,603,l),
(273,547,l),
(251,582,o),
(214,606,o),
(171,608,cs),
(96,611,o),
(35,552,o),
(35,479,cs),
(36,15,ls),
(36,5,o),
(42,-5,o),
(52,-7,cs),
(65,-10,o),
(78,-1,o),
(79,11,cs),
(125,384,l),
(133,368,o),
(152,357,o),
(173,360,cs),
(190,364,o),
(204,377,o),
(208,394,cs),
(212,413,o),
(204,430,o),
(191,440,c),
(271,534,l),
(281,516,o),
(286,496,o),
(286,475,cs),
(286,8,l),
(252,8,l),
(252,0,l),
(327,0,l),
(327,8,l)
);
}
);
width = 362;
}
);
unicode = 3624;
},
{
glyphname = "soRusi-thai";
kernLeft = LOU;
kernRight = RL;
lastChange = "2022-11-25 18:34:06 +0000";
layers = (
{
anchors = (
{
name = bottom;
pos = (369,0);
},
{
name = top;
pos = (369,600);
}
);
layerId = m01;
shapes = (
{
closed = 1;
nodes = (
(59,518,o),
(43,534,o),
(43,554,cs),
(43,575,o),
(59,591,o),
(79,591,cs),
(100,591,o),
(116,575,o),
(116,554,cs),
(116,534,o),
(100,518,o),
(79,518,cs)
);
},
{
closed = 1;
nodes = (
(333,600,l),
(333,592,l),
(366,592,l),
(364,119,ls),
(364,53,o),
(311,0,o),
(245,0,cs),
(179,0,o),
(125,53,o),
(125,119,cs),
(124,554,ls),
(124,582,o),
(98,604,o),
(70,598,cs),
(53,594,o),
(40,581,o),
(36,564,cs),
(30,535,o),
(52,510,o),
(79,510,cs),
(95,510,o),
(108,518,o),
(116,530,c),
(118,119,ls),
(118,49,o),
(175,-8,o),
(245,-8,cs),
(315,-8,o),
(372,49,o),
(372,119,cs),
(374,564,ls),
(374,580,o),
(386,592,o),
(402,592,cs),
(407,592,l),
(407,600,l)
);
},
{
closed = 1;
nodes = (
(207,380,o),
(223,397,o),
(244,397,cs),
(264,397,o),
(280,380,o),
(280,360,cs),
(280,340,o),
(264,323,o),
(244,323,cs),
(223,323,o),
(207,340,o),
(207,360,cs)
);
},
{
closed = 1;
nodes = (
(365,392,l),
(365,354,o),
(335,323,o),
(297,323,cs),
(268,323,l),
(280,331,o),
(288,345,o),
(288,360,cs),
(288,384,o),
(268,404,o),
(244,404,cs),
(219,404,o),
(199,384,o),
(199,360,cs),
(199,336,o),
(219,316,o),
(244,316,cs),
(297,316,ls),
(339,316,o),
(373,350,o),
(373,392,c)
);
}
);
width = 442;
}
);
unicode = 3625;
},
{
glyphname = "soSua-thai";
kernLeft = XALL;
kernRight = RL;
lastChange = "2022-12-14 12:07:21 +0000";
layers = (
{
anchors = (
{
name = bottom;
pos = (293,0);
},
{
name = top;
pos = (283,600);
}
);
layerId = m01;
shapes = (
{
closed = 1;
nodes = (
(285,360,l),
(271,400,o),
(238,431,o),
(196,442,c),
(273,532,l),
(281,516,o),
(285,498,o),
(285,479,cs)
);
},
{
closed = 1;
nodes = (
(99,73,o),
(116,57,o),
(116,36,cs),
(116,16,o),
(99,0,o),
(79,0,cs),
(59,0,o),
(42,16,o),
(42,36,cs),
(42,57,o),
(59,73,o),
(79,73,cs)
);
},
{
closed = 1;
nodes = (
(323,603,l),
(274,545,l),
(252,583,o),
(211,608,o),
(164,608,cs),
(93,608,o),
(35,550,o),
(35,479,c),
(42,479,l),
(42,546,o),
(97,600,o),
(164,600,cs),
(209,600,o),
(248,576,o),
(269,539,c),
(188,444,l),
(180,445,o),
(172,446,o),
(164,446,cs),
(93,446,o),
(35,388,o),
(35,317,cs),
(35,37,ls),
(35,13,o),
(55,-8,o),
(79,-8,cs),
(105,-8,o),
(125,14,o),
(123,40,cs),
(121,62,o),
(103,79,o),
(81,80,cs),
(65,81,o),
(50,73,o),
(42,61,c),
(42,316,ls),
(42,383,o),
(96,438,o),
(163,439,cs),
(230,439,o),
(285,384,o),
(285,317,cs),
(285,8,l),
(252,8,l),
(252,0,l),
(326,0,l),
(326,8,l),
(321,8,ls),
(306,8,o),
(293,20,o),
(293,36,cs),
(293,479,ls),
(293,500,o),
(288,520,o),
(278,538,c),
(329,598,l)
);
}
);
width = 364;
}
);
unicode = 3626;
},
{
glyphname = "hoHip-thai";
kernLeft = LOU;
kernRight = RL;
lastChange = "2022-11-25 18:34:06 +0000";
layers = (
{
anchors = (
{
name = bottom;
pos = (371,0);
},
{
name = top;
pos = (371,600);
}
);
layerId = m01;
shapes = (
{
closed = 1;
nodes = (
(310,527,o),
(294,543,o),
(294,563,cs),
(294,584,o),
(310,600,o),
(330,600,cs),
(351,600,o),
(367,584,o),
(367,563,cs),
(367,543,o),
(351,527,o),
(330,527,cs)
);
},
{
closed = 1;
nodes = (
(60,527,o),
(43,543,o),
(43,563,cs),
(43,584,o),
(60,600,o),
(80,600,cs),
(100,600,o),
(117,584,o),
(117,563,cs),
(117,543,o),
(100,527,o),
(80,527,cs)
);
},
{
closed = 1;
nodes = (
(375,561,ls),
(375,586,o),
(356,607,o),
(332,608,cs),
(304,609,o),
(282,584,o),
(287,556,cs),
(290,538,o),
(304,523,o),
(322,520,cs),
(336,517,o),
(350,522,o),
(359,530,c),
(146,6,ls),
(143,0,o),
(137,-1,o),
(133,0,cs),
(129,1,o),
(124,4,o),
(124,11,cs),
(124,563,ls),
(124,582,o),
(113,599,o),
(96,605,cs),
(62,617,o),
(30,589,o),
(36,555,cs),
(40,537,o),
(55,523,o),
(73,520,cs),
(91,517,o),
(108,525,o),
(117,539,c),
(117,11,ls),
(117,-9,o),
(145,-16,o),
(153,3,cs),
(367,530,l),
(367,8,l),
(334,8,l),
(334,0,l),
(408,0,l),
(408,8,l),
(403,8,ls),
(387,8,o),
(375,20,o),
(375,36,cs)
);
}
);
width = 443;
}
);
unicode = 3627;
},
{
glyphname = "loChula-thai";
kernLeft = LOU;
kernRight = XALL;
lastChange = "2022-11-25 18:34:06 +0000";
layers = (
{
anchors = (
{
name = bottom;
pos = (370,0);
}
);
layerId = m01;
shapes = (
{
closed = 1;
nodes = (
(59,327,o),
(43,343,o),
(43,364,cs),
(43,384,o),
(59,400,o),
(79,400,cs),
(100,400,o),
(116,384,o),
(116,364,cs),
(116,343,o),
(100,327,o),
(79,327,cs)
);
},
{
closed = 1;
nodes = (
(279,471,ls),
(264,454,o),
(243,445,o),
(221,445,cs),
(201,445,ls),
(160,445,o),
(126,478,o),
(126,520,cs),
(126,561,o),
(160,595,o),
(201,595,cs),
(291,595,ls),
(317,595,o),
(341,581,o),
(354,560,c)
);
},
{
closed = 1;
nodes = (
(373,520,ls),
(373,534,o),
(370,547,o),
(363,559,c),
(397,598,l),
(391,603,l),
(359,566,l),
(345,588,o),
(319,603,o),
(291,603,cs),
(201,603,ls),
(156,603,o),
(118,566,o),
(118,520,cs),
(118,474,o),
(156,437,o),
(201,437,cs),
(221,437,ls),
(246,437,o),
(269,448,o),
(284,466,cs),
(358,553,l),
(363,543,o),
(366,532,o),
(366,520,cs),
(366,15,ls),
(366,7,o),
(359,-1,o),
(350,-1,cs),
(343,-1,o),
(337,5,o),
(335,13,cs),
(266,284,ls),
(263,297,o),
(254,303,o),
(245,303,cs),
(236,303,o),
(227,297,o),
(224,284,cs),
(155,13,ls),
(153,5,o),
(147,-1,o),
(139,-1,cs),
(131,-1,o),
(124,7,o),
(124,15,cs),
(124,362,ls),
(124,386,o),
(105,407,o),
(81,408,cs),
(53,409,o),
(31,384,o),
(36,355,cs),
(39,337,o),
(54,323,o),
(72,320,cs),
(90,317,o),
(107,325,o),
(116,339,c),
(116,16,ls),
(116,6,o),
(122,-3,o),
(132,-7,cs),
(146,-12,o),
(160,-2,o),
(163,12,cs),
(231,283,ls),
(233,292,o),
(239,295,o),
(245,295,cs),
(250,295,o),
(257,292,o),
(259,283,cs),
(327,12,ls),
(330,-2,o),
(344,-12,o),
(358,-7,cs),
(368,-3,o),
(374,6,o),
(374,16,cs)
);
}
);
width = 432;
}
);
unicode = 3628;
},
{
glyphname = "loChula-thai.short";
kernLeft = LOU;
kernRight = XALL;
lastChange = "2022-12-14 12:07:32 +0000";
layers = (
{
anchors = (
{
name = bottom;
pos = (370,0);
},
{
name = top;
pos = (367,600);
}
);
layerId = m01;
shapes = (
{
closed = 1;
nodes = (
(59,327,o),
(43,343,o),
(43,364,cs),
(43,384,o),
(59,400,o),
(79,400,cs),
(100,400,o),
(116,384,o),
(116,364,cs),
(116,343,o),
(100,327,o),
(79,327,cs)
);
},
{
closed = 1;
nodes = (
(279,471,ls),
(264,454,o),
(243,445,o),
(221,445,cs),
(201,445,ls),
(160,445,o),
(126,478,o),
(126,520,cs),
(126,561,o),
(160,595,o),
(201,595,cs),
(291,595,ls),
(317,595,o),
(341,581,o),
(354,560,c)
);
},
{
closed = 1;
nodes = (
(373,520,ls),
(373,534,o),
(370,547,o),
(363,559,c),
(397,598,l),
(391,603,l),
(359,566,l),
(345,588,o),
(319,603,o),
(291,603,cs),
(201,603,ls),
(156,603,o),
(118,566,o),
(118,520,cs),
(118,474,o),
(156,437,o),
(201,437,cs),
(221,437,ls),
(246,437,o),
(269,448,o),
(284,466,cs),
(358,553,l),
(363,543,o),
(366,532,o),
(366,520,cs),
(366,15,ls),
(366,7,o),
(359,-1,o),
(350,-1,cs),
(343,-1,o),
(337,5,o),
(335,13,cs),
(266,284,ls),
(263,297,o),
(254,303,o),
(245,303,cs),
(236,303,o),
(227,297,o),
(224,284,cs),
(155,13,ls),
(153,5,o),
(147,-1,o),
(139,-1,cs),
(131,-1,o),
(124,7,o),
(124,15,cs),
(124,362,ls),
(124,386,o),
(105,407,o),
(81,408,cs),
(53,409,o),
(31,384,o),
(36,355,cs),
(39,337,o),
(54,323,o),
(72,320,cs),
(90,317,o),
(107,325,o),
(116,339,c),
(116,16,ls),
(116,6,o),
(122,-3,o),
(132,-7,cs),
(146,-12,o),
(160,-2,o),
(163,12,cs),
(231,283,ls),
(233,292,o),
(239,295,o),
(245,295,cs),
(250,295,o),
(257,292,o),
(259,283,cs),
(327,12,ls),
(330,-2,o),
(344,-12,o),
(358,-7,cs),
(368,-3,o),
(374,6,o),
(374,16,cs)
);
}
);
width = 432;
}
);
},
{
glyphname = "oAng-thai";
kernLeft = LL;
kernRight = XALL;
lastChange = "2022-12-14 12:07:42 +0000";
layers = (
{
anchors = (
{
name = bottom;
pos = (319,0);
},
{
name = top;
pos = (313,600);
}
);
layerId = m01;
shapes = (
{
closed = 1;
nodes = (
(137,392,o),
(153,376,o),
(153,355,cs),
(153,335,o),
(137,318,o),
(116,318,cs),
(96,318,o),
(80,335,o),
(80,355,cs),
(80,376,o),
(96,392,o),
(116,392,cs)
);
},
{
closed = 1;
nodes = (
(326,478,ls),
(326,552,o),
(265,611,o),
(191,607,cs),
(124,604,o),
(72,548,o),
(68,481,c),
(35,481,l),
(35,474,l),
(109,474,l),
(109,481,l),
(90,481,o),
(77,500,o),
(83,518,cs),
(99,562,o),
(138,595,o),
(185,599,cs),
(258,606,o),
(319,549,o),
(319,478,cs),
(319,119,ls),
(319,53,o),
(265,0,o),
(199,0,cs),
(133,0,o),
(80,53,o),
(80,119,cs),
(80,331,l),
(88,319,o),
(101,311,o),
(116,311,cs),
(141,311,o),
(161,331,o),
(161,355,cs),
(161,380,o),
(141,400,o),
(116,400,cs),
(92,400,o),
(72,380,o),
(72,355,cs),
(72,119,ls),
(72,49,o),
(129,-8,o),
(199,-8,cs),
(269,-8,o),
(326,49,o),
(326,119,cs)
);
}
);
width = 361;
}
);
unicode = 3629;
},
{
glyphname = "hoNokhuk-thai";
kernLeft = XALL;
kernRight = XALL;
lastChange = "2022-11-25 18:34:06 +0000";
layers = (
{
anchors = (
{
name = bottom;
pos = (286,0);
},
{
name = top;
pos = (286,600);
}
);
layerId = m01;
shapes = (
{
closed = 1;
nodes = (
(100,392,o),
(116,376,o),
(116,355,cs),
(116,335,o),
(100,318,o),
(79,318,cs),
(59,318,o),
(43,335,o),
(43,355,cs),
(43,376,o),
(59,392,o),
(79,392,cs)
);
},
{
closed = 1;
nodes = (
(194,468,ls),
(180,451,o),
(159,441,o),
(137,441,cs),
(96,441,o),
(62,475,o),
(62,517,cs),
(62,558,o),
(96,592,o),
(137,592,cs),
(206,592,ls),
(233,592,o),
(257,578,o),
(270,557,c)
);
},
{
closed = 1;
nodes = (
(309,590,l),
(303,595,l),
(275,563,l),
(260,585,o),
(235,600,o),
(206,600,cs),
(137,600,ls),
(91,600,o),
(54,562,o),
(54,517,cs),
(54,471,o),
(91,434,o),
(137,434,cs),
(161,434,o),
(184,445,o),
(200,463,cs),
(274,550,l),
(279,540,o),
(282,529,o),
(282,517,cs),
(282,119,ls),
(282,53,o),
(228,0,o),
(162,0,cs),
(96,0,o),
(43,53,o),
(43,119,cs),
(43,331,l),
(50,319,o),
(64,311,o),
(79,311,cs),
(104,311,o),
(124,331,o),
(124,355,cs),
(124,380,o),
(104,400,o),
(79,400,cs),
(55,400,o),
(35,380,o),
(35,355,cs),
(35,119,ls),
(35,49,o),
(92,-8,o),
(162,-8,cs),
(232,-8,o),
(289,49,o),
(289,119,cs),
(289,517,ls),
(289,531,o),
(285,544,o),
(279,556,c)
);
}
);
width = 344;
}
);
unicode = 3630;
},
{
glyphname = "saraA-thai";
lastChange = "2022-11-25 18:34:06 +0000";
layers = (
{
layerId = m01;
shapes = (
{
closed = 1;
nodes = (
(82,440,o),
(98,424,o),
(98,403,cs),
(98,383,o),
(82,367,o),
(61,367,cs),
(41,367,o),
(25,383,o),
(25,403,cs),
(25,424,o),
(41,440,o),
(61,440,cs)
);
},
{
closed = 1;
nodes = (
(115,359,ls),
(157,359,o),
(191,393,o),
(191,435,c),
(183,435,l),
(183,397,o),
(153,367,o),
(115,367,cs),
(86,367,l),
(98,375,o),
(106,388,o),
(106,403,cs),
(106,428,o),
(86,448,o),
(61,448,cs),
(37,448,o),
(17,428,o),
(17,403,cs),
(17,379,o),
(37,359,o),
(61,359,cs)
);
},
{
closed = 1;
nodes = (
(28,104,o),
(45,121,o),
(65,121,cs),
(85,121,o),
(102,104,o),
(102,84,cs),
(102,64,o),
(85,47,o),
(65,47,cs),
(45,47,o),
(28,64,o),
(28,84,cs)
);
},
{
closed = 1;
nodes = (
(187,116,l),
(187,78,o),
(156,47,o),
(119,47,cs),
(90,47,l),
(102,55,o),
(109,69,o),
(109,84,cs),
(109,109,o),
(90,128,o),
(65,128,cs),
(41,128,o),
(21,109,o),
(21,84,cs),
(21,60,o),
(41,40,o),
(65,40,cs),
(119,40,ls),
(160,40,o),
(194,74,o),
(194,116,c)
);
}
);
width = 211;
}
);
unicode = 3632;
},
{
glyphname = "saraAa-thai";
kernRight = XALL;
lastChange = "2022-11-25 18:34:06 +0000";
layers = (
{
layerId = m01;
shapes = (
{
closed = 1;
nodes = (
(90,481,l),
(69,481,o),
(57,497,o),
(64,518,cs),
(80,561,o),
(118,594,o),
(166,599,cs),
(238,605,o),
(300,548,o),
(300,477,cs),
(299,0,l),
(306,0,l),
(307,477,ls),
(307,551,o),
(246,610,o),
(171,606,cs),
(104,603,o),
(52,547,o),
(49,481,c),
(15,481,l),
(15,473,l),
(90,473,l)
);
}
);
width = 341;
}
);
unicode = 3634;
},
{
glyphname = "saraAm-thai";
kernRight = XALL;
lastChange = "2022-11-25 18:34:06 +0000";
layers = (
{
layerId = m01;
shapes = (
{
closed = 1;
nodes = (
(-111,742,o),
(-128,726,o),
(-128,705,cs),
(-128,685,o),
(-111,669,o),
(-91,669,cs),
(-71,669,o),
(-54,685,o),
(-54,705,cs),
(-54,726,o),
(-71,742,o),
(-91,742,cs)
);
},
{
closed = 1;
nodes = (
(-115,661,o),
(-135,681,o),
(-135,705,cs),
(-135,730,o),
(-115,750,o),
(-91,750,cs),
(-66,750,o),
(-47,730,o),
(-47,705,cs),
(-47,681,o),
(-66,661,o),
(-91,661,cs)
);
},
{
closed = 1;
nodes = (
(101,480,l),
(80,480,o),
(69,496,o),
(76,517,cs),
(92,561,o),
(130,594,o),
(178,598,cs),
(250,605,o),
(311,548,o),
(311,477,cs),
(311,1,l),
(318,1,l),
(319,477,ls),
(319,551,o),
(257,610,o),
(183,606,cs),
(116,603,o),
(64,547,o),
(61,480,c),
(27,480,l),
(27,473,l),
(101,473,l)
);
}
);
width = 359;
}
);
unicode = 3635;
},
{
glyphname = "saraE-thai";
kernLeft = LL;
kernRight = RO;
lastChange = "2022-11-25 18:34:06 +0000";
layers = (
{
layerId = m01;
shapes = (
{
closed = 1;
nodes = (
(82,-1,o),
(66,16,o),
(66,36,cs),
(66,57,o),
(82,73,o),
(102,73,cs),
(123,73,o),
(139,57,o),
(139,36,cs),
(139,16,o),
(123,-1,o),
(102,-1,cs)
);
},
{
closed = 1;
nodes = (
(91,83,o),
(75,75,o),
(66,61,c),
(66,564,ls),
(66,580,o),
(78,593,o),
(94,593,cs),
(99,593,l),
(99,600,l),
(25,600,l),
(25,593,l),
(58,593,l),
(58,38,ls),
(58,14,o),
(77,-7,o),
(101,-8,cs),
(129,-9,o),
(151,16,o),
(146,45,cs),
(143,63,o),
(128,77,o),
(110,80,cs)
);
}
);
width = 172;
}
);
unicode = 3648;
},
{
glyphname = "saraAe-thai";
kernLeft = LL;
kernRight = RO;
lastChange = "2022-11-25 18:34:06 +0000";
layers = (
{
layerId = m01;
shapes = (
{
closed = 1;
nodes = (
(82,1,o),
(66,17,o),
(66,37,cs),
(66,58,o),
(82,74,o),
(102,74,cs),
(123,74,o),
(139,58,o),
(139,37,cs),
(139,17,o),
(123,1,o),
(102,1,cs)
);
},
{
closed = 1;
nodes = (
(91,84,o),
(75,76,o),
(66,62,c),
(66,564,ls),
(66,580,o),
(78,593,o),
(94,593,cs),
(99,593,l),
(99,600,l),
(25,600,l),
(25,593,l),
(58,593,l),
(58,39,ls),
(58,15,o),
(77,-6,o),
(101,-7,cs),
(129,-8,o),
(151,17,o),
(146,46,cs),
(143,64,o),
(128,78,o),
(110,81,cs)
);
},
{
closed = 1;
nodes = (
(207,1,o),
(191,17,o),
(191,37,cs),
(191,58,o),
(207,74,o),
(227,74,cs),
(248,74,o),
(264,58,o),
(264,37,cs),
(264,17,o),
(248,1,o),
(227,1,cs)
);
},
{
closed = 1;
nodes = (
(216,84,o),
(200,76,o),
(191,62,c),
(191,564,ls),
(191,580,o),
(203,593,o),
(219,593,cs),
(224,593,l),
(224,600,l),
(150,600,l),
(150,593,l),
(183,593,l),
(183,39,ls),
(183,15,o),
(202,-6,o),
(226,-7,cs),
(254,-8,o),
(276,17,o),
(271,46,cs),
(268,64,o),
(253,78,o),
(235,81,cs)
);
}
);
width = 297;
}
);
unicode = 3649;
},
{
glyphname = "saraO-thai";
lastChange = "2022-11-25 18:34:06 +0000";
layers = (
{
layerId = m01;
shapes = (
{
closed = 1;
nodes = (
(133,0,o),
(116,16,o),
(116,36,cs),
(116,57,o),
(133,73,o),
(153,73,cs),
(173,73,o),
(190,57,o),
(190,36,cs),
(190,16,o),
(173,0,o),
(153,0,cs)
);
},
{
closed = 1;
nodes = (
(138,81,o),
(124,73,o),
(116,61,c),
(116,610,ls),
(116,646,o),
(87,675,o),
(51,675,cs),
(19,675,o),
(-7,701,o),
(-7,733,cs),
(-7,765,o),
(19,792,o),
(51,792,cs),
(84,792,o),
(110,765,o),
(110,733,c),
(117,733,l),
(117,769,o),
(88,799,o),
(51,799,cs),
(15,799,o),
(-15,769,o),
(-15,733,cs),
(-15,697,o),
(15,668,o),
(51,668,cs),
(83,668,o),
(109,641,o),
(109,610,cs),
(109,36,ls),
(109,12,o),
(129,-8,o),
(153,-8,cs),
(177,-8,o),
(197,12,o),
(197,36,cs),
(197,61,o),
(177,81,o),
(153,81,cs)
);
}
);
width = 222;
}
);
unicode = 3650;
},
{
glyphname = "saraAiMaimuan-thai";
kernRight = RO;
lastChange = "2022-11-25 18:34:06 +0000";
layers = (
{
layerId = m01;
shapes = (
{
closed = 1;
nodes = (
(133,0,o),
(116,16,o),
(116,36,cs),
(116,57,o),
(133,73,o),
(153,73,cs),
(173,73,o),
(190,57,o),
(190,36,cs),
(190,16,o),
(173,0,o),
(153,0,cs)
);
},
{
closed = 1;
nodes = (
(50,730,o),
(66,714,o),
(66,694,cs),
(66,673,o),
(50,657,o),
(29,657,cs),
(9,657,o),
(-7,673,o),
(-7,694,cs),
(-7,714,o),
(9,730,o),
(29,730,cs)
);
},
{
closed = 1;
nodes = (
(138,81,o),
(124,73,o),
(116,61,c),
(116,734,ls),
(116,770,o),
(87,800,o),
(51,800,cs),
(14,800,o),
(-15,770,o),
(-15,734,cs),
(-15,694,ls),
(-15,669,o),
(5,649,o),
(29,649,cs),
(54,649,o),
(74,669,o),
(74,694,cs),
(74,718,o),
(54,738,o),
(29,738,cs),
(14,738,o),
(0,730,o),
(-7,718,c),
(-7,734,ls),
(-7,766,o),
(19,792,o),
(51,792,cs),
(83,792,o),
(109,766,o),
(109,734,cs),
(109,36,ls),
(109,12,o),
(129,-8,o),
(153,-8,cs),
(177,-8,o),
(197,12,o),
(197,36,cs),
(197,61,o),
(177,81,o),
(153,81,cs)
);
}
);
width = 222;
}
);
unicode = 3651;
},
{
glyphname = "saraAiMaimalai-thai";
kernRight = RO;
lastChange = "2022-11-25 18:34:06 +0000";
layers = (
{
layerId = m01;
shapes = (
{
closed = 1;
nodes = (
(135,0,o),
(119,16,o),
(119,36,cs),
(119,57,o),
(135,73,o),
(155,73,cs),
(176,73,o),
(192,57,o),
(192,36,cs),
(192,16,o),
(176,0,o),
(155,0,cs)
);
},
{
closed = 1;
nodes = (
(140,81,o),
(126,73,o),
(119,61,c),
(119,731,ls),
(119,747,o),
(111,762,o),
(97,770,cs),
(84,779,o),
(68,780,o),
(53,774,cs),
(39,767,o),
(22,770,o),
(10,781,cs),
(-10,800,l),
(-15,795,l),
(5,776,ls),
(19,762,o),
(39,759,o),
(56,767,cs),
(68,772,o),
(82,771,o),
(93,764,cs),
(104,757,o),
(111,744,o),
(111,731,cs),
(111,36,ls),
(111,12,o),
(131,-8,o),
(155,-8,cs),
(180,-8,o),
(200,12,o),
(200,36,cs),
(200,61,o),
(180,81,o),
(155,81,cs)
);
}
);
width = 225;
}
);
unicode = 3652;
},
{
glyphname = "lakkhangyao-thai";
kernRight = XALL;
lastChange = "2022-11-25 18:34:06 +0000";
layers = (
{
layerId = m01;
shapes = (
{
closed = 1;
nodes = (
(109,481,l),
(88,481,o),
(76,497,o),
(83,518,cs),
(99,561,o),
(137,594,o),
(185,599,cs),
(257,605,o),
(319,548,o),
(319,477,cs),
(318,-200,l),
(325,-200,l),
(326,477,ls),
(326,551,o),
(265,610,o),
(190,606,cs),
(123,603,o),
(71,547,o),
(68,481,c),
(34,481,l),
(34,473,l),
(109,473,l)
);
}
);
width = 360;
}
);
unicode = 3653;
},
{
glyphname = "zero-thai";
kernLeft = XALL;
kernRight = XALL;
lastChange = "2022-11-25 18:34:06 +0000";
layers = (
{
layerId = m01;
shapes = (
{
closed = 1;
nodes = (
(284,120,ls),
(284,54,o),
(230,0,o),
(163,0,cs),
(97,0,o),
(43,54,o),
(43,120,cs),
(43,371,ls),
(43,437,o),
(97,491,o),
(163,491,cs),
(230,491,o),
(284,437,o),
(284,371,cs)
);
},
{
closed = 1;
nodes = (
(93,499,o),
(35,441,o),
(35,371,cs),
(35,120,ls),
(35,50,o),
(93,-8,o),
(163,-8,cs),
(234,-8,o),
(291,50,o),
(291,120,cs),
(291,371,ls),
(291,441,o),
(234,499,o),
(163,499,cs)
);
}
);
width = 326;
}
);
unicode = 3664;
},
{
glyphname = "one-thai";
kernLeft = XALL;
kernRight = XALL;
lastChange = "2022-11-25 18:34:06 +0000";
layers = (
{
layerId = m01;
shapes = (
{
closed = 1;
nodes = (
(100,243,o),
(116,226,o),
(116,206,cs),
(116,186,o),
(100,169,o),
(79,169,cs),
(59,169,o),
(43,186,o),
(43,206,cs),
(43,226,o),
(59,243,o),
(79,243,cs)
);
},
{
closed = 1;
nodes = (
(93,499,o),
(35,442,o),
(35,371,cs),
(35,210,l),
(35,206,ls),
(35,182,o),
(55,162,o),
(79,162,cs),
(104,162,o),
(124,182,o),
(124,206,cs),
(124,230,o),
(104,250,o),
(79,250,cs),
(64,250,o),
(51,243,o),
(43,231,c),
(43,371,ls),
(43,438,o),
(97,492,o),
(163,492,cs),
(229,492,o),
(283,438,o),
(283,371,cs),
(283,120,ls),
(283,54,o),
(229,0,o),
(163,0,c),
(163,-7,l),
(234,-7,o),
(291,50,o),
(291,120,cs),
(291,371,ls),
(291,442,o),
(234,499,o),
(163,499,cs)
);
}
);
width = 326;
}
);
unicode = 3665;
},
{
glyphname = "two-thai";
kernLeft = LL;
kernRight = XALL;
lastChange = "2022-11-25 18:34:06 +0000";
layers = (
{
layerId = m01;
shapes = (
{
closed = 1;
nodes = (
(235,347,o),
(251,330,o),
(251,310,cs),
(251,290,o),
(235,273,o),
(214,273,cs),
(194,273,o),
(178,290,o),
(178,310,cs),
(178,330,o),
(194,347,o),
(214,347,cs)
);
},
{
closed = 1;
nodes = (
(306,502,o),
(301,493,cs),
(256,413,ls),
(251,404,o),
(238,404,o),
(233,412,cs),
(188,493,ls),
(183,502,o),
(170,499,o),
(170,488,cs),
(170,312,ls),
(170,288,o),
(189,266,o),
(213,266,cs),
(241,265,o),
(263,290,o),
(258,318,cs),
(255,336,o),
(240,351,o),
(222,354,cs),
(204,357,o),
(187,348,o),
(178,335,c),
(178,488,ls),
(178,491,o),
(180,491,o),
(181,489,cs),
(227,409,ls),
(235,395,o),
(254,395,o),
(262,409,cs),
(308,489,ls),
(309,491,o),
(311,491,o),
(311,488,cs),
(311,121,ls),
(311,60,o),
(266,6,o),
(205,0,cs),
(135,-6,o),
(76,49,o),
(76,118,cs),
(76,564,ls),
(76,580,o),
(89,592,o),
(104,592,cs),
(109,592,l),
(109,600,l),
(35,600,l),
(35,592,l),
(68,592,l),
(68,121,ls),
(68,56,o),
(117,-1,o),
(182,-7,cs),
(256,-14,o),
(319,45,o),
(319,118,cs),
(319,488,ls),
(319,499,o)
);
}
);
width = 354;
}
);
unicode = 3666;
},
{
glyphname = "three-thai";
kernLeft = XALL;
kernRight = RL;
lastChange = "2022-11-25 18:34:06 +0000";
layers = (
{
guides = (
{
pos = (253,490);
}
);
layerId = m01;
shapes = (
{
closed = 1;
nodes = (
(100,73,o),
(116,56,o),
(116,36,cs),
(116,16,o),
(100,-1,o),
(79,-1,cs),
(59,-1,o),
(43,16,o),
(43,36,cs),
(43,56,o),
(59,73,o),
(79,73,cs)
);
},
{
closed = 1;
nodes = (
(267,488,ls),
(267,499,o),
(251,501,o),
(248,491,cs),
(164,208,ls),
(162,201,o),
(156,199,o),
(151,199,cs),
(146,199,o),
(140,201,o),
(138,208,cs),
(54,491,ls),
(51,502,o),
(35,500,o),
(35,488,cs),
(35,38,ls),
(35,14,o),
(54,-8,o),
(78,-8,cs),
(106,-9,o),
(128,16,o),
(123,44,cs),
(120,62,o),
(105,77,o),
(87,80,cs),
(68,83,o),
(52,74,o),
(43,61,c),
(43,487,ls),
(43,491,o),
(45,491,o),
(46,488,cs),
(131,206,ls),
(134,197,o),
(142,191,o),
(151,191,cs),
(160,191,o),
(168,197,o),
(171,206,cs),
(256,488,ls),
(257,491,o),
(259,491,o),
(259,488,cs),
(259,7,l),
(226,7,l),
(226,0,l),
(300,0,l),
(300,7,l),
(295,7,ls),
(279,7,o),
(267,20,o),
(267,36,cs)
);
}
);
width = 335;
}
);
unicode = 3667;
},
{
glyphname = "four-thai";
kernLeft = XALL;
kernRight = XALL;
lastChange = "2022-11-25 18:34:06 +0000";
layers = (
{
layerId = m01;
shapes = (
{
closed = 1;
nodes = (
(256,238,o),
(272,222,o),
(272,201,cs),
(272,181,o),
(256,165,o),
(235,165,cs),
(215,165,o),
(199,181,o),
(199,201,cs),
(199,222,o),
(215,238,o),
(235,238,cs)
);
},
{
closed = 1;
nodes = (
(209,164,o),
(221,157,o),
(235,157,cs),
(260,157,o),
(280,177,o),
(280,201,cs),
(280,226,o),
(260,246,o),
(235,246,cs),
(211,246,o),
(191,226,o),
(191,201,cs),
(191,123,o),
(237,54,o),
(276,10,cs),
(277,9,o),
(278,7,o),
(275,7,cs),
(165,7,ls),
(99,7,o),
(45,61,o),
(45,127,cs),
(43,397,ls),
(43,463,o),
(97,517,o),
(162,517,cs),
(216,517,o),
(264,550,o),
(282,600,c),
(275,603,l),
(258,556,o),
(212,524,o),
(162,524,cs),
(92,524,o),
(34,467,o),
(35,397,cs),
(38,127,ls),
(39,57,o),
(95,0,o),
(165,0,cs),
(275,0,ls),
(285,0,o),
(288,9,o),
(282,15,cs),
(248,53,o),
(209,109,o),
(201,174,c)
);
}
);
width = 319;
}
);
unicode = 3668;
},
{
glyphname = "five-thai";
kernLeft = XALL;
kernRight = XALL;
lastChange = "2022-11-25 18:34:06 +0000";
layers = (
{
layerId = m01;
shapes = (
{
closed = 1;
nodes = (
(72,573,o),
(88,590,o),
(109,590,cs),
(129,590,o),
(145,573,o),
(145,553,cs),
(145,533,o),
(129,516,o),
(109,516,cs),
(88,516,o),
(72,533,o),
(72,553,cs)
);
},
{
closed = 1;
nodes = (
(255,239,o),
(272,222,o),
(272,202,cs),
(272,182,o),
(255,165,o),
(235,165,cs),
(215,165,o),
(198,182,o),
(198,202,cs),
(198,222,o),
(215,239,o),
(235,239,cs)
);
},
{
closed = 1;
nodes = (
(208,165,o),
(221,158,o),
(235,158,cs),
(260,158,o),
(279,178,o),
(279,202,cs),
(279,226,o),
(260,246,o),
(235,246,cs),
(211,246,o),
(191,226,o),
(191,202,cs),
(191,123,o),
(237,55,o),
(276,11,cs),
(277,10,o),
(276,8,o),
(274,8,cs),
(165,8,ls),
(99,8,o),
(45,62,o),
(45,128,cs),
(43,397,ls),
(43,463,o),
(96,517,o),
(162,517,cs),
(215,517,o),
(263,551,o),
(282,601,c),
(274,603,l),
(257,556,o),
(212,524,o),
(162,524,cs),
(155,524,o),
(148,524,o),
(141,523,c),
(148,530,o),
(153,541,o),
(153,553,cs),
(153,577,o),
(133,597,o),
(109,597,cs),
(84,597,o),
(64,577,o),
(64,553,cs),
(64,531,o),
(81,513,o),
(102,509,c),
(62,488,o),
(35,446,o),
(35,397,cs),
(37,128,ls),
(37,58,o),
(95,0,o),
(165,0,cs),
(274,0,ls),
(282,0,o),
(288,10,o),
(282,16,cs),
(248,54,o),
(209,110,o),
(200,175,c)
);
}
);
width = 319;
}
);
unicode = 3669;
},
{
glyphname = "six-thai";
kernLeft = XALL;
kernRight = XALL;
lastChange = "2022-11-25 18:34:06 +0000";
layers = (
{
layerId = m01;
shapes = (
{
closed = 1;
nodes = (
(104,350,o),
(120,333,o),
(120,313,cs),
(120,293,o),
(104,276,o),
(83,276,cs),
(63,276,o),
(47,293,o),
(47,313,cs),
(47,333,o),
(63,350,o),
(83,350,cs)
);
},
{
closed = 1;
nodes = (
(105,523,o),
(60,555,o),
(42,602,c),
(35,599,l),
(54,549,o),
(102,515,o),
(155,515,cs),
(221,515,o),
(274,462,o),
(274,396,cs),
(274,113,ls),
(274,51,o),
(223,0,o),
(160,0,cs),
(98,0,o),
(47,51,o),
(47,113,cs),
(47,288,l),
(55,276,o),
(68,269,o),
(83,269,cs),
(108,269,o),
(128,288,o),
(128,313,cs),
(128,337,o),
(108,357,o),
(83,357,cs),
(59,357,o),
(39,337,o),
(39,313,cs),
(39,113,ls),
(39,46,o),
(94,-8,o),
(160,-8,cs),
(227,-8,o),
(282,46,o),
(282,113,cs),
(282,396,ls),
(282,466,o),
(225,523,o),
(155,523,cs)
);
}
);
width = 317;
}
);
unicode = 3670;
},
{
glyphname = "seven-thai";
kernLeft = XALL;
kernRight = RL;
lastChange = "2022-11-25 18:34:06 +0000";
layers = (
{
layerId = m01;
shapes = (
{
closed = 1;
nodes = (
(99,75,o),
(116,59,o),
(116,39,cs),
(116,18,o),
(99,2,o),
(79,2,cs),
(59,2,o),
(42,18,o),
(42,39,cs),
(42,59,o),
(59,75,o),
(79,75,cs)
);
},
{
closed = 1;
nodes = (
(254,592,l),
(287,592,l),
(287,55,ls),
(287,27,o),
(267,3,o),
(240,0,cs),
(209,-3,o),
(183,22,o),
(183,52,cs),
(183,515,ls),
(183,524,o),
(169,528,o),
(165,518,cs),
(121,401,ls),
(118,394,o),
(113,392,o),
(109,392,cs),
(104,392,o),
(99,394,o),
(96,401,cs),
(53,518,ls),
(49,528,o),
(35,525,o),
(35,515,cs),
(35,41,ls),
(35,16,o),
(53,-5,o),
(78,-6,cs),
(105,-6,o),
(128,18,o),
(122,47,cs),
(119,65,o),
(104,79,o),
(86,82,cs),
(68,85,o),
(51,77,o),
(42,63,c),
(42,515,ls),
(42,518,o),
(45,519,o),
(46,515,cs),
(89,398,ls),
(92,390,o),
(100,384,o),
(109,384,cs),
(118,384,o),
(125,390,o),
(128,398,cs),
(172,515,ls),
(173,518,o),
(176,517,o),
(176,515,cs),
(176,54,ls),
(176,24,o),
(197,-3,o),
(227,-7,cs),
(264,-11,o),
(295,17,o),
(295,52,cs),
(295,564,ls),
(295,579,o),
(307,592,o),
(323,592,cs),
(328,592,l),
(328,600,l),
(254,600,l)
);
}
);
width = 363;
}
);
unicode = 3671;
},
{
glyphname = "eight-thai";
kernLeft = XALL;
kernRight = XALL;
lastChange = "2022-11-25 18:34:06 +0000";
layers = (
{
layerId = m01;
shapes = (
{
closed = 1;
nodes = (
(230,274,o),
(213,291,o),
(213,311,cs),
(213,331,o),
(230,348,o),
(250,348,cs),
(270,348,o),
(287,331,o),
(287,311,cs),
(287,291,o),
(270,274,o),
(250,274,cs)
);
},
{
closed = 1;
nodes = (
(294,335,o),
(274,355,o),
(250,355,cs),
(225,355,o),
(206,335,o),
(206,311,cs),
(206,287,o),
(225,267,o),
(250,267,cs),
(265,267,o),
(279,275,o),
(287,287,c),
(287,1,ls),
(287,-2,o),
(285,-2,o),
(284,0,cs),
(183,178,ls),
(179,185,o),
(172,188,o),
(165,188,cs),
(158,188,o),
(151,185,o),
(147,178,cs),
(46,0,ls),
(45,-2,o),
(43,-2,o),
(43,1,cs),
(43,393,ls),
(43,459,o),
(96,513,o),
(162,513,cs),
(215,513,o),
(263,546,o),
(282,596,c),
(274,599,l),
(257,552,o),
(212,520,o),
(162,520,cs),
(92,520,o),
(35,463,o),
(35,393,cs),
(35,1,ls),
(35,-11,o),
(48,-13,o),
(53,-4,cs),
(154,174,ls),
(156,178,o),
(160,181,o),
(165,181,cs),
(170,181,o),
(174,178,o),
(176,174,cs),
(277,-4,ls),
(282,-13,o),
(295,-10,o),
(295,1,cs),
(294,311,ls)
);
}
);
width = 330;
}
);
unicode = 3672;
},
{
glyphname = "nine-thai";
kernLeft = XALL;
kernRight = XALL;
lastChange = "2022-11-25 18:34:06 +0000";
layers = (
{
layerId = m01;
shapes = (
{
closed = 1;
nodes = (
(88,57,o),
(104,73,o),
(124,73,cs),
(145,73,o),
(161,57,o),
(161,36,cs),
(161,16,o),
(145,0,o),
(124,0,cs),
(104,0,o),
(88,16,o),
(88,36,cs)
);
},
{
closed = 1;
nodes = (
(283,513,o),
(331,547,o),
(349,597,c),
(342,599,l),
(325,552,o),
(279,521,o),
(229,521,cs),
(214,521,o),
(201,516,o),
(192,506,cs),
(169,483,o),
(169,437,o),
(171,391,c),
(153,466,ls),
(147,493,o),
(123,513,o),
(95,513,cs),
(62,513,o),
(35,486,o),
(35,453,cs),
(35,82,ls),
(35,32,o),
(75,-8,o),
(124,-8,cs),
(149,-8,o),
(169,12,o),
(169,36,cs),
(169,61,o),
(149,81,o),
(124,81,cs),
(100,81,o),
(80,61,o),
(80,36,cs),
(80,25,o),
(85,14,o),
(92,6,c),
(63,19,o),
(42,48,o),
(42,82,cs),
(42,453,ls),
(42,482,o),
(66,505,o),
(95,505,cs),
(119,505,o),
(140,488,o),
(146,464,cs),
(253,1,l),
(261,3,l),
(183,338,ls),
(179,356,o),
(178,368,o),
(178,384,cs),
(178,429,o),
(176,479,o),
(197,501,cs),
(205,509,o),
(216,513,o),
(229,513,cs)
);
}
);
width = 364;
}
);
unicode = 3673;
},
{
glyphname = zero;
lastChange = "2022-11-25 18:34:06 +0000";
layers = (
{
layerId = m01;
shapes = (
{
closed = 1;
nodes = (
(235,-8,o),
(293,50,o),
(293,121,cs),
(293,478,ls),
(293,549,o),
(235,607,o),
(164,607,cs),
(93,607,o),
(35,549,o),
(35,478,cs),
(35,121,ls),
(35,50,o),
(93,-8,o),
(164,-8,cs)
);
},
{
closed = 1;
nodes = (
(97,0,o),
(42,54,o),
(42,121,cs),
(42,478,ls),
(42,545,o),
(97,600,o),
(164,600,cs),
(231,600,o),
(285,545,o),
(285,478,cs),
(285,121,ls),
(285,54,o),
(231,0,o),
(164,0,cs)
);
},
{
closed = 1;
nodes = (
(270,540,l),
(265,548,l),
(58,49,l),
(65,44,l)
);
}
);
width = 328;
}
);
unicode = 48;
},
{
glyphname = one;
lastChange = "2022-11-25 18:34:06 +0000";
layers = (
{
layerId = m01;
shapes = (
{
closed = 1;
nodes = (
(170,590,ls),
(170,606,o),
(152,608,o),
(146,597,cs),
(35,401,l),
(41,397,l),
(152,593,ls),
(155,598,o),
(163,597,o),
(163,590,cs),
(163,8,l),
(43,8,l),
(43,0,l),
(294,0,l),
(294,8,l),
(201,8,ls),
(184,8,o),
(170,22,o),
(170,39,cs)
);
}
);
width = 329;
}
);
unicode = 49;
},
{
glyphname = two;
lastChange = "2022-11-25 18:34:06 +0000";
layers = (
{
layerId = m01;
shapes = (
{
closed = 1;
nodes = (
(301,8,l),
(77,8,ls),
(59,8,o),
(51,29,o),
(60,40,c),
(263,340,ls),
(290,381,o),
(305,429,o),
(305,478,cs),
(305,549,o),
(247,608,o),
(176,608,cs),
(104,608,o),
(46,549,o),
(46,478,cs),
(46,398,l),
(13,398,l),
(13,391,l),
(88,391,l),
(88,398,l),
(85,398,ls),
(68,398,o),
(54,412,o),
(54,429,cs),
(54,478,ls),
(54,545,o),
(108,600,o),
(176,600,cs),
(243,600,o),
(298,545,o),
(298,478,cs),
(298,430,o),
(283,384,o),
(257,344,cs),
(53,45,ls),
(40,26,o),
(54,0,o),
(77,0,cs),
(301,0,l)
);
}
);
width = 339;
}
);
unicode = 50;
},
{
glyphname = three;
lastChange = "2022-11-25 18:34:06 +0000";
layers = (
{
layerId = m01;
shapes = (
{
closed = 1;
nodes = (
(309,557,o),
(262,605,o),
(203,605,cs),
(155,605,ls),
(97,605,o),
(49,557,o),
(49,499,c),
(57,499,l),
(57,553,o),
(101,597,o),
(155,597,cs),
(203,597,ls),
(258,597,o),
(302,553,o),
(302,499,cs),
(302,444,o),
(258,400,o),
(203,400,cs),
(153,400,l),
(153,393,l),
(203,393,ls),
(258,393,o),
(302,348,o),
(302,294,cs),
(302,123,ls),
(302,55,o),
(247,0,o),
(178,0,cs),
(110,0,o),
(55,55,o),
(55,123,cs),
(55,255,ls),
(55,272,o),
(69,286,o),
(86,286,cs),
(89,286,l),
(89,294,l),
(14,294,l),
(14,286,l),
(47,286,l),
(47,123,ls),
(47,51,o),
(106,-8,o),
(178,-8,cs),
(251,-8,o),
(309,51,o),
(309,123,cs),
(309,294,ls),
(309,343,o),
(276,384,o),
(231,396,c),
(276,409,o),
(309,450,o),
(309,499,cs)
);
}
);
width = 344;
}
);
unicode = 51;
},
{
glyphname = four;
lastChange = "2022-11-25 18:34:06 +0000";
layers = (
{
layerId = m01;
shapes = (
{
closed = 1;
nodes = (
(285,196,l),
(285,8,l),
(251,8,l),
(251,0,l),
(326,0,l),
(326,8,l),
(324,8,ls),
(307,8,o),
(293,22,o),
(293,39,cs),
(293,600,l),
(285,600,l),
(285,204,l),
(163,204,ls),
(96,204,o),
(42,258,o),
(42,324,cs),
(42,600,l),
(35,600,l),
(35,324,ls),
(35,254,o),
(92,196,o),
(163,196,cs)
);
}
);
width = 361;
}
);
unicode = 52;
},
{
glyphname = five;
lastChange = "2022-11-25 18:34:06 +0000";
layers = (
{
layerId = m01;
shapes = (
{
closed = 1;
nodes = (
(14,187,l),
(48,187,l),
(48,123,ls),
(48,88,o),
(61,55,o),
(86,30,cs),
(111,6,o),
(143,-8,o),
(178,-8,cs),
(250,-8,o),
(309,51,o),
(309,123,cs),
(309,268,ls),
(309,338,o),
(252,395,o),
(181,395,cs),
(80,395,ls),
(66,395,o),
(55,406,o),
(55,420,cs),
(55,570,ls),
(55,584,o),
(66,595,o),
(80,595,cs),
(303,595,l),
(303,602,l),
(80,602,ls),
(62,602,o),
(47,588,o),
(47,570,cs),
(47,420,ls),
(47,402,o),
(62,388,o),
(80,388,cs),
(181,388,ls),
(247,388,o),
(301,334,o),
(301,268,cs),
(301,123,ls),
(301,55,o),
(246,0,o),
(178,0,cs),
(145,0,o),
(114,12,o),
(91,36,cs),
(68,59,o),
(55,90,o),
(55,123,cs),
(55,156,ls),
(55,173,o),
(69,187,o),
(86,187,cs),
(89,187,l),
(89,195,l),
(14,195,l)
);
}
);
width = 344;
}
);
unicode = 53;
},
{
glyphname = six;
lastChange = "2022-11-25 18:34:06 +0000";
layers = (
{
layerId = m01;
shapes = (
{
closed = 1;
nodes = (
(228,427,o),
(282,374,o),
(282,308,cs),
(282,118,ls),
(282,52,o),
(228,-1,o),
(162,-1,cs),
(96,-1,o),
(43,52,o),
(43,118,cs),
(43,317,l),
(48,379,o),
(100,427,o),
(162,427,cs)
);
},
{
closed = 1;
nodes = (
(231,602,o),
(286,547,o),
(286,480,c),
(293,480,l),
(293,551,o),
(235,609,o),
(164,609,cs),
(93,609,o),
(35,551,o),
(35,480,cs),
(35,118,ls),
(35,48,o),
(92,-9,o),
(162,-9,cs),
(233,-9,o),
(290,48,o),
(290,118,cs),
(290,308,ls),
(290,378,o),
(233,435,o),
(162,435,cs),
(108,435,o),
(61,400,o),
(43,351,c),
(43,480,ls),
(43,547,o),
(97,602,o),
(164,602,cs)
);
}
);
width = 328;
}
);
unicode = 54;
},
{
glyphname = seven;
lastChange = "2022-11-25 18:34:06 +0000";
layers = (
{
layerId = m01;
shapes = (
{
closed = 1;
nodes = (
(62,598,l),
(62,591,l),
(298,591,ls),
(311,591,o),
(321,576,o),
(315,565,c),
(66,8,l),
(35,8,l),
(35,0,l),
(110,0,l),
(110,8,l),
(88,8,o),
(80,18,o),
(98,58,cs),
(322,562,ls),
(330,579,o),
(317,598,o),
(298,598,cs)
);
}
);
width = 349;
}
);
unicode = 55;
},
{
glyphname = eight;
lastChange = "2022-11-25 18:34:06 +0000";
layers = (
{
layerId = m01;
shapes = (
{
closed = 1;
nodes = (
(143,400,ls),
(89,400,o),
(45,444,o),
(45,499,cs),
(45,553,o),
(89,597,o),
(143,597,cs),
(191,597,ls),
(246,597,o),
(290,553,o),
(290,499,cs),
(290,444,o),
(246,400,o),
(191,400,cs)
);
},
{
closed = 1;
nodes = (
(290,123,ls),
(290,55,o),
(235,0,o),
(166,0,cs),
(98,0,o),
(43,55,o),
(43,123,cs),
(43,294,ls),
(43,348,o),
(87,393,o),
(141,393,cs),
(191,393,ls),
(246,393,o),
(290,348,o),
(290,294,cs)
);
},
{
closed = 1;
nodes = (
(297,557,o),
(250,605,o),
(191,605,cs),
(143,605,ls),
(85,605,o),
(37,557,o),
(37,499,cs),
(37,450,o),
(70,409,o),
(114,397,c),
(69,385,o),
(35,343,o),
(35,294,cs),
(35,123,ls),
(35,51,o),
(94,-8,o),
(166,-8,cs),
(239,-8,o),
(297,51,o),
(297,123,cs),
(297,294,ls),
(297,343,o),
(264,384,o),
(219,396,c),
(264,409,o),
(297,450,o),
(297,499,cs)
);
}
);
width = 332;
}
);
unicode = 56;
},
{
glyphname = nine;
lastChange = "2022-11-25 18:34:06 +0000";
layers = (
{
layerId = m01;
shapes = (
{
closed = 1;
nodes = (
(299,311,l),
(294,250,o),
(242,201,o),
(179,201,cs),
(113,201,o),
(60,255,o),
(60,321,cs),
(60,478,ls),
(60,544,o),
(113,598,o),
(179,598,cs),
(245,598,o),
(299,544,o),
(299,478,cs)
);
},
{
closed = 1;
nodes = (
(307,349,o),
(307,250,o),
(306,478,cs),
(306,548,o),
(249,605,o),
(179,605,cs),
(109,605,o),
(52,548,o),
(52,478,cs),
(52,321,ls),
(52,251,o),
(109,193,o),
(179,193,cs),
(234,193,o),
(281,228,o),
(299,277,c),
(299,121,ls),
(299,54,o),
(244,0,o),
(178,0,cs),
(128,0,o),
(84,31,o),
(65,74,cs),
(57,95,o),
(72,113,o),
(90,113,c),
(90,121,l),
(15,121,l),
(15,113,l),
(49,113,l),
(53,46,o),
(109,-8,o),
(178,-8,cs),
(249,-8,o),
(306,50,o),
(306,121,cs)
);
}
);
width = 342;
}
);
unicode = 57;
},
{
glyphname = fraction;
lastChange = "2022-11-25 18:34:06 +0000";
layers = (
{
layerId = m01;
shapes = (
{
closed = 1;
nodes = (
(111,0,l),
(236,600,l),
(228,600,l),
(103,0,l)
);
}
);
width = 340;
}
);
unicode = 8260;
},
{
glyphname = onehalf;
lastChange = "2022-11-25 18:34:06 +0000";
layers = (
{
layerId = m01;
shapes = (
{
closed = 1;
nodes = (
(112,0,l),
(237,600,l),
(229,600,l),
(104,0,l)
);
},
{
closed = 1;
nodes = (
(134,414,ls),
(119,414,o),
(106,427,o),
(106,442,cs),
(106,592,ls),
(106,600,o),
(98,602,o),
(94,595,cs),
(59,535,l),
(66,531,l),
(99,589,l),
(99,414,l),
(64,414,l),
(64,407,l),
(141,407,l),
(141,414,l)
);
},
{
closed = 1;
nodes = (
(280,0,l),
(212,0,ls),
(203,0,o),
(196,8,o),
(202,17,cs),
(265,112,ls),
(273,123,o),
(277,137,o),
(277,151,cs),
(277,170,o),
(261,186,o),
(242,186,cs),
(223,186,o),
(207,170,o),
(207,151,cs),
(207,127,l),
(199,127,l),
(199,151,ls),
(199,174,o),
(219,194,o),
(242,194,cs),
(265,194,o),
(284,174,o),
(284,151,cs),
(284,135,o),
(280,120,o),
(271,107,cs),
(208,13,ls),
(206,10,o),
(208,7,o),
(212,7,cs),
(280,7,l)
);
}
);
width = 329;
}
);
unicode = 189;
},
{
glyphname = onequarter;
lastChange = "2022-11-25 18:34:06 +0000";
layers = (
{
layerId = m01;
shapes = (
{
closed = 1;
nodes = (
(112,0,l),
(237,600,l),
(229,600,l),
(104,0,l)
);
},
{
closed = 1;
nodes = (
(134,414,ls),
(119,414,o),
(106,427,o),
(106,442,cs),
(106,592,ls),
(106,600,o),
(98,602,o),
(94,595,cs),
(59,535,l),
(66,531,l),
(99,589,l),
(99,414,l),
(64,414,l),
(64,407,l),
(141,407,l),
(141,414,l)
);
},
{
closed = 1;
nodes = (
(276,193,l),
(276,74,l),
(241,74,ls),
(222,74,o),
(206,90,o),
(206,109,cs),
(206,193,l),
(199,193,l),
(199,109,ls),
(199,86,o),
(217,67,o),
(241,67,cs),
(276,67,l),
(276,-1,l),
(283,-1,l),
(283,193,l)
);
}
);
width = 329;
}
);
unicode = 188;
},
{
glyphname = threequarters;
lastChange = "2022-11-25 18:34:06 +0000";
layers = (
{
layerId = m01;
shapes = (
{
closed = 1;
nodes = (
(112,0,l),
(237,600,l),
(229,600,l),
(104,0,l)
);
},
{
closed = 1;
nodes = (
(276,193,l),
(276,74,l),
(241,74,ls),
(222,74,o),
(206,90,o),
(206,109,cs),
(206,193,l),
(199,193,l),
(199,109,ls),
(199,86,o),
(217,67,o),
(241,67,cs),
(276,67,l),
(276,-1,l),
(283,-1,l),
(283,193,l)
);
},
{
closed = 1;
nodes = (
(138,539,o),
(145,551,o),
(145,564,cs),
(145,584,o),
(130,600,o),
(110,600,cs),
(95,600,ls),
(76,600,o),
(60,584,o),
(60,564,c),
(68,564,l),
(68,580,o),
(80,592,o),
(95,592,cs),
(110,592,ls),
(126,592,o),
(138,580,o),
(138,564,cs),
(138,549,o),
(126,537,o),
(110,537,cs),
(95,537,l),
(95,529,l),
(110,529,ls),
(126,529,o),
(138,517,o),
(138,502,cs),
(138,446,ls),
(138,427,o),
(122,411,o),
(103,411,cs),
(83,411,o),
(67,427,o),
(67,446,cs),
(67,502,l),
(60,502,l),
(60,446,ls),
(60,422,o),
(79,403,o),
(103,403,cs),
(126,403,o),
(145,422,o),
(145,446,cs),
(145,502,ls),
(145,515,o),
(138,527,o),
(126,533,c)
);
}
);
width = 344;
}
);
unicode = 190;
},
{
glyphname = onesuperior;
lastChange = "2022-11-25 18:34:06 +0000";
layers = (
{
layerId = m01;
shapes = (
{
closed = 1;
nodes = (
(110,565,ls),
(95,565,o),
(82,578,o),
(82,593,cs),
(82,743,ls),
(82,751,o),
(74,753,o),
(70,746,cs),
(35,686,l),
(42,682,l),
(75,740,l),
(75,565,l),
(40,565,l),
(40,558,l),
(117,558,l),
(117,565,l)
);
}
);
width = 152;
}
);
metricLeft = one;
metricRight = one;
unicode = 185;
},
{
glyphname = twosuperior;
lastChange = "2022-11-25 18:34:06 +0000";
layers = (
{
layerId = m01;
shapes = (
{
closed = 1;
nodes = (
(94,558,l),
(26,558,ls),
(17,558,o),
(10,566,o),
(16,575,cs),
(79,670,ls),
(87,681,o),
(91,695,o),
(91,709,cs),
(91,728,o),
(75,744,o),
(56,744,cs),
(37,744,o),
(21,728,o),
(21,709,cs),
(21,685,l),
(13,685,l),
(13,709,ls),
(13,732,o),
(33,752,o),
(56,752,cs),
(79,752,o),
(98,732,o),
(98,709,cs),
(98,693,o),
(94,678,o),
(85,665,cs),
(22,571,ls),
(20,568,o),
(22,565,o),
(26,565,cs),
(94,565,l)
);
}
);
width = 132;
}
);
metricLeft = two;
metricRight = two;
unicode = 178;
},
{
glyphname = threesuperior;
lastChange = "2022-11-25 18:34:06 +0000";
layers = (
{
layerId = m01;
shapes = (
{
closed = 1;
nodes = (
(92,692,o),
(99,704,o),
(99,717,cs),
(99,737,o),
(84,753,o),
(64,753,cs),
(49,753,ls),
(30,753,o),
(14,737,o),
(14,717,c),
(22,717,l),
(22,733,o),
(34,745,o),
(49,745,cs),
(64,745,ls),
(80,745,o),
(92,733,o),
(92,717,cs),
(92,702,o),
(80,690,o),
(64,690,cs),
(49,690,l),
(49,682,l),
(64,682,ls),
(80,682,o),
(92,670,o),
(92,655,cs),
(92,599,ls),
(92,580,o),
(76,564,o),
(57,564,cs),
(37,564,o),
(21,580,o),
(21,599,cs),
(21,655,l),
(14,655,l),
(14,599,ls),
(14,575,o),
(33,556,o),
(57,556,cs),
(80,556,o),
(99,575,o),
(99,599,cs),
(99,655,ls),
(99,668,o),
(92,680,o),
(80,686,c)
);
}
);
width = 134;
}
);
metricLeft = three;
metricRight = three;
unicode = 179;
},
{
glyphname = foursuperior;
lastChange = "2022-11-25 18:34:06 +0000";
layers = (
{
layerId = m01;
shapes = (
{
closed = 1;
nodes = (
(112,750,l),
(112,631,l),
(77,631,ls),
(58,631,o),
(42,647,o),
(42,666,cs),
(42,750,l),
(35,750,l),
(35,666,ls),
(35,643,o),
(53,624,o),
(77,624,cs),
(112,624,l),
(112,556,l),
(119,556,l),
(119,750,l)
);
}
);
width = 154;
}
);
metricLeft = four;
metricRight = four;
unicode = 8308;
},
{
glyphname = .notdef;
lastChange = "2022-11-25 18:34:06 +0000";
layers = (
{
layerId = m01;
shapes = (
{
closed = 1;
nodes = (
(79,346,l),
(79,400,l),
(71,400,l),
(71,346,l)
);
},
{
closed = 1;
nodes = (
(289,346,l),
(289,400,l),
(281,400,l),
(281,346,l)
);
},
{
closed = 1;
nodes = (
(178,253,l)
);
},
{
closed = 1;
nodes = (
(178,320,l),
(143,319,o),
(114,289,o),
(114,253,c),
(247,253,l),
(247,290,o),
(217,320,o),
(180,320,cs),
(179,320,o),
(179,320,o),
(178,320,c),
(178,312,l),
(179,312,o),
(179,312,o),
(180,312,cs),
(213,312,o),
(239,286,o),
(239,253,c),
(178,253,l),
(122,253,l),
(122,285,o),
(147,311,o),
(178,312,c)
);
},
{
closed = 1;
nodes = (
(146,600,l),
(37,600,ls),
(26,600,o),
(17,590,o),
(17,579,cs),
(17,21,ls),
(17,9,o),
(26,0,o),
(37,0,cs),
(146,0,l),
(146,8,l),
(37,8,ls),
(30,8,o),
(24,13,o),
(24,21,cs),
(24,579,ls),
(24,586,o),
(30,592,o),
(37,592,cs),
(146,592,l)
);
},
{
closed = 1;
nodes = (
(145,0,l),
(323,0,ls),
(334,0,o),
(343,10,o),
(343,21,cs),
(343,579,ls),
(343,591,o),
(334,600,o),
(323,600,cs),
(145,600,l),
(145,592,l),
(323,592,ls),
(330,592,o),
(336,587,o),
(336,579,cs),
(336,21,ls),
(336,14,o),
(330,8,o),
(323,8,cs),
(145,8,l)
);
}
);
width = 360;
}
);
},
{
glyphname = "angkhankhu-thai";
lastChange = "2022-11-25 18:34:06 +0000";
layers = (
{
layerId = m01;
shapes = (
{
closed = 1;
nodes = (
(90,591,o),
(106,574,o),
(106,554,cs),
(106,534,o),
(90,517,o),
(70,517,cs),
(49,517,o),
(33,534,o),
(33,554,cs),
(33,574,o),
(49,591,o),
(70,591,cs)
);
},
{
closed = 1;
nodes = (
(267,513,ls),
(266,449,o),
(214,397,o),
(150,397,cs),
(85,397,o),
(33,450,o),
(33,515,cs),
(33,529,l),
(41,517,o),
(54,510,o),
(70,510,cs),
(94,510,o),
(114,529,o),
(114,554,cs),
(114,578,o),
(94,598,o),
(70,598,cs),
(45,598,o),
(25,578,o),
(25,554,cs),
(25,515,ls),
(25,446,o),
(81,390,o),
(150,390,cs),
(205,390,o),
(252,426,o),
(268,476,c),
(268,0,l),
(276,0,l),
(276,599,l),
(268,599,l)
);
},
{
closed = 1;
nodes = (
(320,0,l),
(327,0,l),
(327,599,l),
(320,599,l)
);
}
);
width = 352;
}
);
unicode = 3674;
},
{
glyphname = "fongman-thai";
lastChange = "2022-11-25 18:34:06 +0000";
layers = (
{
layerId = m01;
shapes = (
{
closed = 1;
nodes = (
(534,-16,o),
(675,125,o),
(675,299,cs),
(675,473,o),
(534,614,o),
(360,614,cs),
(186,614,o),
(45,473,o),
(45,299,cs),
(45,125,o),
(186,-16,o),
(360,-16,cs)
);
},
{
closed = 1;
nodes = (
(190,-8,o),
(53,129,o),
(53,299,cs),
(53,468,o),
(190,606,o),
(360,606,cs),
(529,606,o),
(667,468,o),
(667,299,cs),
(667,129,o),
(529,-8,o),
(360,-8,cs)
);
},
{
closed = 1;
nodes = (
(460,118,o),
(541,199,o),
(541,299,cs),
(541,399,o),
(460,480,o),
(360,480,cs),
(260,480,o),
(179,399,o),
(179,299,cs),
(179,199,o),
(260,118,o),
(360,118,cs)
);
},
{
closed = 1;
nodes = (
(265,127,o),
(188,204,o),
(188,299,cs),
(188,394,o),
(265,471,o),
(360,471,cs),
(456,471,o),
(533,394,o),
(533,299,cs),
(533,204,o),
(456,127,o),
(360,127,cs)
);
}
);
width = 720;
}
);
unicode = 3663;
},
{
glyphname = "khomut-thai";
lastChange = "2022-11-25 18:34:06 +0000";
layers = (
{
layerId = m01;
shapes = (
{
closed = 1;
nodes = (
(76,-7,o),
(25,44,o),
(25,106,cs),
(25,520,ls),
(25,568,o),
(64,607,o),
(112,607,cs),
(160,607,o),
(199,568,o),
(199,520,cs),
(199,170,ls),
(199,138,o),
(173,113,o),
(142,113,cs),
(110,113,o),
(85,138,o),
(85,170,cs),
(85,436,ls),
(85,455,o),
(100,471,o),
(119,471,cs),
(138,471,o),
(154,455,o),
(154,436,cs),
(154,359,l),
(146,359,l),
(146,436,ls),
(146,451,o),
(134,463,o),
(119,463,cs),
(104,463,o),
(92,451,o),
(92,436,cs),
(92,170,ls),
(92,143,o),
(114,120,o),
(142,120,cs),
(169,120,o),
(192,143,o),
(192,170,cs),
(192,520,ls),
(192,564,o),
(156,599,o),
(112,599,cs),
(68,599,o),
(32,564,o),
(32,520,cs),
(32,106,ls),
(32,48,o),
(80,0,o),
(138,0,cs),
(197,0,o),
(244,48,o),
(244,106,cs),
(244,434,ls),
(244,437,o),
(249,439,o),
(251,436,cs),
(254,431,o),
(304,345,o),
(317,247,c),
(336,426,ls),
(337,431,o),
(342,430,o),
(343,427,cs),
(344,425,o),
(386,340,o),
(395,251,c),
(402,290,o),
(414,360,o),
(414,408,cs),
(414,412,o),
(420,414,o),
(422,409,cs),
(423,406,o),
(446,297,o),
(522,297,c),
(522,290,l),
(463,290,o),
(433,350,o),
(421,385,c),
(417,315,o),
(397,226,o),
(396,220,cs),
(395,216,o),
(389,216,o),
(389,221,cs),
(389,299,o),
(355,381,o),
(342,412,c),
(320,204,ls),
(320,200,o),
(312,200,o),
(312,204,cs),
(312,296,o),
(269,387,o),
(252,419,c),
(252,106,ls),
(252,44,o),
(201,-7,o),
(138,-7,cs)
);
}
);
width = 547;
}
);
unicode = 3675;
},
{
glyphname = "maiyamok-thai";
lastChange = "2022-11-25 18:34:06 +0000";
layers = (
{
layerId = m01;
shapes = (
{
closed = 1;
nodes = (
(90,532,o),
(106,515,o),
(106,495,cs),
(106,475,o),
(90,458,o),
(69,458,cs),
(49,458,o),
(33,475,o),
(33,495,cs),
(33,515,o),
(49,532,o),
(69,532,cs)
);
},
{
closed = 1;
nodes = (
(131,607,o),
(117,598,o),
(109,580,c),
(102,596,o),
(87,607,o),
(69,607,cs),
(45,607,o),
(25,587,o),
(25,563,cs),
(25,495,ls),
(25,471,o),
(45,451,o),
(69,451,cs),
(94,451,o),
(114,471,o),
(114,495,cs),
(114,519,o),
(94,539,o),
(69,539,cs),
(54,539,o),
(41,531,o),
(33,520,c),
(33,563,ls),
(33,583,o),
(49,599,o),
(69,599,cs),
(89,599,o),
(105,583,o),
(105,563,c),
(113,563,l),
(113,583,o),
(129,599,o),
(148,599,cs),
(169,599,o),
(186,582,o),
(186,561,cs),
(186,-91,l),
(193,-91,l),
(193,561,ls),
(193,586,o),
(174,607,o),
(150,607,cs)
);
}
);
width = 218;
}
);
unicode = 3654;
},
{
glyphname = "paiyannoi-thai";
lastChange = "2022-11-25 18:34:06 +0000";
layers = (
{
layerId = m01;
shapes = (
{
closed = 1;
nodes = (
(90,591,o),
(106,574,o),
(106,554,cs),
(106,534,o),
(90,517,o),
(70,517,cs),
(49,517,o),
(33,534,o),
(33,554,cs),
(33,574,o),
(49,591,o),
(70,591,cs)
);
},
{
closed = 1;
nodes = (
(267,513,ls),
(266,449,o),
(214,397,o),
(150,397,cs),
(85,397,o),
(33,450,o),
(33,515,cs),
(33,529,l),
(41,517,o),
(54,510,o),
(70,510,cs),
(94,510,o),
(114,529,o),
(114,554,cs),
(114,578,o),
(94,598,o),
(70,598,cs),
(45,598,o),
(25,578,o),
(25,554,cs),
(25,515,ls),
(25,446,o),
(81,390,o),
(150,390,cs),
(205,390,o),
(252,426,o),
(268,476,c),
(268,0,l),
(276,0,l),
(276,599,l),
(268,599,l)
);
}
);
width = 301;
}
);
unicode = 3631;
},
{
glyphname = period;
lastChange = "2022-11-25 18:34:06 +0000";
layers = (
{
layerId = m01;
shapes = (
{
closed = 1;
nodes = (
(32,28,o),
(25,22,o),
(25,14,cs),
(25,6,o),
(32,0,o),
(40,0,cs),
(47,0,o),
(54,6,o),
(54,14,cs),
(54,22,o),
(47,28,o),
(40,28,cs)
);
}
);
width = 79;
}
);
unicode = 46;
},
{
glyphname = comma;
lastChange = "2022-11-25 18:34:06 +0000";
layers = (
{
layerId = m01;
shapes = (
{
closed = 1;
nodes = (
(31,62,l),
(38,62,l),
(25,0,l),
(32,0,l),
(48,76,l),
(34,76,l)
);
}
);
width = 73;
}
);
unicode = 44;
},
{
glyphname = colon;
lastChange = "2022-11-25 18:34:06 +0000";
layers = (
{
layerId = m01;
shapes = (
{
closed = 1;
nodes = (
(32,131,o),
(25,125,o),
(25,117,cs),
(25,109,o),
(32,103,o),
(40,103,cs),
(47,103,o),
(54,109,o),
(54,117,cs),
(54,125,o),
(47,131,o),
(40,131,cs)
);
},
{
closed = 1;
nodes = (
(32,338,o),
(25,332,o),
(25,324,cs),
(25,316,o),
(32,310,o),
(40,310,cs),
(47,310,o),
(54,316,o),
(54,324,cs),
(54,332,o),
(47,338,o),
(40,338,cs)
);
}
);
width = 79;
}
);
unicode = 58;
},
{
glyphname = semicolon;
lastChange = "2022-11-25 18:34:06 +0000";
layers = (
{
layerId = m01;
shapes = (
{
closed = 1;
nodes = (
(32,338,o),
(25,332,o),
(25,324,cs),
(25,316,o),
(32,310,o),
(40,310,cs),
(47,310,o),
(54,316,o),
(54,324,cs),
(54,332,o),
(47,338,o),
(40,338,cs)
);
},
{
closed = 1;
nodes = (
(31,120,l),
(38,120,l),
(25,58,l),
(32,58,l),
(48,134,l),
(34,134,l)
);
}
);
width = 79;
}
);
unicode = 59;
},
{
glyphname = ellipsis;
lastChange = "2022-11-25 18:34:06 +0000";
layers = (
{
layerId = m01;
shapes = (
{
closed = 1;
nodes = (
(32,28,o),
(25,22,o),
(25,14,cs),
(25,6,o),
(32,0,o),
(40,0,cs),
(47,0,o),
(54,6,o),
(54,14,cs),
(54,22,o),
(47,28,o),
(40,28,cs)
);
},
{
closed = 1;
nodes = (
(102,28,o),
(95,22,o),
(95,14,cs),
(95,6,o),
(102,0,o),
(110,0,cs),
(117,0,o),
(124,6,o),
(124,14,cs),
(124,22,o),
(117,28,o),
(110,28,cs)
);
},
{
closed = 1;
nodes = (
(172,28,o),
(165,22,o),
(165,14,cs),
(165,6,o),
(172,0,o),
(180,0,cs),
(187,0,o),
(194,6,o),
(194,14,cs),
(194,22,o),
(187,28,o),
(180,28,cs)
);
}
);
width = 219;
}
);
unicode = 8230;
},
{
glyphname = exclam;
lastChange = "2022-11-25 18:34:06 +0000";
layers = (
{
layerId = m01;
shapes = (
{
closed = 1;
nodes = (
(32,28,o),
(25,22,o),
(25,14,cs),
(25,6,o),
(32,0,o),
(39,0,cs),
(47,0,o),
(54,6,o),
(54,14,cs),
(54,22,o),
(47,28,o),
(39,28,cs)
);
},
{
closed = 1;
nodes = (
(36,92,l),
(43,92,l),
(43,604,l),
(36,604,l)
);
}
);
width = 79;
}
);
unicode = 33;
},
{
glyphname = exclamdown;
lastChange = "2022-11-25 18:34:06 +0000";
layers = (
{
layerId = m01;
shapes = (
{
closed = 1;
nodes = (
(47,575,o),
(54,582,o),
(54,590,cs),
(54,597,o),
(47,604,o),
(40,604,cs),
(32,604,o),
(25,597,o),
(25,590,cs),
(25,582,o),
(32,575,o),
(40,575,cs)
);
},
{
closed = 1;
nodes = (
(36,0,l),
(43,0,l),
(43,512,l),
(36,512,l)
);
}
);
width = 79;
}
);
unicode = 161;
},
{
glyphname = question;
lastChange = "2022-11-25 18:34:06 +0000";
layers = (
{
layerId = m01;
shapes = (
{
closed = 1;
nodes = (
(88,28,o),
(81,22,o),
(81,14,cs),
(81,6,o),
(88,0,o),
(96,0,cs),
(103,0,o),
(110,6,o),
(110,14,cs),
(110,22,o),
(103,28,o),
(96,28,cs)
);
},
{
closed = 1;
nodes = (
(55,618,o),
(25,587,o),
(25,550,cs),
(25,409,l),
(33,409,l),
(33,550,ls),
(33,583,o),
(60,610,o),
(93,610,cs),
(126,610,o),
(153,583,o),
(153,550,cs),
(153,302,ls),
(153,287,o),
(141,274,o),
(126,274,cs),
(106,274,o),
(90,259,o),
(90,239,cs),
(90,92,l),
(98,92,l),
(98,239,ls),
(98,255,o),
(110,267,o),
(126,267,cs),
(145,267,o),
(161,283,o),
(161,302,cs),
(161,550,ls),
(161,587,o),
(130,618,o),
(93,618,cs)
);
}
);
width = 186;
}
);
unicode = 63;
},
{
glyphname = questiondown;
lastChange = "2022-11-25 18:34:06 +0000";
layers = (
{
layerId = m01;
shapes = (
{
closed = 1;
nodes = (
(98,589,o),
(105,596,o),
(105,603,cs),
(105,611,o),
(98,618,o),
(90,618,cs),
(83,618,o),
(76,611,o),
(76,603,cs),
(76,596,o),
(83,589,o),
(90,589,cs)
);
},
{
closed = 1;
nodes = (
(130,0,o),
(161,30,o),
(161,68,cs),
(161,208,l),
(153,208,l),
(153,68,ls),
(153,35,o),
(126,8,o),
(93,8,cs),
(60,8,o),
(33,35,o),
(33,68,cs),
(33,316,ls),
(33,331,o),
(45,343,o),
(60,343,cs),
(80,343,o),
(95,359,o),
(95,378,cs),
(95,525,l),
(88,525,l),
(88,378,ls),
(88,363,o),
(76,351,o),
(60,351,cs),
(41,351,o),
(25,335,o),
(25,316,cs),
(25,68,ls),
(25,30,o),
(56,0,o),
(93,0,cs)
);
}
);
width = 186;
}
);
unicode = 191;
},
{
glyphname = periodcentered;
lastChange = "2022-11-25 18:34:06 +0000";
layers = (
{
layerId = m01;
shapes = (
{
closed = 1;
nodes = (
(112,308,o),
(105,302,o),
(105,294,cs),
(105,286,o),
(112,280,o),
(120,280,cs),
(127,280,o),
(134,286,o),
(134,294,cs),
(134,302,o),
(127,308,o),
(120,308,cs)
);
}
);
width = 239;
}
);
unicode = 183;
},
{
glyphname = bullet;
lastChange = "2022-11-25 18:34:06 +0000";
layers = (
{
layerId = m01;
shapes = (
{
closed = 1;
nodes = (
(140,374,o),
(105,344,o),
(105,304,cs),
(105,264,o),
(140,234,o),
(180,234,cs),
(215,234,o),
(250,264,o),
(250,304,cs),
(250,344,o),
(215,374,o),
(180,374,cs)
);
}
);
width = 355;
}
);
unicode = 8226;
},
{
glyphname = asterisk;
lastChange = "2022-11-25 18:34:06 +0000";
layers = (
{
layerId = m01;
shapes = (
{
closed = 1;
nodes = (
(181,600,l),
(181,519,l),
(109,561,l),
(105,555,l),
(178,513,l),
(105,472,l),
(109,465,l),
(181,507,l),
(181,427,l),
(188,427,l),
(188,507,l),
(260,465,l),
(264,472,l),
(192,513,l),
(264,555,l),
(260,561,l),
(188,519,l),
(188,600,l)
);
}
);
width = 369;
}
);
unicode = 42;
},
{
glyphname = numbersign;
lastChange = "2022-11-25 18:34:06 +0000";
layers = (
{
layerId = m01;
shapes = (
{
closed = 1;
nodes = (
(299,610,l),
(275,498,l),
(157,498,l),
(181,610,l),
(173,610,l),
(150,498,l),
(92,498,l),
(92,490,l),
(148,490,l),
(111,312,l),
(49,312,l),
(49,304,l),
(109,304,l),
(45,0,l),
(52,0,l),
(117,304,l),
(235,304,l),
(170,0,l),
(178,0,l),
(243,304,l),
(298,304,l),
(298,312,l),
(244,312,l),
(281,490,l),
(341,490,l),
(341,498,l),
(283,498,l),
(306,610,l)
);
},
{
closed = 1;
nodes = (
(156,490,l),
(274,490,l),
(237,312,l),
(119,312,l)
);
}
);
width = 386;
}
);
unicode = 35;
},
{
glyphname = slash;
lastChange = "2022-11-25 18:34:06 +0000";
layers = (
{
layerId = m01;
shapes = (
{
closed = 1;
nodes = (
(170,600,l),
(45,0,l),
(53,0,l),
(178,600,l)
);
}
);
width = 223;
}
);
unicode = 47;
},
{
glyphname = backslash;
lastChange = "2022-11-25 18:34:06 +0000";
layers = (
{
layerId = m01;
shapes = (
{
closed = 1;
nodes = (
(52,600,l),
(45,600,l),
(170,0,l),
(177,0,l)
);
}
);
width = 222;
}
);
unicode = 92;
},
{
glyphname = hyphen;
lastChange = "2022-11-25 18:34:06 +0000";
layers = (
{
layerId = m01;
shapes = (
{
closed = 1;
nodes = (
(45,290,l),
(255,290,l),
(255,298,l),
(45,298,l)
);
}
);
width = 300;
}
);
unicode = 45;
},
{
glyphname = endash;
lastChange = "2022-11-25 18:34:06 +0000";
layers = (
{
layerId = m01;
shapes = (
{
closed = 1;
nodes = (
(45,290,l),
(299,290,l),
(299,298,l),
(45,298,l)
);
}
);
width = 344;
}
);
unicode = 8211;
},
{
glyphname = emdash;
lastChange = "2022-12-13 16:40:10 +0000";
layers = (
{
layerId = m01;
shapes = (
{
closed = 1;
nodes = (
(45,290,l),
(425,290,l),
(425,298,l),
(45,298,l)
);
}
);
width = 470;
}
);
unicode = 8212;
},
{
glyphname = underscore;
lastChange = "2022-11-25 18:34:06 +0000";
layers = (
{
layerId = m01;
shapes = (
{
closed = 1;
nodes = (
(45,-50,l),
(355,-50,l),
(355,-42,l),
(45,-42,l)
);
}
);
width = 400;
}
);
unicode = 95;
},
{
glyphname = parenleft;
lastChange = "2022-11-25 18:34:06 +0000";
layers = (
{
layerId = m01;
shapes = (
{
closed = 1;
nodes = (
(45,121,ls),
(45,50,o),
(103,-8,o),
(174,-8,c),
(174,0,l),
(107,0,o),
(52,54,o),
(52,121,cs),
(52,479,ls),
(52,546,o),
(107,600,o),
(174,600,c),
(174,608,l),
(103,608,o),
(45,550,o),
(45,479,cs)
);
}
);
width = 219;
}
);
unicode = 40;
},
{
glyphname = parenright;
lastChange = "2022-11-29 18:50:08 +0000";
layers = (
{
layerId = m01;
shapes = (
{
closed = 1;
nodes = (
(174,479,ls),
(174,550,o),
(116,608,o),
(45,608,c),
(45,600,l),
(112,600,o),
(166,546,o),
(166,479,cs),
(166,121,ls),
(166,54,o),
(112,0,o),
(45,0,c),
(45,-8,l),
(116,-8,o),
(174,50,o),
(174,121,cs)
);
}
);
width = 219;
}
);
unicode = 41;
},
{
glyphname = braceleft;
lastChange = "2022-11-25 18:34:06 +0000";
layers = (
{
layerId = m01;
shapes = (
{
closed = 1;
nodes = (
(45,366,ls),
(45,337,o),
(63,313,o),
(89,304,c),
(63,295,o),
(45,270,o),
(45,241,cs),
(45,32,ls),
(45,14,o),
(59,0,o),
(77,0,cs),
(174,0,l),
(174,8,l),
(77,8,ls),
(63,8,o),
(52,19,o),
(52,32,cs),
(52,241,ls),
(52,274,o),
(79,300,o),
(111,300,c),
(111,308,l),
(79,308,o),
(52,334,o),
(52,366,cs),
(52,575,ls),
(52,589,o),
(63,600,o),
(77,600,cs),
(174,600,l),
(174,608,l),
(77,608,ls),
(59,608,o),
(45,593,o),
(45,575,cs)
);
}
);
width = 219;
}
);
unicode = 123;
},
{
glyphname = braceright;
lastChange = "2022-11-25 18:34:06 +0000";
layers = (
{
layerId = m01;
shapes = (
{
closed = 1;
nodes = (
(174,241,ls),
(174,270,o),
(155,295,o),
(129,304,c),
(155,313,o),
(174,337,o),
(174,366,cs),
(174,575,ls),
(174,593,o),
(159,608,o),
(142,608,cs),
(45,608,l),
(45,600,l),
(142,600,ls),
(155,600,o),
(166,589,o),
(166,575,cs),
(166,366,ls),
(166,334,o),
(140,308,o),
(107,308,c),
(107,300,l),
(140,300,o),
(166,274,o),
(166,241,cs),
(166,32,ls),
(166,19,o),
(155,8,o),
(142,8,cs),
(45,8,l),
(45,0,l),
(142,0,ls),
(159,0,o),
(174,14,o),
(174,32,cs)
);
}
);
width = 219;
}
);
unicode = 125;
},
{
glyphname = bracketleft;
lastChange = "2022-11-25 18:34:06 +0000";
layers = (
{
layerId = m01;
shapes = (
{
closed = 1;
nodes = (
(45,32,ls),
(45,14,o),
(59,0,o),
(77,0,cs),
(174,0,l),
(174,8,l),
(77,8,ls),
(63,8,o),
(52,19,o),
(52,32,cs),
(52,575,ls),
(52,589,o),
(63,600,o),
(77,600,cs),
(174,600,l),
(174,608,l),
(77,608,ls),
(59,608,o),
(45,593,o),
(45,575,cs)
);
}
);
width = 219;
}
);
unicode = 91;
},
{
glyphname = bracketright;
lastChange = "2022-11-25 18:34:06 +0000";
layers = (
{
layerId = m01;
shapes = (
{
closed = 1;
nodes = (
(174,575,ls),
(174,593,o),
(159,608,o),
(142,608,cs),
(45,608,l),
(45,600,l),
(142,600,ls),
(155,600,o),
(166,589,o),
(166,575,cs),
(166,32,ls),
(166,19,o),
(155,8,o),
(142,8,cs),
(45,8,l),
(45,0,l),
(142,0,ls),
(159,0,o),
(174,14,o),
(174,32,cs)
);
}
);
width = 219;
}
);
unicode = 93;
},
{
glyphname = quotesinglbase;
lastChange = "2022-11-25 18:34:06 +0000";
layers = (
{
layerId = m01;
shapes = (
{
closed = 1;
nodes = (
(51,62,l),
(58,62,l),
(45,0,l),
(52,0,l),
(68,76,l),
(54,76,l)
);
}
);
width = 113;
}
);
unicode = 8218;
},
{
glyphname = quotedblbase;
lastChange = "2022-11-25 18:34:06 +0000";
layers = (
{
layerId = m01;
shapes = (
{
closed = 1;
nodes = (
(51,62,l),
(58,62,l),
(45,0,l),
(52,0,l),
(68,76,l),
(54,76,l)
);
},
{
closed = 1;
nodes = (
(87,76,l),
(84,62,l),
(91,62,l),
(78,0,l),
(85,0,l),
(101,76,l)
);
}
);
width = 146;
}
);
unicode = 8222;
},
{
glyphname = quotedblleft;
lastChange = "2022-11-25 18:34:06 +0000";
layers = (
{
layerId = m01;
shapes = (
{
closed = 1;
nodes = (
(78,600,l),
(94,524,l),
(101,524,l),
(88,586,l),
(95,586,l),
(92,600,l)
);
},
{
closed = 1;
nodes = (
(61,524,l),
(68,524,l),
(55,586,l),
(62,586,l),
(59,600,l),
(45,600,l)
);
}
);
width = 146;
}
);
unicode = 8220;
},
{
glyphname = quotedblright;
lastChange = "2022-11-25 18:34:06 +0000";
layers = (
{
layerId = m01;
shapes = (
{
closed = 1;
nodes = (
(51,586,l),
(58,586,l),
(45,524,l),
(52,524,l),
(68,600,l),
(54,600,l)
);
},
{
closed = 1;
nodes = (
(87,600,l),
(84,586,l),
(91,586,l),
(78,524,l),
(85,524,l),
(101,600,l)
);
}
);
width = 146;
}
);
unicode = 8221;
},
{
glyphname = quoteleft;
lastChange = "2022-11-25 18:34:06 +0000";
layers = (
{
layerId = m01;
shapes = (
{
closed = 1;
nodes = (
(45,600,l),
(61,524,l),
(68,524,l),
(55,586,l),
(62,586,l),
(59,600,l)
);
}
);
width = 113;
}
);
unicode = 8216;
},
{
glyphname = quoteright;
lastChange = "2022-11-25 18:34:06 +0000";
layers = (
{
layerId = m01;
shapes = (
{
closed = 1;
nodes = (
(51,586,l),
(58,586,l),
(45,524,l),
(52,524,l),
(68,600,l),
(54,600,l)
);
}
);
width = 113;
}
);
unicode = 8217;
},
{
glyphname = guillemetleft;
lastChange = "2022-11-25 18:34:06 +0000";
layers = (
{
layerId = m01;
shapes = (
{
closed = 1;
nodes = (
(168,0,l),
(49,284,ls),
(44,296,o),
(44,308,o),
(49,319,cs),
(166,600,l),
(173,600,l),
(56,317,ls),
(52,307,o),
(52,297,o),
(56,287,cs),
(175,0,l)
);
},
{
closed = 1;
nodes = (
(248,0,l),
(129,284,ls),
(124,296,o),
(124,308,o),
(129,319,cs),
(246,600,l),
(253,600,l),
(136,317,ls),
(132,307,o),
(132,297,o),
(136,287,cs),
(255,0,l)
);
}
);
width = 300;
}
);
unicode = 171;
},
{
glyphname = guillemetright;
lastChange = "2022-11-25 18:34:06 +0000";
layers = (
{
layerId = m01;
shapes = (
{
closed = 1;
nodes = (
(52,0,l),
(45,0,l),
(164,287,ls),
(168,297,o),
(168,307,o),
(164,317,cs),
(46,600,l),
(54,600,l),
(171,319,ls),
(175,308,o),
(175,296,o),
(171,284,c)
);
},
{
closed = 1;
nodes = (
(132,0,l),
(125,0,l),
(244,287,ls),
(248,297,o),
(248,307,o),
(244,317,cs),
(126,600,l),
(134,600,l),
(251,319,ls),
(255,308,o),
(255,296,o),
(251,284,c)
);
}
);
width = 299;
}
);
unicode = 187;
},
{
glyphname = guilsinglleft;
lastChange = "2022-11-25 18:34:06 +0000";
layers = (
{
layerId = m01;
shapes = (
{
closed = 1;
nodes = (
(168,0,l),
(49,284,ls),
(44,296,o),
(44,308,o),
(49,319,cs),
(166,600,l),
(173,600,l),
(56,317,ls),
(52,307,o),
(52,297,o),
(56,287,cs),
(175,0,l)
);
}
);
width = 220;
}
);
unicode = 8249;
},
{
glyphname = guilsinglright;
lastChange = "2022-11-25 18:34:06 +0000";
layers = (
{
layerId = m01;
shapes = (
{
closed = 1;
nodes = (
(52,0,l),
(45,0,l),
(164,287,ls),
(168,297,o),
(168,307,o),
(164,317,cs),
(46,600,l),
(54,600,l),
(171,319,ls),
(175,308,o),
(175,296,o),
(171,284,c)
);
}
);
width = 219;
}
);
unicode = 8250;
},
{
glyphname = quotedbl;
lastChange = "2022-11-25 18:34:06 +0000";
layers = (
{
layerId = m01;
shapes = (
{
closed = 1;
nodes = (
(78,600,l),
(78,524,l),
(85,524,l),
(85,600,l)
);
},
{
closed = 1;
nodes = (
(45,600,l),
(45,524,l),
(52,524,l),
(52,600,l)
);
}
);
width = 130;
}
);
unicode = 34;
},
{
glyphname = quotesingle;
lastChange = "2022-11-25 18:34:06 +0000";
layers = (
{
layerId = m01;
shapes = (
{
closed = 1;
nodes = (
(45,600,l),
(45,524,l),
(52,524,l),
(52,600,l)
);
}
);
width = 97;
}
);
unicode = 39;
},
{
glyphname = baht;
lastChange = "2022-11-25 18:34:06 +0000";
layers = (
{
layerId = m01;
shapes = (
{
closed = 1;
nodes = (
(133,-60,l),
(140,-60,l),
(140,660,l),
(133,660,l)
);
},
{
closed = 1;
nodes = (
(272,489,ls),
(272,444,o),
(236,407,o),
(191,407,cs),
(33,407,l),
(33,579,ls),
(33,586,o),
(39,592,o),
(46,592,cs),
(191,592,ls),
(236,592,o),
(272,556,o),
(272,511,cs)
);
},
{
closed = 1;
nodes = (
(272,89,ls),
(272,44,o),
(236,8,o),
(191,8,cs),
(46,8,ls),
(39,8,o),
(33,13,o),
(33,21,cs),
(33,400,l),
(191,400,ls),
(236,400,o),
(272,363,o),
(272,318,cs)
);
},
{
closed = 1;
nodes = (
(46,600,ls),
(35,600,o),
(25,590,o),
(25,579,cs),
(25,21,ls),
(25,9,o),
(35,0,o),
(46,0,cs),
(191,0,ls),
(240,0,o),
(280,40,o),
(280,89,cs),
(280,318,ls),
(280,359,o),
(253,393,o),
(216,404,c),
(253,414,o),
(280,448,o),
(280,489,cs),
(280,511,ls),
(280,560,o),
(240,600,o),
(191,600,cs)
);
}
);
width = 305;
}
);
unicode = 3647;
},
{
glyphname = at;
lastChange = "2022-11-25 18:34:06 +0000";
layers = (
{
layerId = m01;
shapes = (
{
closed = 1;
nodes = (
(288,129,o),
(234,183,o),
(234,250,cs),
(234,289,o),
(265,320,o),
(304,320,cs),
(476,320,l),
(476,250,ls),
(476,183,o),
(422,129,o),
(355,129,cs)
);
},
{
closed = 1;
nodes = (
(286,633,o),
(204,602,o),
(142,542,cs),
(80,482,o),
(45,402,o),
(45,315,cs),
(45,145,o),
(178,6,o),
(349,0,cs),
(360,0,ls),
(424,0,o),
(485,19,o),
(538,55,c),
(534,61,l),
(479,24,o),
(416,5,o),
(349,8,cs),
(183,13,o),
(53,149,o),
(53,315,cs),
(53,400,o),
(87,478,o),
(147,537,cs),
(208,595,o),
(288,625,o),
(372,622,cs),
(515,616,o),
(637,511,o),
(662,372,cs),
(675,303,o),
(664,231,o),
(632,170,cs),
(619,145,o),
(592,129,o),
(563,129,cs),
(519,129,o),
(484,164,o),
(484,208,cs),
(484,373,ls),
(484,428,o),
(439,473,o),
(384,473,cs),
(287,473,l),
(287,465,l),
(384,465,ls),
(435,465,o),
(476,424,o),
(476,373,cs),
(476,327,l),
(304,327,ls),
(261,327,o),
(226,293,o),
(226,250,cs),
(226,179,o),
(284,121,o),
(355,121,cs),
(411,121,o),
(459,157,o),
(476,207,c),
(476,160,o),
(515,121,o),
(563,121,cs),
(595,121,o),
(624,139,o),
(639,167,cs),
(672,229,o),
(683,303,o),
(670,373,cs),
(644,516,o),
(519,624,o),
(373,629,cs)
);
}
);
width = 720;
}
);
unicode = 64;
},
{
glyphname = ampersand;
lastChange = "2022-11-28 16:21:13 +0000";
layers = (
{
layerId = m01;
shapes = (
{
closed = 1;
nodes = (
(105,596,o),
(58,548,o),
(58,489,cs),
(58,442,o),
(101,394,o),
(135,356,cs),
(155,335,l),
(224,399,ls),
(250,423,o),
(270,454,o),
(270,489,cs),
(270,548,o),
(222,596,o),
(164,596,cs)
);
},
{
closed = 1;
nodes = (
(154,324,l),
(89,264,ls),
(54,232,o),
(29,192,o),
(29,145,cs),
(29,65,o),
(95,0,o),
(175,0,cs),
(183,0,ls),
(262,0,o),
(326,63,o),
(328,142,c)
);
},
{
closed = 1;
nodes = (
(175,-8,ls),
(90,-8,o),
(22,61,o),
(22,145,cs),
(22,194,o),
(49,236,o),
(85,269,cs),
(149,329,l),
(130,351,ls),
(94,390,o),
(50,439,o),
(50,489,cs),
(50,552,o),
(101,603,o),
(164,603,cs),
(226,603,o),
(277,552,o),
(277,489,cs),
(277,451,o),
(256,419,o),
(228,393,cs),
(160,329,l),
(328,152,l),
(328,303,l),
(336,303,l),
(336,144,l),
(395,83,l),
(389,78,l),
(336,134,l),
(330,55,o),
(263,-8,o),
(183,-8,cs)
);
}
);
width = 434;
}
);
unicode = 38;
},
{
glyphname = paragraph;
lastChange = "2022-11-25 18:34:06 +0000";
layers = (
{
layerId = m01;
shapes = (
{
closed = 1;
nodes = (
(278,8,ls),
(262,8,o),
(249,20,o),
(249,36,cs),
(249,600,l),
(242,600,l),
(242,8,l),
(208,8,l),
(208,0,l),
(283,0,l),
(283,8,l)
);
},
{
closed = 1;
nodes = (
(123,600,l),
(115,600,ls),
(62,600,o),
(19,554,o),
(19,500,cs),
(19,447,o),
(62,402,o),
(115,400,c),
(115,8,l),
(82,8,l),
(82,0,l),
(156,0,l),
(156,8,l),
(151,8,ls),
(136,8,o),
(123,20,o),
(123,36,cs)
);
}
);
width = 308;
}
);
unicode = 182;
},
{
glyphname = section;
lastChange = "2022-11-25 18:34:06 +0000";
layers = (
{
layerId = m01;
shapes = (
{
closed = 1;
nodes = (
(244,373,o),
(290,327,o),
(290,273,cs),
(290,244,ls),
(290,218,o),
(275,194,o),
(249,177,c),
(230,192,o),
(206,202,o),
(179,207,cs),
(113,220,o),
(67,266,o),
(67,318,cs),
(67,320,ls),
(67,343,o),
(79,364,o),
(99,380,cs),
(109,388,o),
(121,395,o),
(135,399,c),
(148,393,o),
(163,388,o),
(178,385,cs)
);
},
{
closed = 1;
nodes = (
(255,502,l),
(329,502,l),
(329,509,l),
(312,509,o),
(297,520,o),
(291,537,cs),
(283,559,o),
(267,579,o),
(243,591,cs),
(230,597,o),
(216,600,o),
(202,600,cs),
(154,600,ls),
(102,600,o),
(60,557,o),
(60,505,cs),
(60,504,ls),
(60,463,o),
(84,426,o),
(126,404,c),
(114,399,o),
(104,393,o),
(95,386,cs),
(72,369,o),
(60,345,o),
(60,320,cs),
(60,318,ls),
(60,262,o),
(108,213,o),
(178,200,cs),
(204,195,o),
(228,185,o),
(247,170,cs),
(275,148,o),
(290,119,o),
(290,90,cs),
(290,40,o),
(248,0,o),
(198,0,cs),
(156,0,ls),
(108,0,o),
(69,38,o),
(66,85,c),
(99,85,l),
(99,92,l),
(25,92,l),
(25,85,l),
(26,85,ls),
(43,85,o),
(58,74,o),
(64,57,cs),
(78,20,o),
(113,-7,o),
(156,-7,cs),
(198,-7,ls),
(253,-7,o),
(298,35,o),
(298,89,cs),
(298,120,o),
(283,149,o),
(256,172,c),
(282,190,o),
(297,216,o),
(297,243,cs),
(298,274,ls),
(298,331,o),
(249,379,o),
(179,393,cs),
(164,395,o),
(150,400,o),
(137,406,cs),
(93,428,o),
(67,464,o),
(67,504,cs),
(67,505,ls),
(67,553,o),
(106,592,o),
(154,592,cs),
(202,592,ls),
(215,592,o),
(228,590,o),
(239,584,cs),
(270,569,o),
(288,541,o),
(289,509,c),
(255,509,l)
);
}
);
width = 354;
}
);
unicode = 167;
},
{
glyphname = copyright;
lastChange = "2022-11-25 18:34:06 +0000";
layers = (
{
layerId = m01;
shapes = (
{
closed = 1;
nodes = (
(190,-8,o),
(53,129,o),
(53,299,cs),
(53,468,o),
(190,606,o),
(360,606,cs),
(529,606,o),
(667,468,o),
(667,299,cs),
(667,129,o),
(529,-8,o),
(360,-8,cs)
);
},
{
closed = 1;
nodes = (
(186,614,o),
(45,473,o),
(45,299,cs),
(45,125,o),
(186,-16,o),
(360,-16,cs),
(534,-16,o),
(675,125,o),
(675,299,cs),
(675,473,o),
(534,614,o),
(360,614,cs)
);
},
{
closed = 1;
nodes = (
(314,114,o),
(267,133,o),
(232,169,cs),
(197,205,o),
(178,253,o),
(179,303,cs),
(182,403,o),
(265,484,o),
(365,484,cs),
(444,484,o),
(514,434,o),
(540,359,c),
(533,356,l),
(508,428,o),
(441,477,o),
(365,477,cs),
(269,477,o),
(189,399,o),
(187,303,cs),
(186,255,o),
(204,209,o),
(238,175,cs),
(271,140,o),
(316,121,o),
(365,121,cs),
(440,121,o),
(507,169,o),
(532,240,c),
(540,237,l),
(513,163,o),
(443,114,o),
(365,114,cs)
);
}
);
width = 720;
}
);
unicode = 169;
},
{
glyphname = registered;
lastChange = "2022-12-13 17:00:49 +0000";
layers = (
{
layerId = m01;
shapes = (
{
closed = 1;
nodes = (
(52,417,o),
(12,458,o),
(12,507,cs),
(12,556,o),
(52,597,o),
(101,597,cs),
(151,597,o),
(191,556,o),
(191,507,cs),
(191,458,o),
(151,417,o),
(101,417,cs)
);
},
{
closed = 1;
nodes = (
(48,604,o),
(5,560,o),
(5,507,cs),
(5,454,o),
(48,410,o),
(101,410,cs),
(154,410,o),
(198,454,o),
(198,507,cs),
(198,560,o),
(154,604,o),
(101,604,cs)
);
},
{
closed = 1;
nodes = (
(77,559,ls),
(77,564,o),
(81,567,o),
(86,567,cs),
(111,567,ls),
(119,567,o),
(125,561,o),
(125,553,cs),
(125,547,ls),
(125,538,o),
(119,532,o),
(111,532,cs),
(77,532,l)
);
},
{
closed = 1;
nodes = (
(131,510,ls),
(131,518,o),
(128,524,o),
(122,528,c),
(128,532,o),
(132,539,o),
(132,547,cs),
(132,553,ls),
(132,565,o),
(123,574,o),
(111,574,cs),
(86,574,ls),
(77,574,o),
(70,567,o),
(70,559,cs),
(70,447,l),
(66,447,l),
(66,440,l),
(82,440,l),
(82,447,l),
(79,447,o),
(77,449,o),
(77,452,cs),
(77,525,l),
(110,525,l),
(118,524,o),
(124,518,o),
(124,510,cs),
(124,455,ls),
(124,447,o),
(132,440,o),
(140,440,c),
(140,447,l),
(135,447,o),
(131,451,o),
(131,455,cs)
);
}
);
width = 223;
}
);
unicode = 174;
},
{
glyphname = trademark;
lastChange = "2022-11-25 18:34:06 +0000";
layers = (
{
layerId = m01;
shapes = (
{
closed = 1;
nodes = (
(6,592,l),
(42,592,l),
(42,411,l),
(34,411,l),
(34,403,l),
(57,403,l),
(57,411,l),
(53,411,o),
(49,414,o),
(49,418,cs),
(49,592,l),
(84,592,l),
(84,600,l),
(6,600,l)
);
},
{
closed = 1;
nodes = (
(252,411,l),
(247,411,o),
(244,414,o),
(244,418,cs),
(244,594,ls),
(244,605,o),
(231,606,o),
(227,598,cs),
(182,508,ls),
(181,506,o),
(180,506,o),
(179,508,cs),
(136,598,ls),
(131,607,o),
(118,603,o),
(118,594,cs),
(118,411,l),
(110,411,l),
(110,403,l),
(134,403,l),
(134,411,l),
(129,411,o),
(126,414,o),
(126,418,cs),
(126,594,ls),
(126,596,o),
(128,597,o),
(129,595,cs),
(173,504,ls),
(177,496,o),
(185,496,o),
(189,504,cs),
(233,595,ls),
(234,597,o),
(236,597,o),
(236,594,cs),
(236,411,l),
(229,411,l),
(229,403,l),
(252,403,l)
);
}
);
width = 277;
}
);
unicode = 8482;
},
{
glyphname = degree;
lastChange = "2022-11-25 18:34:06 +0000";
layers = (
{
layerId = m01;
shapes = (
{
closed = 1;
nodes = (
(53,646,o),
(32,626,o),
(32,600,cs),
(32,575,o),
(53,554,o),
(78,554,cs),
(104,554,o),
(124,575,o),
(124,600,cs),
(124,626,o),
(104,646,o),
(78,646,cs)
);
},
{
closed = 1;
nodes = (
(49,547,o),
(25,571,o),
(25,600,cs),
(25,629,o),
(49,653,o),
(78,653,cs),
(107,653,o),
(131,629,o),
(131,600,cs),
(131,571,o),
(107,547,o),
(78,547,cs)
);
}
);
width = 156;
}
);
unicode = 176;
},
{
glyphname = minute;
lastChange = "2022-11-25 18:34:06 +0000";
layers = (
{
layerId = m01;
shapes = (
{
closed = 1;
nodes = (
(61,600,l),
(45,524,l),
(52,524,l),
(68,600,l)
);
}
);
width = 113;
}
);
unicode = 8242;
},
{
glyphname = second;
lastChange = "2022-11-25 18:34:06 +0000";
layers = (
{
layerId = m01;
shapes = (
{
closed = 1;
nodes = (
(94,600,l),
(78,524,l),
(85,524,l),
(101,600,l)
);
},
{
closed = 1;
nodes = (
(61,600,l),
(45,524,l),
(52,524,l),
(68,600,l)
);
}
);
width = 146;
}
);
unicode = 8243;
},
{
glyphname = bar;
lastChange = "2022-11-25 18:34:06 +0000";
layers = (
{
layerId = m01;
shapes = (
{
closed = 1;
nodes = (
(25,-60,l),
(32,-60,l),
(32,660,l),
(25,660,l)
);
}
);
width = 57;
}
);
unicode = 124;
},
{
glyphname = brokenbar;
lastChange = "2022-11-25 18:34:06 +0000";
layers = (
{
layerId = m01;
shapes = (
{
closed = 1;
nodes = (
(32,348,l),
(32,660,l),
(25,660,l),
(25,348,l)
);
},
{
closed = 1;
nodes = (
(25,248,l),
(25,-60,l),
(32,-60,l),
(32,248,l)
);
}
);
width = 57;
}
);
unicode = 166;
},
{
glyphname = dagger;
lastChange = "2022-11-25 18:34:06 +0000";
layers = (
{
layerId = m01;
shapes = (
{
closed = 1;
nodes = (
(25,450,l),
(235,450,l),
(235,458,l),
(25,458,l)
);
},
{
closed = 1;
nodes = (
(163,8,ls),
(147,8,o),
(134,20,o),
(134,36,cs),
(134,600,l),
(127,600,l),
(127,8,l),
(93,8,l),
(93,0,l),
(168,0,l),
(168,8,l)
);
}
);
width = 260;
}
);
unicode = 8224;
},
{
glyphname = daggerdbl;
lastChange = "2022-11-25 18:34:06 +0000";
layers = (
{
layerId = m01;
shapes = (
{
closed = 1;
nodes = (
(25,450,l),
(235,450,l),
(235,458,l),
(25,458,l)
);
},
{
closed = 1;
nodes = (
(25,265,l),
(235,265,l),
(235,273,l),
(25,273,l)
);
},
{
closed = 1;
nodes = (
(163,8,ls),
(147,8,o),
(134,20,o),
(134,36,cs),
(134,600,l),
(127,600,l),
(127,8,l),
(93,8,l),
(93,0,l),
(168,0,l),
(168,8,l)
);
}
);
width = 260;
}
);
unicode = 8225;
},
{
glyphname = cent;
lastChange = "2022-11-25 18:34:06 +0000";
layers = (
{
layerId = m01;
shapes = (
{
closed = 1;
nodes = (
(222,599,o),
(277,544,o),
(277,477,c),
(285,477,l),
(285,548,o),
(226,607,o),
(155,607,cs),
(83,607,o),
(25,548,o),
(25,477,cs),
(25,122,ls),
(25,50,o),
(83,-8,o),
(155,-8,cs),
(226,-8,o),
(285,50,o),
(285,122,c),
(277,122,l),
(277,54,o),
(222,0,o),
(155,0,cs),
(88,0,o),
(33,54,o),
(33,122,cs),
(33,477,ls),
(33,544,o),
(88,599,o),
(155,599,cs)
);
},
{
closed = 1;
nodes = (
(151,-60,l),
(159,-60,l),
(159,659,l),
(151,659,l)
);
}
);
width = 310;
}
);
unicode = 162;
},
{
glyphname = currency;
lastChange = "2022-11-25 18:34:06 +0000";
layers = (
{
layerId = m01;
shapes = (
{
closed = 1;
nodes = (
(32,470,o),
(87,524,o),
(154,524,cs),
(221,524,o),
(275,470,o),
(275,403,cs),
(275,336,o),
(221,282,o),
(154,282,cs),
(87,282,o),
(32,336,o),
(32,403,cs)
);
},
{
closed = 1;
nodes = (
(283,441,o),
(266,475,o),
(240,499,c),
(282,549,l),
(276,554,l),
(234,504,l),
(212,521,o),
(184,532,o),
(154,532,cs),
(124,532,o),
(96,521,o),
(74,504,c),
(32,554,l),
(26,549,l),
(68,499,l),
(42,475,o),
(25,441,o),
(25,403,cs),
(25,365,o),
(42,331,o),
(68,307,c),
(26,257,l),
(32,252,l),
(74,302,l),
(96,285,o),
(124,274,o),
(154,274,cs),
(184,274,o),
(212,285,o),
(234,302,c),
(276,252,l),
(282,257,l),
(240,307,l),
(266,331,o),
(283,365,o),
(283,403,cs)
);
}
);
width = 308;
}
);
unicode = 164;
},
{
glyphname = dollar;
lastChange = "2022-11-25 18:34:06 +0000";
layers = (
{
layerId = m01;
shapes = (
{
closed = 1;
nodes = (
(116,392,ls),
(83,406,o),
(67,428,o),
(67,457,cs),
(67,487,ls),
(67,544,o),
(110,593,o),
(167,598,cs),
(233,605,o),
(289,552,o),
(289,488,cs),
(289,446,l),
(297,446,l),
(297,487,ls),
(297,548,o),
(251,600,o),
(190,606,cs),
(119,612,o),
(60,557,o),
(60,488,cs),
(60,457,ls),
(60,425,o),
(78,401,o),
(113,385,cs),
(242,329,ls),
(272,316,o),
(291,286,o),
(291,254,cs),
(290,111,ls),
(290,49,o),
(240,0,o),
(179,0,cs),
(177,0,ls),
(116,0,o),
(66,49,o),
(66,111,cs),
(66,184,l),
(99,184,l),
(99,191,l),
(25,191,l),
(25,184,l),
(30,184,ls),
(46,184,o),
(59,171,o),
(59,155,cs),
(59,111,ls),
(59,45,o),
(112,-8,o),
(177,-8,cs),
(179,-8,ls),
(244,-8,o),
(298,45,o),
(298,111,cs),
(298,254,ls),
(298,289,o),
(278,321,o),
(245,335,cs)
);
},
{
closed = 1;
nodes = (
(174,-60,l),
(181,-60,l),
(181,660,l),
(174,660,l)
);
}
);
width = 323;
}
);
unicode = 36;
},
{
glyphname = euro;
lastChange = "2022-11-25 18:34:06 +0000";
layers = (
{
layerId = m01;
shapes = (
{
closed = 1;
nodes = (
(319,599,o),
(374,544,o),
(374,477,c),
(382,477,l),
(382,548,o),
(323,607,o),
(252,607,cs),
(180,607,o),
(122,548,o),
(122,477,cs),
(122,122,ls),
(122,50,o),
(180,-8,o),
(252,-8,cs),
(323,-8,o),
(382,50,o),
(382,122,c),
(374,122,l),
(374,54,o),
(319,0,o),
(252,0,cs),
(185,0,o),
(130,54,o),
(130,122,cs),
(130,477,ls),
(130,544,o),
(185,599,o),
(252,599,cs)
);
},
{
closed = 1;
nodes = (
(25,248,l),
(255,248,l),
(255,256,l),
(25,256,l)
);
},
{
closed = 1;
nodes = (
(25,349,l),
(255,349,l),
(255,357,l),
(25,357,l)
);
}
);
width = 407;
}
);
unicode = 8364;
},
{
glyphname = ruble;
lastChange = "2022-11-25 18:34:06 +0000";
layers = (
{
layerId = m01;
shapes = (
{
closed = 1;
nodes = (
(358,489,ls),
(358,444,o),
(322,408,o),
(277,408,cs),
(106,408,l),
(106,576,ls),
(106,585,o),
(113,593,o),
(122,593,cs),
(277,593,ls),
(322,593,o),
(358,556,o),
(358,511,cs)
);
},
{
closed = 1;
nodes = (
(122,600,ls),
(109,600,o),
(99,589,o),
(99,576,cs),
(99,7,l),
(65,7,l),
(65,0,l),
(139,0,l),
(139,7,l),
(134,7,ls),
(119,7,o),
(106,20,o),
(106,35,cs),
(106,400,l),
(277,400,ls),
(326,400,o),
(366,440,o),
(366,489,cs),
(366,511,ls),
(366,560,o),
(326,600,o),
(277,600,cs)
);
},
{
closed = 1;
nodes = (
(25,400,l),
(106,400,l),
(106,408,l),
(25,408,l)
);
},
{
closed = 1;
nodes = (
(28,269,l),
(200,269,l),
(200,277,l),
(28,277,l)
);
}
);
width = 391;
}
);
unicode = 8381;
},
{
glyphname = sterling;
lastChange = "2022-11-25 18:34:06 +0000";
layers = (
{
layerId = m01;
shapes = (
{
closed = 1;
nodes = (
(163,-1,o),
(275,0,o),
(396,0,c),
(396,8,l),
(281,8,o),
(175,7,o),
(80,7,c),
(117,31,o),
(146,56,o),
(167,83,cs),
(184,104,o),
(205,138,o),
(207,179,cs),
(210,221,o),
(192,261,o),
(175,300,cs),
(168,315,o),
(162,331,o),
(156,347,cs),
(128,426,o),
(133,518,o),
(207,570,cs),
(252,602,o),
(306,600,o),
(358,600,cs),
(366,600,l),
(367,600,l),
(367,607,l),
(358,607,ls),
(305,607,o),
(250,610,o),
(203,576,cs),
(125,522,o),
(120,426,o),
(149,344,cs),
(155,328,o),
(161,312,o),
(168,297,cs),
(185,259,o),
(202,220,o),
(199,179,cs),
(197,140,o),
(177,108,o),
(161,88,cs),
(138,59,o),
(107,32,o),
(65,6,cs),
(61,4,o),
(61,-1,o),
(67,-1,cs)
);
},
{
closed = 1;
nodes = (
(337,351,l),
(337,359,l),
(35,359,l),
(35,351,l)
);
}
);
width = 445;
}
);
unicode = 163;
},
{
glyphname = yen;
lastChange = "2022-11-25 18:34:06 +0000";
layers = (
{
layerId = m01;
shapes = (
{
closed = 1;
nodes = (
(264,593,l),
(297,593,l),
(183,403,l),
(66,593,l),
(99,593,l),
(99,600,l),
(25,600,l),
(25,593,l),
(42,593,ls),
(52,593,o),
(61,588,o),
(66,579,cs),
(178,395,l),
(177,8,l),
(145,8,l),
(145,0,l),
(219,0,l),
(219,8,l),
(203,8,ls),
(193,8,o),
(185,16,o),
(185,26,cs),
(186,394,l),
(297,579,ls),
(303,588,o),
(312,593,o),
(322,593,cs),
(338,593,l),
(338,600,l),
(264,600,l)
);
},
{
closed = 1;
nodes = (
(25,395,l),
(335,395,l),
(335,403,l),
(25,403,l)
);
},
{
closed = 1;
nodes = (
(25,325,l),
(335,325,l),
(335,333,l),
(25,333,l)
);
}
);
width = 363;
}
);
unicode = 165;
},
{
glyphname = divisionslash;
lastChange = "2022-11-25 18:34:06 +0000";
layers = (
{
layerId = m01;
shapes = (
{
closed = 1;
nodes = (
(32,0,l),
(315,600,l),
(306,600,l),
(23,0,l)
);
}
);
width = 360;
}
);
unicode = 8725;
},
{
glyphname = plus;
lastChange = "2022-11-25 18:34:06 +0000";
layers = (
{
layerId = m01;
shapes = (
{
closed = 1;
nodes = (
(156,409,l),
(156,179,l),
(164,179,l),
(164,409,l)
);
},
{
closed = 1;
nodes = (
(45,290,l),
(275,290,l),
(275,298,l),
(45,298,l)
);
}
);
width = 320;
}
);
unicode = 43;
},
{
glyphname = minus;
lastChange = "2022-11-25 18:34:06 +0000";
layers = (
{
layerId = m01;
shapes = (
{
closed = 1;
nodes = (
(45,290,l),
(275,290,l),
(275,298,l),
(45,298,l)
);
}
);
width = 320;
}
);
unicode = 8722;
},
{
glyphname = multiply;
lastChange = "2022-11-25 18:34:06 +0000";
layers = (
{
layerId = m01;
shapes = (
{
closed = 1;
nodes = (
(207,378,l),
(45,216,l),
(51,210,l),
(213,372,l)
);
},
{
closed = 1;
nodes = (
(45,372,l),
(207,210,l),
(213,216,l),
(51,378,l)
);
}
);
width = 258;
}
);
unicode = 215;
},
{
glyphname = divide;
lastChange = "2022-11-25 18:34:06 +0000";
layers = (
{
layerId = m01;
shapes = (
{
closed = 1;
nodes = (
(45,290,l),
(275,290,l),
(275,298,l),
(45,298,l)
);
},
{
closed = 1;
nodes = (
(152,378,o),
(145,372,o),
(145,364,cs),
(145,356,o),
(152,350,o),
(160,350,cs),
(167,350,o),
(174,356,o),
(174,364,cs),
(174,372,o),
(167,378,o),
(160,378,cs)
);
},
{
closed = 1;
nodes = (
(152,238,o),
(145,232,o),
(145,224,cs),
(145,216,o),
(152,210,o),
(160,210,cs),
(167,210,o),
(174,216,o),
(174,224,cs),
(174,232,o),
(167,238,o),
(160,238,cs)
);
}
);
width = 320;
}
);
unicode = 247;
},
